<svg width="120" height="63" viewBox="0 0 1200 630" fill="none" xmlns="http://www.w3.org/2000/svg">
<rect width="1200" height="630" fill="#00E1BE"/>
<path d="M361.311 412.2C358.16 412.2 355.301 410.349 354.012 407.473L308.841 306.738V404.2C308.841 408.618 305.259 412.2 300.841 412.2H256.085C251.667 412.2 248.085 408.618 248.085 404.2V225C248.085 220.582 251.667 217 256.085 217H323.228C326.449 217 329.356 218.932 330.604 221.903L382.732 346.049L438.737 221.714C440.029 218.845 442.884 217 446.031 217H513.32C517.739 217 521.32 220.582 521.32 225V404.2C521.32 408.618 517.739 412.2 513.32 412.2H466.923C462.505 412.2 458.923 408.618 458.923 404.2V306.467L410.846 407.634C409.521 410.423 406.709 412.2 403.621 412.2H361.311Z" fill="white"/>
<path d="M554.059 412.2C549.64 412.2 546.059 408.618 546.059 404.2V225C546.059 220.582 549.64 217 554.059 217H603.74C608.158 217 611.74 220.582 611.74 225V404.2C611.74 408.618 608.159 412.2 603.74 412.2H554.059Z" fill="white"/>
<path d="M645.15 412.2C640.731 412.2 637.15 408.618 637.15 404.2V225C637.15 220.582 640.731 217 645.15 217H698.841C701.353 217 703.72 218.18 705.231 220.187L787.56 329.511V225C787.56 220.582 791.142 217 795.56 217H840.316C844.734 217 848.316 220.582 848.316 225V404.2C848.316 408.618 844.734 412.2 840.316 412.2H786.413C784.02 412.2 781.753 411.129 780.234 409.282L697.905 309.178V404.2C697.905 408.618 694.323 412.2 689.905 412.2H645.15Z" fill="white"/>
<path d="M876.118 272.578C871.7 272.578 868.118 268.996 868.118 264.578V225C868.118 220.582 871.7 217 876.118 217H1040.09C1044.5 217 1048.09 220.582 1048.09 225V264.578C1048.09 268.996 1044.5 272.578 1040.09 272.578H990.942V404.2C990.942 408.618 987.361 412.2 982.942 412.2H933.261C928.843 412.2 925.261 408.618 925.261 404.2V272.578H876.118Z" fill="white"/>
<path d="M173.877 253.662L156.46 266.786C151.52 270.508 150.533 277.531 154.256 282.471L221.651 371.907L191.055 296.179L178.684 291.43C176.621 290.639 175.591 288.325 176.383 286.262L181.579 272.726L173.877 253.662Z" fill="white"/>
<path d="M227.039 226.002L200.282 234.696C193.559 236.881 189.879 244.102 192.064 250.825L238.842 394.787L231.092 283.956L213.818 268.94C212.15 267.491 211.974 264.965 213.423 263.297L228.439 246.023L227.039 226.002Z" fill="white"/>
</svg>
