<svg width="360" height="79" viewBox="0 0 360 79" fill="none" xmlns="http://www.w3.org/2000/svg">
<path d="M84.0903 78.4211C82.8241 78.4211 81.6758 77.6776 81.1577 76.5222L63.0103 36.0519V75.2071C63.0103 76.9822 61.5714 78.4211 59.7963 78.4211H41.816C40.0409 78.4211 38.602 76.9822 38.602 75.2071V3.21398C38.602 1.43895 40.0409 0 41.816 0H68.7902C70.0845 0 71.2525 0.776343 71.7536 1.96968L92.6961 51.8451L115.196 1.89401C115.715 0.741245 116.862 0 118.126 0H145.16C146.935 0 148.373 1.43895 148.373 3.21398V75.2071C148.373 76.9822 146.935 78.4211 145.16 78.4211H126.519C124.744 78.4211 123.305 76.9822 123.305 75.2071V35.943L103.991 76.5866C103.458 77.7071 102.329 78.4211 101.088 78.4211H84.0903Z" fill="#00F1CB"/>
<path d="M161.526 78.4211C159.751 78.4211 158.312 76.9822 158.312 75.2071V3.21398C158.312 1.43895 159.751 0 161.526 0H181.485C183.261 0 184.699 1.43895 184.699 3.21398V75.2071C184.699 76.9822 183.261 78.4211 181.486 78.4211H161.526Z" fill="#00F1CB"/>
<path d="M198.122 78.4211C196.347 78.4211 194.908 76.9822 194.908 75.2071V3.21398C194.908 1.43895 196.347 0 198.122 0H219.692C220.701 0 221.652 0.474215 222.259 1.28055L255.335 45.2011V3.21398C255.335 1.43895 256.774 0 258.549 0H276.529C278.304 0 279.743 1.43895 279.743 3.21398V75.2071C279.743 76.9822 278.304 78.4211 276.529 78.4211H254.874C253.913 78.4211 253.002 77.991 252.391 77.2487L219.316 37.0322V75.2071C219.316 76.9822 217.877 78.4211 216.102 78.4211H198.122Z" fill="#00F1CB"/>
<path d="M290.913 22.3282C289.138 22.3282 287.699 20.8893 287.699 19.1143V3.21398C287.699 1.43895 289.138 0 290.913 0H356.786C358.561 0 360 1.43895 360 3.21398V19.1143C360 20.8893 358.561 22.3282 356.786 22.3282H337.043V75.2071C337.043 76.9822 335.604 78.4211 333.829 78.4211H313.87C312.095 78.4211 310.656 76.9822 310.656 75.2071V22.3282H290.913Z" fill="#00F1CB"/>
<path d="M8.78888 14.7287L1.79192 20.0013C-0.192723 21.4968 -0.589228 24.3181 0.90631 26.3027L27.982 62.2334L15.6902 31.81L10.7201 29.9022C9.89149 29.5841 9.47764 28.6546 9.79569 27.826L11.8833 22.3876L8.78888 14.7287Z" fill="#00F1CB"/>
<path d="M30.1467 3.6164L19.3971 7.1093C16.6961 7.98695 15.2179 10.8881 16.0956 13.5891L34.8884 71.4257L31.7749 26.8996L24.8351 20.8669C24.1652 20.2846 24.0943 19.2696 24.6765 18.5998L30.7092 11.66L30.1467 3.6164Z" fill="#00F1CB"/>
</svg>
