<svg width="512" height="512" viewBox="0 0 512 512" fill="none" xmlns="http://www.w3.org/2000/svg">
<path d="M261.639 378C257.699 378 254.127 375.687 252.515 372.092L196.051 246.172V368C196.051 373.523 191.574 378 186.051 378H130.106C124.584 378 120.106 373.523 120.106 368V144C120.106 138.477 124.584 134 130.106 134H214.034C218.061 134 221.696 136.416 223.255 140.128L288.415 295.311L358.421 139.893C360.037 136.306 363.605 134 367.539 134H451.65C457.173 134 461.65 138.477 461.65 144V368C461.65 373.523 457.173 378 451.65 378H393.654C388.131 378 383.654 373.523 383.654 368V245.833L323.558 372.292C321.901 375.778 318.386 378 314.526 378H261.639Z" fill="#00F1CB"/>
<path d="M27.3458 179.827L5.5754 196.232C-0.59964 200.885 -1.83333 209.663 2.8199 215.838L87.0634 327.633L48.8185 232.974L33.3545 227.038C30.7764 226.048 29.4888 223.156 30.4784 220.578L36.9737 203.657L27.3458 179.827Z" fill="#00F1CB"/>
<path d="M93.7988 145.252L60.3523 156.12C51.9482 158.851 47.3491 167.877 50.0798 176.281L108.552 356.234L98.8646 217.696L77.272 198.925C75.1879 197.114 74.9671 193.956 76.7787 191.872L95.5489 170.279L93.7988 145.252Z" fill="#00F1CB"/>
</svg>
