<svg width="49" height="49" viewBox="0 0 49 49" fill="none" xmlns="http://www.w3.org/2000/svg">
<path d="M10.715 24.2484C10.715 22.1277 12.4342 20.4084 14.555 20.4084H15.995C18.1157 20.4084 19.835 22.1277 19.835 24.2484V25.6884C19.835 27.8092 18.1157 29.5284 15.995 29.5284H14.555C12.4342 29.5284 10.715 27.8092 10.715 25.6884V24.2484Z" fill="#00F1CB" style="fill:#00F1CB;fill:color(display-p3 0.0000 0.9451 0.7961);fill-opacity:1;"/>
<path d="M20.315 24.2484C20.315 22.1277 22.0342 20.4084 24.155 20.4084H25.595C27.7157 20.4084 29.435 22.1277 29.435 24.2484V25.6884C29.435 27.8092 27.7157 29.5284 25.595 29.5284H24.155C22.0342 29.5284 20.315 27.8092 20.315 25.6884V24.2484Z" fill="#00F1CB" style="fill:#00F1CB;fill:color(display-p3 0.0000 0.9451 0.7961);fill-opacity:1;"/>
<path d="M29.915 24.2484C29.915 22.1277 31.6342 20.4084 33.755 20.4084H35.195C37.3157 20.4084 39.035 22.1277 39.035 24.2484V25.6884C39.035 27.8092 37.3157 29.5284 35.195 29.5284H33.755C31.6342 29.5284 29.915 27.8092 29.915 25.6884V24.2484Z" fill="#00F1CB" style="fill:#00F1CB;fill:color(display-p3 0.0000 0.9451 0.7961);fill-opacity:1;"/>
</svg>
