<svg width="49" height="49" viewBox="0 0 49 49" fill="none" xmlns="http://www.w3.org/2000/svg">
<path d="M12.125 16.8085C12.125 14.6877 13.8442 12.9685 15.965 12.9685H17.405C19.5258 12.9685 21.245 14.6877 21.245 16.8085V18.2485C21.245 20.3693 19.5258 22.0885 17.405 22.0885H15.965C13.8442 22.0885 12.125 20.3693 12.125 18.2485V16.8085Z" fill="#00F1CB" style="fill:#00F1CB;fill:color(display-p3 0.0000 0.9451 0.7961);fill-opacity:1;"/>
<path d="M19.565 24.2485C19.565 22.1277 21.2842 20.4085 23.405 20.4085H24.845C26.9658 20.4085 28.685 22.1277 28.685 24.2485V25.6885C28.685 27.8093 26.9658 29.5285 24.845 29.5285H23.405C21.2842 29.5285 19.565 27.8093 19.565 25.6885V24.2485Z" fill="#00F1CB" style="fill:#00F1CB;fill:color(display-p3 0.0000 0.9451 0.7961);fill-opacity:1;"/>
<path d="M27.005 31.6885C27.005 29.5677 28.7242 27.8485 30.845 27.8485H32.285C34.4058 27.8485 36.125 29.5677 36.125 31.6885V33.1285C36.125 35.2493 34.4058 36.9685 32.285 36.9685H30.845C28.7242 36.9685 27.005 35.2493 27.005 33.1285V31.6885Z" fill="#00F1CB" style="fill:#00F1CB;fill:color(display-p3 0.0000 0.9451 0.7961);fill-opacity:1;"/>
</svg>
