<svg width="49" height="49" viewBox="0 0 49 49" fill="none" xmlns="http://www.w3.org/2000/svg">
<path d="M5.66504 24.2484C5.66504 22.1277 7.38427 20.4084 9.50504 20.4084H10.945C13.0658 20.4084 14.785 22.1277 14.785 24.2484V25.6884C14.785 27.8092 13.0658 29.5284 10.945 29.5284H9.50504C7.38427 29.5284 5.66504 27.8092 5.66504 25.6884V24.2484Z" fill="#00F1CB" style="fill:#00F1CB;fill:color(display-p3 0.0000 0.9451 0.7961);fill-opacity:1;"/>
<path d="M15.265 24.2484C15.265 22.1277 16.9843 20.4084 19.105 20.4084H20.545C22.6658 20.4084 24.385 22.1277 24.385 24.2484V25.6884C24.385 27.8092 22.6658 29.5284 20.545 29.5284H19.105C16.9843 29.5284 15.265 27.8092 15.265 25.6884V24.2484Z" fill="#00F1CB" style="fill:#00F1CB;fill:color(display-p3 0.0000 0.9451 0.7961);fill-opacity:1;"/>
<path d="M24.865 24.2484C24.865 22.1277 26.5843 20.4084 28.705 20.4084H30.145C32.2658 20.4084 33.985 22.1277 33.985 24.2484V25.6884C33.985 27.8092 32.2658 29.5284 30.145 29.5284H28.705C26.5843 29.5284 24.865 27.8092 24.865 25.6884V24.2484Z" fill="#00F1CB" style="fill:#00F1CB;fill:color(display-p3 0.0000 0.9451 0.7961);fill-opacity:1;"/>
<path d="M34.465 24.2484C34.465 22.1277 36.1843 20.4084 38.305 20.4084H39.745C41.8658 20.4084 43.585 22.1277 43.585 24.2484V25.6884C43.585 27.8092 41.8658 29.5284 39.745 29.5284H38.305C36.1843 29.5284 34.465 27.8092 34.465 25.6884V24.2484Z" fill="#00F1CB" style="fill:#00F1CB;fill:color(display-p3 0.0000 0.9451 0.7961);fill-opacity:1;"/>
</svg>
