<svg width="49" height="49" viewBox="0 0 49 49" fill="none" xmlns="http://www.w3.org/2000/svg">
<path d="M0.61499 24.2484C0.61499 22.1277 2.33422 20.4084 4.45499 20.4084H5.89499C8.01576 20.4084 9.73499 22.1277 9.73499 24.2484V25.6884C9.73499 27.8092 8.01576 29.5284 5.89499 29.5284H4.45499C2.33422 29.5284 0.61499 27.8092 0.61499 25.6884V24.2484Z" fill="#00F1CB" style="fill:#00F1CB;fill:color(display-p3 0.0000 0.9451 0.7961);fill-opacity:1;"/>
<path d="M10.215 24.2484C10.215 22.1277 11.9342 20.4084 14.055 20.4084H15.495C17.6158 20.4084 19.335 22.1277 19.335 24.2484V25.6884C19.335 27.8092 17.6158 29.5284 15.495 29.5284H14.055C11.9342 29.5284 10.215 27.8092 10.215 25.6884V24.2484Z" fill="#00F1CB" style="fill:#00F1CB;fill:color(display-p3 0.0000 0.9451 0.7961);fill-opacity:1;"/>
<path d="M19.815 24.2484C19.815 22.1277 21.5342 20.4084 23.655 20.4084H25.095C27.2158 20.4084 28.935 22.1277 28.935 24.2484V25.6884C28.935 27.8092 27.2158 29.5284 25.095 29.5284H23.655C21.5342 29.5284 19.815 27.8092 19.815 25.6884V24.2484Z" fill="#00F1CB" style="fill:#00F1CB;fill:color(display-p3 0.0000 0.9451 0.7961);fill-opacity:1;"/>
<path d="M29.415 24.2484C29.415 22.1277 31.1342 20.4084 33.255 20.4084H34.695C36.8158 20.4084 38.535 22.1277 38.535 24.2484V25.6884C38.535 27.8092 36.8158 29.5284 34.695 29.5284H33.255C31.1342 29.5284 29.415 27.8092 29.415 25.6884V24.2484Z" fill="#00F1CB" style="fill:#00F1CB;fill:color(display-p3 0.0000 0.9451 0.7961);fill-opacity:1;"/>
<path d="M39.015 24.2484C39.015 22.1277 40.7342 20.4084 42.855 20.4084H44.295C46.4158 20.4084 48.135 22.1277 48.135 24.2484V25.6884C48.135 27.8092 46.4158 29.5284 44.295 29.5284H42.855C40.7342 29.5284 39.015 27.8092 39.015 25.6884V24.2484Z" fill="#00F1CB" style="fill:#00F1CB;fill:color(display-p3 0.0000 0.9451 0.7961);fill-opacity:1;"/>
</svg>
