<svg width="200" height="200" viewBox="0 0 200 200" fill="none" xmlns="http://www.w3.org/2000/svg">
<rect width="200" height="200" fill="white" style="fill:white;fill-opacity:1;"/>
<rect width="200" height="200" fill="url(#paint0_linear_509_8431)" style=""/>
<path d="M13.6055 101.607C13.7675 99.9438 14.8691 98.5686 16.3595 98.1042C17.0111 97.2402 17.9867 96.6678 19.0883 96.5778C19.5167 96.5418 19.9631 96.4698 20.4239 96.3762C20.9963 95.505 21.7235 94.9902 22.3067 94.677C22.4543 94.3242 22.6127 93.9246 22.7315 93.6294C22.8539 93.3198 22.9763 93.021 23.0951 92.7294C22.9655 92.3226 22.8935 91.887 22.8899 91.437C22.8791 89.2662 24.4703 87.4806 26.4935 87.333C26.5763 87.3258 26.6627 87.3222 26.7455 87.3222C26.7923 87.3222 26.8391 87.3222 26.8895 87.3222C26.9831 87.3222 27.0767 87.333 27.1703 87.3438C28.2827 87.4554 29.0531 87.6894 29.6183 87.8622C29.8811 87.9414 30.0467 87.9918 30.2087 88.0242C30.3095 88.0242 30.4571 88.0098 30.6047 88.0026C30.8747 87.9846 31.1807 87.963 31.5191 87.9594C32.2031 87.801 32.7287 87.765 33.1067 87.7398C33.1427 87.7398 33.1823 87.7362 33.2219 87.7326C39.0035 85.4574 45.0803 83.7294 50.3723 82.8618C51.1139 82.7394 51.8807 82.6782 52.6511 82.6746C53.0183 82.6746 53.3891 82.6854 53.7671 82.7106C53.9255 81.9582 54.1307 81.1806 54.4259 80.3922C54.8363 79.287 55.4915 78.3582 55.9703 77.6814C56.0639 77.5482 56.1863 77.3754 56.2619 77.2602C56.4383 76.7598 56.5211 76.3458 56.6219 75.8346C57.0539 73.6818 57.6587 71.7018 60.7367 69.2754C61.4639 68.703 62.3495 68.253 63.2027 67.821C63.3071 67.7706 63.4295 67.7058 63.5483 67.6446C63.5735 67.5978 63.5951 67.5546 63.6167 67.515C64.0235 66.7554 64.4843 65.895 65.0855 65.175C67.1303 62.727 70.1435 61.1898 72.5627 59.9586C72.7967 59.8398 73.0235 59.7246 73.2467 59.6094C73.6895 59.3826 74.2043 59.1846 74.7947 58.9686C74.8739 58.6446 74.9495 58.317 75.0179 58.0362C75.5399 55.8258 75.8855 54.4182 76.2563 53.5146C78.1211 48.9714 81.0191 45.4506 84.8603 43.0458C88.2767 40.9074 92.3699 39.7662 96.6899 39.7446C102.173 39.7194 107.774 41.4798 112.469 44.6442C117.962 40.497 124.187 38.3046 130.638 38.2758C143.76 38.2146 156.252 47.1318 162.458 60.9882C162.912 61.9998 163.329 63.321 163.776 64.7178C164.067 65.6394 164.543 67.1334 164.813 67.731C165.216 68.127 166.217 68.9406 166.901 69.4986C168.351 70.6794 169.849 71.8998 170.814 73.023C175.285 78.2358 182.492 95.9766 184.173 101.168C184.623 102.554 184.973 104.962 185.394 108.4L185.441 108.782C185.541 109.603 185.642 110.373 185.732 111.1C186.337 115.816 186.773 119.222 186.11 122.901C185.477 126.418 183.893 129.964 180.458 135.551C175.343 143.875 166.256 150.725 154.175 155.362C143.634 159.409 130.983 161.666 118.549 161.723C103.937 161.788 91.0127 158.919 82.1639 153.638C80.7995 152.824 78.9095 151.161 76.3895 148.897C75.8135 148.382 75.0791 147.719 74.6363 147.341C74.3843 147.291 74.0567 147.241 73.8119 147.201C73.0019 147.071 72.0875 146.924 71.1371 146.596C65.7335 144.731 62.4143 140.221 62.1371 134.446C61.7915 134.219 61.4711 133.975 61.1831 133.708C57.5759 130.367 56.4815 124.852 58.5191 120.295C58.9547 119.323 59.5631 118.595 60.0527 118.012C60.1607 117.886 60.3119 117.703 60.3947 117.598C60.7007 116.914 60.9023 116.27 61.1399 115.532C61.5611 114.207 62.0723 112.598 63.2351 110.722C63.2063 110.726 63.1775 110.733 63.1487 110.737C61.4459 111.035 59.8367 111.32 58.2923 111.655C55.7507 112.213 53.1551 112.843 50.6459 113.451C48.8351 113.89 46.9631 114.344 45.1091 114.772C44.1191 115.003 43.1327 115.168 42.1823 115.334C41.2823 115.489 40.4291 115.633 39.6299 115.82C38.9387 115.982 38.2367 116.18 37.4915 116.389C36.9587 116.54 36.4115 116.695 35.8463 116.839C35.5475 116.914 35.2451 116.954 34.9427 116.957C34.3919 116.957 33.8447 116.839 33.3371 116.597L31.2275 115.597C30.3671 115.19 29.6759 114.463 29.2835 113.555C29.1035 113.141 28.9991 112.724 28.9451 112.317C28.6715 111.943 28.4519 111.514 28.3115 111.043C28.2107 110.711 28.1531 110.373 28.1351 110.038C27.4979 109.685 26.9327 109.167 26.4431 108.483C26.1695 108.465 25.9175 108.429 25.6727 108.375C24.7367 108.159 23.9339 107.597 23.3867 106.823C22.9907 106.823 22.5983 106.802 22.2167 106.762C21.7199 106.708 21.2483 106.557 20.8235 106.323C20.2367 106.388 19.6751 106.442 19.1423 106.471L19.0739 106.478C18.8615 106.499 18.5411 106.532 18.1703 106.532C16.3271 106.539 15.2291 105.711 14.6279 105.013C13.8395 104.095 13.4579 102.853 13.5803 101.611L13.6055 101.607Z" fill="white" style="fill:white;fill-opacity:1;"/>
<path d="M57.1006 86.5086C56.2222 86.703 55.0162 86.6778 54.1954 86.8614C53.119 86.7318 52.0462 86.7354 50.977 86.9118C45.4762 87.8154 39.3706 89.6622 34.201 91.725L33.175 92.0238C33.4954 93.4026 33.6034 94.8786 33.5026 96.4518C31.8538 96.5094 30.6982 96.9882 30.0322 97.881C28.0846 97.3626 25.6798 98.133 24.229 99.6126C22.663 100.045 21.0178 100.527 19.3942 100.66L21.331 101.326L17.4646 102.032C17.407 102.615 18.577 102.395 18.9298 102.377C19.9594 102.323 21.2662 102.147 22.303 102.007C24.1282 102.136 25.8166 101.989 27.6382 101.557C29.1898 102.709 30.3166 102.183 31.9834 101.279L32.5882 101.132C33.1138 101.877 33.5746 101.409 33.5926 100.592C34.885 100.394 35.7454 99.9294 36.1666 99.1914C37.3762 99.3678 39.1366 98.1546 37.4554 97.8486C36.3178 97.6974 37.3222 97.449 40.4758 97.107L41.3254 96.4662C45.9334 96.1674 50.6638 94.9794 55.1494 93.6582C55.7218 93.489 56.179 93.2118 56.485 92.6466C56.2006 92.2758 55.8586 92.1462 55.4518 92.3046L45.1198 94.8786L45.1918 94.4034C47.2798 93.471 49.321 92.427 51.3226 91.2714L55.8118 90.2778C57.4066 88.8486 59.4766 88.2798 62.0146 88.575L62.2702 87.8478C63.7066 87.0594 64.5634 86.0334 64.8406 84.7662C62.6878 83.931 58.8862 84.9858 57.1006 86.505V86.5086Z" fill="#D70300" style="fill:#D70300;fill:color(display-p3 0.8431 0.0118 0.0000);fill-opacity:1;"/>
<path d="M22.303 102.007L23.923 102.169L22.6306 102.683C24.7186 102.91 26.7058 102.147 28.7578 101.981C28.4302 102.917 26.7094 102.32 26.5042 103.349L27.793 103.684L26.5078 104.372C27.0442 104.494 28.8154 104.174 29.0566 104.397C29.1754 104.509 29.1394 105.293 29.3194 105.635C29.8774 106.683 30.1582 106.467 30.8566 106.481C31.1482 106.489 31.3318 106.744 31.3606 106.741C32.2246 106.579 33.6286 105.711 34.5826 105.362C35.0146 104.548 34.5646 104.181 33.8662 103.785L31.5586 102.471C33.6502 102.557 34.3342 100.502 31.9798 101.283C30.6082 101.261 29.4562 101.701 28.1098 101.639L28.7506 100.963C28.4878 100.952 28.2178 100.941 27.9514 100.963C26.0722 101.139 24.1534 101.755 22.2994 102.01L22.303 102.007Z" fill="#430806" style="fill:#430806;fill:color(display-p3 0.2627 0.0314 0.0235);fill-opacity:1;"/>
<path d="M29.6831 92.0886C29.4023 92.1858 29.4059 92.301 29.6831 92.4306L27.1775 93.201C26.6303 94.2378 25.7411 96.8694 25.2119 97.6758C24.8843 98.1726 23.9303 98.1474 23.5811 98.7666L24.2291 99.6126C26.1659 99.0762 28.0955 98.4174 30.0323 97.881C30.8567 97.467 30.7091 96.9234 29.5931 96.2538C29.4347 95.739 30.6443 92.6142 31.7423 92.8698L31.9403 92.0742C31.2275 91.995 30.3527 92.2002 29.6795 92.085L29.6831 92.0886Z" fill="#500605" style="fill:#500605;fill:color(display-p3 0.3137 0.0235 0.0196);fill-opacity:1;"/>
<path d="M33.9563 108.433C33.4271 108.4 32.8547 108.497 32.3435 108.44L33.3119 109.113L32.0267 109.804L34.2803 109.459C34.2119 110.024 33.5747 109.883 33.1679 110.499C32.9951 110.762 32.7071 111.575 32.8331 111.863L34.9427 112.864C36.2351 112.529 37.5059 112.126 38.8127 111.824C38.3519 111.064 38.1719 110.157 38.2727 109.102L37.8839 108.451C36.5843 108.267 35.2775 108.263 33.9563 108.44V108.433Z" fill="#7A0302" style="fill:#7A0302;fill:color(display-p3 0.4784 0.0118 0.0078);fill-opacity:1;"/>
<path d="M26.7742 91.419L27.7462 92.0922L27.1054 92.4342L29.6866 92.427V92.085C28.6354 91.905 28.0918 91.5414 26.7778 91.4154L26.7742 91.419Z" fill="#867B77" style="fill:#867B77;fill:color(display-p3 0.5255 0.4824 0.4667);fill-opacity:1;"/>
<path d="M63.8399 119.513C65.0423 116.893 65.0026 115.028 66.9611 112.259C67.5658 111.403 71.3962 107.417 71.3962 107.068C71.3962 106.874 69.8951 105.733 69.7799 105.2C69.5891 104.023 72.2674 102.943 72.6814 104.163C79.7194 106.784 88.1578 107.281 95.3254 105.063C95.6926 104.984 95.8258 105.362 95.9338 105.761C96.1966 106.582 95.7826 107.417 94.6846 108.267L83.7766 116.468C82.3366 115.957 82.4158 114.794 84.0214 112.976C83.827 112.274 84.1943 111.629 85.1194 111.046C81.5086 110.794 77.8726 110.222 74.287 109.574C73.6462 110.452 73.0162 110.92 72.3934 110.985L72.523 111.838C70.4386 114.074 68.0374 117.199 68.887 120.208L69.9238 120.187C82.2538 127.495 99.3863 124.381 112.757 121.623C120.767 119.189 128.863 117.721 137.039 117.217C149.617 115.982 158.603 137.175 142.161 137.978C138.047 137.841 134.105 137.801 130.044 139.108C129.633 138.856 129.183 138.712 128.697 138.683L128.003 139.267C121.937 140.717 115.748 142.193 109.589 143.309C101.165 144.839 92.6255 146.168 84.0791 144.976L86.6999 146.593L86.7682 147.395L87.3298 147.32C90.8074 148.627 94.3498 149.707 97.957 150.563L98.731 151.435C110.24 152.587 121.253 153.515 132.827 151.924C144.303 150.347 155.841 146.83 165.266 139.576L166.796 139.191C183.461 124.334 176.747 97.935 166.422 81.0042L166.202 79.5354L165.266 79.377C164.881 78.8478 162.516 75.9174 162.314 76.2882C162.429 77.379 162.239 83.7798 161.76 84.093C161.13 84.507 160.73 84.7626 160.313 83.985L157.548 72.8358C155.921 66.2082 152.792 59.9982 148.659 55.0662C147.785 55.1922 147.417 54.9978 147.558 54.483L143.796 50.3178L142.64 50.3574C132.524 43.8594 118.477 46.4586 112.879 58.0146L111.871 58.6446C112.321 59.271 112.152 60.153 111.363 61.2834C120.176 55.5882 130.548 54.8898 139.641 60.1026C140.847 60.7938 147.565 65.8734 143.598 65.7186C140.005 63.1698 136.067 61.665 131.822 61.3014L131.574 60.5958C128.539 60.7722 125.529 61.0134 122.538 61.3194C119.226 62.2518 116.004 63.4002 112.868 64.7718L112.847 65.5566L108.75 68.2818C119.348 64.5234 129.644 67.5762 138.482 74.0454C143.58 75.7842 144.35 77.0622 140.786 77.8686C136.567 77.0766 132.503 75.507 128.597 73.1634C120.752 69.405 111.065 70.845 103.616 75.0354C111.828 72.2958 121.249 71.0322 129.432 74.3334C134.915 77.6922 140.405 79.0674 146.334 80.4822C150.312 84.8418 144.941 90.9654 139.994 89.277C132.845 97.4058 124.262 103.108 113.369 102.28C111.111 102.107 103.814 100.577 102.882 98.5578C102.785 98.349 102.727 98.1186 102.684 97.881C102.662 96.5454 105.009 95.6562 105.906 96.5022L107.504 96.3762C113.354 98.223 119.665 97.7046 125.432 95.7606L126.566 96.0666C126.426 95.1342 126.779 94.8066 127.531 95.379C128.409 94.2774 129.162 93.9354 129.785 94.3458C131.304 92.4846 132.989 90.7962 134.839 89.2806C134.015 89.079 133.611 88.7154 133.633 88.1934L132.589 88.3194C129.918 86.685 126.905 85.9038 123.906 85.2234L122.311 84.1542L121.145 84.5862C114.65 82.2318 107.144 83.283 101.136 86.4042C101.046 87.2106 100.79 87.7434 100.373 88.0062C100.085 88.9638 99.6526 88.9998 99.4042 88.0098C98.1766 88.3122 97.3126 87.9774 96.8158 86.9982L94.843 87.9234C94.5586 88.539 94.0222 88.4202 93.9142 87.693C93.8098 87.9774 93.6298 88.197 93.3526 88.2942C93.0034 88.4166 86.887 85.965 86.4082 85.6914L86.1562 85.0038C85.5514 84.7266 85.069 84.7806 84.7054 85.1694C78.7006 83.1894 71.5906 81.9978 65.7334 84.9822L64.8478 84.759C62.227 85.1082 59.6818 85.9362 57.1078 86.4978C57.3382 84.9318 57.493 83.3766 58.0474 81.8826C58.4434 80.8134 59.5342 79.6722 59.8042 78.9702C60.9346 76.011 59.941 75.021 63.073 72.5514C63.9082 71.8926 65.9242 71.097 66.313 70.683C66.7018 70.269 67.3894 68.6202 68.0086 67.8786C69.7042 65.8482 72.649 64.4766 74.9638 63.2814C75.6442 62.9322 77.6422 62.3418 77.977 62.0214C78.2578 61.7478 79.291 56.445 79.8274 55.1382C85.609 41.0658 102.507 41.1666 112.587 49.7418C128.82 35.1654 150.391 43.575 158.973 62.727C159.805 64.581 160.838 68.8542 161.677 70.125C162.419 71.2482 166.497 74.049 167.963 75.759C171.807 80.241 178.763 97.0386 180.527 102.478C180.973 103.857 181.434 107.828 181.617 109.293C182.989 120.385 183.903 122.447 177.233 133.301C161.551 158.822 107.421 163.97 84.097 150.052C82.1278 148.879 76.951 143.81 76.3462 143.569C75.2734 143.144 73.6678 143.133 72.3646 142.683C68.4046 141.315 66.0214 138.118 66.0178 133.647C66.0178 133.082 66.3994 132.2 66.3526 132.142C66.2626 132.02 64.4482 131.246 63.7607 130.612C61.4783 128.499 60.7258 124.982 62.047 122.026C62.4358 121.159 63.469 120.309 63.8434 119.495L63.8399 119.513Z" fill="black" style="fill:black;fill-opacity:1;"/>
<path d="M100.369 88.017C99.9335 88.0494 99.8903 88.0638 99.4007 88.0206C98.4647 88.2402 97.8923 88.0566 97.6763 87.4734C96.9958 87.6894 96.7079 87.5346 96.8123 87.009C96.2327 87.1314 94.1447 87.7038 93.9107 87.7038C93.3455 87.873 93.0431 88.4706 93.0071 89.4966L89.0003 90.375L88.7591 91.1346C87.4163 90.915 85.9655 91.0626 84.4139 91.5846C85.2275 89.637 84.6371 87.747 83.3699 86.2134C80.2703 82.4622 75.6839 83.2614 71.5763 84.2658C68.6063 84.993 64.7507 86.163 62.2703 87.8442C60.9095 88.1034 58.5515 87.7974 56.9099 88.485C56.3267 88.7298 56.3879 89.2914 55.9235 89.5038C54.7463 90.0438 52.5503 90.033 50.9015 90.7062C49.4795 91.2858 48.8279 92.0634 47.6759 92.7582C46.8767 93.2406 45.6383 92.9958 45.1919 94.3998C51.3155 93.7014 57.3635 91.869 63.2495 89.8854C67.3967 89.2086 71.5439 88.5102 75.6911 87.783C76.8827 87.6354 77.6675 89.655 77.1635 90.1914C77.0447 90.3174 74.1683 91.3182 74.0027 91.3614C63.2855 93.363 52.6115 95.4006 41.9735 97.4814C41.0015 96.6318 38.5139 97.2438 37.4555 97.8414C38.2727 98.1726 37.0811 98.367 36.8759 98.4174C35.3675 98.7918 33.8447 99.0654 32.3003 99.231C32.2175 99.7998 33.0887 99.6018 33.4415 99.5766C34.2623 99.5226 35.0219 99.177 35.8499 99.213L33.5963 100.585C34.0031 101.629 36.1991 101.308 36.5015 100.232C36.8615 100.192 37.1351 100.369 37.3475 100.703L42.9743 98.6946C43.4567 100.077 44.1011 101.031 44.9003 101.557C50.2175 99.8466 55.9091 98.2986 61.3451 97.0494C63.0227 97.7622 66.4967 97.3518 67.7963 95.9982L68.4874 96.5418C74.0998 94.8282 75.8315 94.9974 68.8078 96.5526L68.4478 97.3554C66.583 96.7758 63.3035 97.5858 62.0003 99.0906C54.8363 101.24 47.9027 104.527 40.7279 106.687C39.0035 108.134 41.3471 108.656 42.8051 108.022C42.9887 109.545 43.4891 110.459 44.2991 110.762C48.7055 109.743 53.1011 108.602 57.5219 107.633C61.5035 106.762 65.9315 106.237 69.7799 105.193C70.4855 105.002 70.9895 104.311 72.6815 104.156C73.0019 104.303 73.3223 104.433 73.6571 104.519C73.9919 104.606 74.3087 104.674 74.6183 104.645C81.6959 104.012 89.6987 102.248 96.5207 100.127C96.8231 100.034 97.0967 99.843 97.3739 99.6378C97.6511 99.4326 97.9139 99.1842 98.1623 98.925C99.1739 99.3714 101.413 99.0762 101.708 97.8846C102.313 98.5146 102.637 98.5146 102.677 97.881C104.372 96.8802 103.98 97.1718 105.899 96.5022C106.932 96.5958 107.958 96.3726 108.98 95.8326C113.689 97.5822 122.297 96.0198 121.505 89.1654C120.723 82.4298 115.061 82.5558 109.934 83.8626L103.217 86.6742C101.903 86.8254 100.952 87.2682 100.373 88.0026L100.369 88.017Z" fill="#FC0000" style="fill:#FC0000;fill:color(display-p3 0.9882 0.0000 0.0000);fill-opacity:1;"/>
<path d="M64.8407 84.7698C64.0199 85.3458 62.4971 86.829 62.2703 87.8514C68.0915 86.7426 79.2695 80.1114 83.5283 87.6354C84.7487 89.7918 83.9351 90.7818 83.2799 92.8698C85.1123 92.3694 86.9411 91.6638 88.7591 91.1418C90.1307 90.663 88.8563 88.4058 88.2299 87.4842C87.2507 86.0442 86.6855 85.7742 85.1951 85.2054C85.1375 85.1838 86.2175 85.8246 86.1455 85.0182C80.4287 82.6422 70.1507 81.0294 64.8371 84.7734L64.8407 84.7698Z" fill="#FCECE9" style="fill:#FCECE9;fill:color(display-p3 0.9882 0.9255 0.9137);fill-opacity:1;"/>
<path d="M73.2538 88.8198C67.9402 89.439 62.4322 90.5838 57.4498 92.643C57.2266 91.8078 56.7262 91.833 56.4814 92.6466C51.5638 94.4286 46.4122 95.3862 41.3254 96.4662C41.059 96.9054 41.131 97.1898 41.5918 97.1646C52.1938 95.1774 63.0694 93.1254 73.6714 90.951C73.8766 90.9078 74.053 90.735 74.2258 90.5226C75.8566 91.7754 78.2002 88.8594 75.8314 87.8442C75.4138 87.6642 73.1638 88.0098 73.2502 88.8234L73.2538 88.8198Z" fill="#FCF9F9" style="fill:#FCF9F9;fill:color(display-p3 0.9882 0.9765 0.9765);fill-opacity:1;"/>
<path d="M31.9438 92.0778C31.6702 92.1642 30.1438 92.7654 30.079 92.8446C29.9242 93.039 28.657 96.6102 28.873 96.8874C29.197 97.3014 30.2698 96.8694 30.0322 97.881C31.5046 97.4742 33.0958 97.377 34.5466 96.8334C33.5746 95.3286 34.201 94.8786 34.2334 93.579C34.2586 92.4918 32.9518 92.3082 34.201 91.725C33.445 91.8978 32.9698 91.7538 31.9438 92.0778Z" fill="#930000" style="fill:#930000;fill:color(display-p3 0.5765 0.0000 0.0000);fill-opacity:1;"/>
<path d="M36.5014 100.239C35.3638 100.541 34.561 100.426 33.5962 100.592C33.2326 100.653 32.4082 101.114 31.9834 101.279C32.3362 101.283 33.0382 101.045 32.9518 101.611C32.6746 101.679 30.385 101.661 30.7018 102.471C31.1158 103.544 33.8698 104.019 34.5862 105.355C36.091 104.804 37.585 104.167 39.097 103.63C38.7406 102.878 38.2042 102.122 37.4914 101.362C37.783 100.192 37.4338 100.199 36.5014 100.232V100.239Z" fill="#910101" style="fill:#910101;fill:color(display-p3 0.5686 0.0039 0.0039);fill-opacity:1;"/>
<path d="M41.3255 96.4662C38.5355 97.0566 35.7167 97.5498 32.9411 98.2122C32.8583 98.7882 33.7259 98.583 34.0643 98.5398C35.1263 98.4138 36.3251 98.0466 37.4555 97.845C39.3095 97.5138 40.7567 97.6506 41.9735 97.485C52.9823 95.4222 63.9119 93.2982 74.7623 91.113C74.7731 90.7602 74.5823 90.573 74.2295 90.519C70.1615 91.5846 65.7011 91.887 61.5791 92.7222C55.4339 93.9642 49.2563 95.8866 43.0571 96.7614C42.5351 96.8334 41.6495 97.035 41.3219 96.4662H41.3255Z" fill="#F73311" style="fill:#F73311;fill:color(display-p3 0.9686 0.2000 0.0667);fill-opacity:1;"/>
<path d="M45.1919 94.4034C43.9607 94.7058 42.6611 95.4906 41.3255 95.4474C41.2751 96.081 42.3803 95.7786 42.7367 95.7354C47.1863 95.2098 51.9671 93.111 56.4851 92.6466C56.7911 92.6034 57.1763 92.7042 57.4535 92.643C59.2247 91.8042 61.1255 91.1634 63.1523 90.7206L63.2567 90.2274C63.5375 90.1302 63.5339 90.015 63.2567 89.8854C57.2483 91.329 51.2075 92.9274 45.1991 94.3998L45.1919 94.4034Z" fill="#FCAA10" style="fill:#FCAA10;fill:color(display-p3 0.9882 0.6667 0.0627);fill-opacity:1;"/>
<path d="M33.9562 108.433C34.2766 108.451 34.6042 108.411 34.9246 108.433L34.2838 109.109C35.4826 109.243 37.6138 107.821 37.7218 109.653C37.7974 110.924 37.0234 111.039 38.8162 111.82C40.609 111.403 42.5098 111.187 44.299 110.773L43.291 107.396C42.6502 106.816 40.285 108.821 40.7278 106.701C38.5102 107.371 36.181 107.795 33.9562 108.436V108.433Z" fill="#BE0101" style="fill:#BE0101;fill:color(display-p3 0.7451 0.0039 0.0039);fill-opacity:1;"/>
<path d="M36.5014 100.239L37.3078 100.577L36.1846 101.092C37.5742 101.949 37.4266 103.252 39.1006 103.637C41.0374 102.95 42.9418 102.197 44.9038 101.567C44.9614 100.916 43.3882 97.8378 43.1146 97.8378C41.2102 98.8134 38.611 99.6846 36.505 100.243L36.5014 100.239Z" fill="#D70300" style="fill:#D70300;fill:color(display-p3 0.8431 0.0118 0.0000);fill-opacity:1;"/>
<path d="M61.3451 97.0566L62.0003 99.0978C64.0811 98.475 66.4139 97.9602 68.4479 97.3626C69.2939 96.8406 68.6567 95.8074 67.7963 96.0018C65.7227 96.4122 63.3575 96.5922 61.3451 97.053V97.0566Z" fill="#260101" style="fill:#260101;fill:color(display-p3 0.1490 0.0039 0.0039);fill-opacity:1;"/>
<path d="M111.86 58.6446C111.594 59.2638 109.985 62.3886 110.269 62.7414C114.798 59.9226 119.568 57.6006 124.935 57.2262C130.591 56.8302 139.757 59.4006 143.526 64.1238C143.832 64.5054 144.314 64.6746 144.174 65.3154C141.477 63.4794 138.039 61.5426 134.81 61.0818C133.759 60.9306 132.387 60.6462 131.567 60.603C128.474 60.621 125.461 60.9738 122.531 61.665C119.168 62.241 115.943 63.2778 112.857 64.7754C111.554 65.5098 109.297 66.903 108.199 67.8714C107.915 68.1198 106.395 69.549 106.752 69.9162C113.876 66.471 122.945 66.5826 130.109 69.8586C134.375 71.8098 138.054 75.561 142.615 76.2342C141.704 77.7354 139.832 77.1162 138.417 76.7634C134.087 75.687 129.515 72.339 125.094 71.0934C118.535 69.2466 108.275 70.917 102.601 74.9058C102.284 75.129 99.829 76.6158 100.326 77.1018C107.911 73.6566 117.033 72.1554 125.234 73.6818C129.551 74.4846 133.431 77.4906 137.615 78.9882C139.494 79.6614 145.272 80.547 146.175 81.1734C147.637 82.1814 147.104 85.4214 146.021 86.7498C144.156 89.0358 142.413 88.9422 139.778 88.6794C136.697 91.3614 133.925 94.7994 130.541 97.017C122.369 102.374 110.957 103.688 102.68 97.8918C102.547 97.971 101.989 97.8558 101.712 97.8954C101.546 100.466 105.049 102.788 107.177 103.749C115.809 107.659 127.783 103.454 135.678 99.2634C135.915 99.1374 136.023 99.3966 135.944 99.7854C136.088 101.83 132.668 103.879 130.976 104.89C127.502 106.967 121.926 109.318 118.221 107.367C118.189 107.101 118.113 106.708 117.937 106.687C117.433 106.629 112.739 106.514 112.541 106.708C111.9 107.335 111.594 107.705 112.422 108.278C114.895 109.397 117.411 110.416 120.011 111.147C112.897 109.919 105.996 106.078 100.679 100.977H99.7894L99.0226 101.11C98.1586 102.55 97.0966 103.821 95.8366 104.923L95.9374 105.765C95.3182 106.391 94.7818 107.432 93.9898 107.968L83.2294 116.047L84.025 112.976C81.487 112.069 78.7654 111.622 75.8602 111.629C74.7658 111.003 73.9342 110.902 73.3654 111.32C72.8686 111.345 72.5194 111.723 72.325 112.457C70.5754 114.261 68.3434 117.76 68.887 120.205C78.3046 128.265 99.955 124.834 111.252 122.631C119.841 120.957 133.395 116.047 141.593 118.606C147.018 120.302 151.997 126.739 149.912 132.887C147.875 138.907 140.318 136.88 135.638 137.29C133.338 137.492 130.987 138.28 128.697 138.68C128.708 139.004 128.582 139.252 128.287 139.342C114.675 143.518 101.726 147.151 87.4702 146.33C86.743 146.377 86.4082 146.611 86.7682 147.392C90.901 149.606 94.2634 150.437 98.731 151.427C112.933 152.515 126.08 151.478 139.843 147.309C141.657 146.758 145.279 144.973 145.83 143.032C145.481 142.37 144.962 141.981 144.275 141.866C149.347 141.934 152.781 139.717 154.481 134.468C154.193 135.951 154.315 137.089 154.844 137.881C154.542 139.551 155.895 138.511 156.288 137.279C160.435 133.507 162.905 131.217 165.072 125.489C166.746 121.061 168.726 114.722 166.623 110.276C166.987 103.828 166.213 97.8306 163.171 91.9986C157.307 81.915 153.959 71.3814 151.187 59.9478C150.701 57.5574 149.79 56.0778 148.461 55.5054L148.656 55.0698C146.931 53.259 145.92 51.7938 143.792 50.3178L143.522 51.0414L145.455 53.583C135.829 45.0042 120.612 45.7674 113.527 57.4458C112.933 57.7986 112.379 58.1982 111.867 58.6446H111.86Z" fill="#4E9018" style="fill:#4E9018;fill:color(display-p3 0.3059 0.5647 0.0941);fill-opacity:1;"/>
<path d="M148.649 55.0698C147.227 54.915 148.94 56.0634 149.117 56.4558C152.043 62.9286 152.922 70.2366 155.287 76.9398C158.365 85.6626 164.899 93.741 165.943 103.263C166.191 105.535 165.705 108.26 165.983 110.409C166.04 110.848 166.922 112.234 166.926 113.789C166.947 118.927 164.121 127.973 160.946 131.894C158.855 134.475 156.057 135.188 155.15 138.219C154.783 138.28 154.851 137.877 154.83 137.881C154.632 137.665 154.405 137.575 154.142 137.639C152.306 140.84 150.168 142.903 146.406 142.427L145.815 143.036C143.976 143.493 144.89 143.756 144.667 144.069C144.444 144.382 139.965 146.557 139.227 146.83C131.106 149.876 121.627 150.743 113.095 151.039C108.325 151.204 103.411 150.664 98.7167 151.431C119.409 156.01 149.729 153.577 166.782 139.191C182.816 124.406 176.995 97.1106 166.08 80.7486C166.476 80.331 166.551 80.0754 166.188 79.5354C164.942 77.7966 163.211 75.885 161.648 74.4414L161.67 80.745L161.047 84.327C158.516 74.3442 156.785 63.2094 149.621 55.5522C149.275 55.1814 148.71 55.1382 148.641 55.0698H148.649Z" fill="#30660A" style="fill:#30660A;fill:color(display-p3 0.1882 0.4000 0.0392);fill-opacity:1;"/>
<path d="M145.416 124.971C144.228 124.593 143.094 123.909 142.014 122.915C136.841 121.349 131.437 121.439 125.807 123.193C107.558 128.056 86.5847 133.507 68.5451 125.183C66.1835 122.609 63.9335 124.496 65.3591 127.379C67.3679 130.893 73.1819 132.013 76.9475 132.675C94.3931 135.731 108.357 130.717 125.022 127.891C128.111 127.369 136.214 125.911 138.839 126.983C138.983 127.041 141.067 128.996 139.62 128.747L139.562 129.28C130.861 130.9 122.113 132.736 113.325 134.781C99.0839 137.863 84.3275 138.914 70.2155 134.687C69.6899 134.597 69.5099 134.972 69.5927 135.541C70.3703 138.338 71.8535 139.097 74.3879 139.85C94.9403 145.945 116.393 135.685 136.581 134.216C139.091 134.032 145.203 135.119 146.485 132.704C147.849 130.126 146.953 127.124 145.416 124.971Z" fill="#A74B0A" style="fill:#A74B0A;fill:color(display-p3 0.6549 0.2941 0.0392);fill-opacity:1;"/>
<path d="M81.8435 60.4878C81.8039 60.6858 81.3179 60.9774 81.5303 61.5102C87.3731 59.8218 94.9475 60.1818 100.898 61.4238C103.307 60.8802 108.869 56.0886 109.337 53.673L108.93 52.863C108.325 51.7866 105.953 51.0018 104.667 50.631C97.6943 48.6258 90.0335 48.1254 85.5983 55.1022C84.5507 57.0894 83.2619 58.8138 81.8471 60.4878H81.8435Z" fill="#509019" style="fill:#509019;fill:color(display-p3 0.3137 0.5647 0.0980);fill-opacity:1;"/>
<path d="M100.023 82.5594C101.931 81.789 103.753 81.069 105.765 80.5974C113.322 78.8262 119.265 79.7766 126.631 81.7854C130.134 82.743 136.369 85.7994 139.299 86.109C140.851 86.2746 142.421 85.2738 143.616 84.237C140.88 83.427 138.187 82.689 135.545 81.537C126.912 77.775 124.345 75.2226 114.042 76.0254C109.805 76.3566 101.715 77.9406 100.023 82.5594Z" fill="#4F9019" style="fill:#4F9019;fill:color(display-p3 0.3098 0.5647 0.0980);fill-opacity:1;"/>
<path d="M145.416 124.971C140.783 118.473 131.289 121.205 124.734 122.501C107.814 125.846 92.197 131.3 74.719 126.487C70.7122 125.381 70.0678 124.568 66.8062 122.591C66.115 122.174 65.7298 121.936 65.2294 122.685C63.8578 124.733 64.3186 125.561 65.3626 127.387L65.035 125.345L65.6758 126.019C65.6506 125.281 65.9242 124.748 66.4786 124.319C67.1194 125.029 67.879 125.601 68.6926 126.065C78.4162 131.617 96.6754 130.281 107.403 128.459C115.705 127.052 134.072 120.046 141.337 123.329C142.385 123.801 143.339 124.892 144.271 125.353C144.955 125.691 145.059 125.849 145.416 124.978V124.971Z" fill="#D27638" style="fill:#D27638;fill:color(display-p3 0.8235 0.4627 0.2196);fill-opacity:1;"/>
<path d="M100.369 88.017C106.061 87.5706 111.871 81.609 117.941 84.1974C119.273 84.7662 120.101 86.5482 120.543 87.9306C122.624 94.4106 115.964 96.1314 111.219 95.8146C110.377 95.757 109.578 95.1594 108.951 95.1738C108.156 95.1918 106.698 96.2394 105.895 96.5202C112.177 99.1518 120.27 98.5038 126.555 96.0846C127.848 91.329 126.865 86.3646 122.304 84.1722C115.5 82.5738 110.453 82.0914 103.656 84.507C101.773 85.1766 99.8362 85.3926 100.365 88.0206L100.369 88.017Z" fill="#FDF0EB" style="fill:#FDF0EB;fill:color(display-p3 0.9922 0.9412 0.9216);fill-opacity:1;"/>
<path d="M96.0634 63.8322C88.939 64.1562 81.6635 64.9698 74.7695 66.9966C73.5707 67.5654 72.0659 68.2998 71.2307 69.3942C77.4623 67.533 84.9862 68.1738 91.0954 70.323C93.3814 71.1294 95.5126 72.393 97.723 73.3686C98.6915 73.6458 98.6554 72.8034 98.065 72.1878C100.074 70.5462 101.863 68.8686 103.681 67.0038C104.282 66.3882 103.854 66.6006 103.886 66.6078C104.091 66.6582 104.286 66.7482 104.477 66.8598C104.628 66.615 105.344 66.5682 105.117 65.8374C102.137 65.067 99.1631 64.0482 96.0707 63.8322H96.0634Z" fill="#509119" style="fill:#509119;fill:color(display-p3 0.3137 0.5686 0.0980);fill-opacity:1;"/>
<path d="M139.62 128.747C138.504 128.564 136.175 128.697 134.979 128.812C126.192 129.658 116.594 132.999 107.742 134.579C95.2642 136.808 81.5374 138.05 69.4234 133.492C69.031 133.989 69.4342 134.983 69.589 135.541C70.0678 135.127 70.4782 135.487 70.9426 135.613C92.0854 141.286 108.422 136.469 129.039 132.095C132.906 131.275 136.61 129.917 140.592 129.759C140.829 129.1 139.901 128.791 139.62 128.744V128.747Z" fill="#D27738" style="fill:#D27738;fill:color(display-p3 0.8235 0.4667 0.2196);fill-opacity:1;"/>
<path d="M72.6779 104.167C73.2899 104.969 75.0251 105.736 75.9251 106.017C79.4243 107.119 87.8807 107.255 91.5815 106.809C93.0719 106.629 94.3607 105.563 95.9339 105.765C97.2731 104.404 99.1235 102.77 99.7859 100.973C100.563 99.8898 99.4295 98.5578 98.1623 98.9358C90.0587 101.423 81.0587 103.407 72.6815 104.167H72.6779Z" fill="#33670C" style="fill:#33670C;fill:color(display-p3 0.2000 0.4039 0.0471);fill-opacity:1;"/>
<path d="M128.687 138.683C113.336 141.373 97.957 146.679 82.2214 144.008C82.0198 144.901 82.4986 144.605 82.8334 144.883C83.8486 145.729 85.5838 146.769 86.7538 147.395C87.085 146.83 87.9778 147.05 88.525 147.039C99.8578 146.863 107.551 146.377 118.383 142.996C122.253 141.787 126.174 140.786 129.983 139.353L128.69 138.68L128.687 138.683Z" fill="#30650B" style="fill:#30650B;fill:color(display-p3 0.1882 0.3961 0.0431);fill-opacity:1;"/>
<path d="M93.2266 78.8442C86.9734 75.5718 67.8322 75.5502 62.7274 80.6874C62.4178 81.0006 60.8842 83.2434 62.083 82.7286C63.091 82.2966 64.4806 81.0042 65.7946 80.5038C73.5526 77.5518 83.089 80.0394 90.6598 82.6026C90.901 82.4226 91.0738 82.1598 91.1746 81.8214C92.3878 81.5586 94.2994 79.9926 93.2266 78.8406V78.8442Z" fill="#50911A" style="fill:#50911A;fill:color(display-p3 0.3137 0.5686 0.1020);fill-opacity:1;"/>
<path d="M166.195 79.5354C166.137 79.9782 165.212 80.2554 165.234 80.385C165.392 81.2994 167.901 84.5826 168.539 85.7706C175.091 98.0214 179.637 119.024 172.056 131.635L166.789 139.187C175.724 131.649 178.043 124.417 177.337 112.36C176.693 101.366 172.506 88.3158 166.195 79.5282V79.5354Z" fill="#54921E" style="fill:#54921E;fill:color(display-p3 0.3294 0.5725 0.1176);fill-opacity:1;"/>
<path d="M111.86 58.6446C114.085 59.0802 114.765 56.4882 116.033 55.0374C122.322 47.8194 132.801 46.6026 140.887 51.1782C142.748 52.2294 144.951 54.4434 146.877 55.0734C147.043 55.1274 147.403 55.1634 147.353 54.9078L143.781 50.3214C132.787 42.6966 117.473 45.6774 111.857 58.6482L111.86 58.6446Z" fill="#89C052" style="fill:#89C052;fill:color(display-p3 0.5373 0.7529 0.3216);fill-opacity:1;"/>
<path d="M81.8434 60.4878C84.2266 59.8614 84.9286 57.039 86.347 55.1922C87.4918 53.7018 90.0082 51.2142 91.7254 50.6418C94.933 49.5726 100.934 50.2674 104.217 51.2106C105.902 51.693 107.27 52.611 108.93 52.8702C109.797 53.1402 110.172 52.611 109.571 51.8442C99.7318 45.0546 84.5578 46.617 81.8434 60.4914V60.4878Z" fill="#88C051" style="fill:#88C051;fill:color(display-p3 0.5333 0.7529 0.3176);fill-opacity:1;"/>
<path d="M74.4707 72.1122L66.4103 74.193C65.6435 74.5602 63.1523 75.8814 64.3223 76.9218C71.7419 73.7502 81.0911 72.2274 88.9427 74.337C91.6679 75.0678 94.1159 76.5618 96.7727 77.4654C96.5747 76.8498 97.2155 75.6582 96.7835 75.2586C96.1355 74.6574 93.2771 73.4946 92.3159 73.1418C86.5379 71.0358 80.4179 71.1222 74.4743 72.1122H74.4707Z" fill="#50921B" style="fill:#50921B;fill:color(display-p3 0.3137 0.5725 0.1059);fill-opacity:1;"/>
<path d="M122.307 84.1686C122.768 85.425 124.291 86.0874 125.043 87.2466C125.771 88.3626 126.519 90.843 126.548 92.1786C126.577 93.5142 125.339 95.469 126.559 96.081C127.027 95.901 127.297 95.4978 127.524 95.3934L129.263 93.9534C129.889 92.2722 130.994 91.239 132.344 90.2598C133.277 90.5802 134.18 88.9998 133.626 88.2078C130.152 85.857 126.591 85.173 122.307 84.1686Z" fill="#FBA476" style="fill:#FBA476;fill:color(display-p3 0.9843 0.6431 0.4627);fill-opacity:1;"/>
<path d="M72.3863 110.985C72.3395 111.91 72.7679 111.982 73.3547 111.32C74.0927 111.615 74.7947 112.083 75.5327 112.256C77.4407 112.702 80.8571 112.447 82.5239 113.03C82.9163 113.167 83.0315 113.617 83.0567 114.005C83.4203 113.973 83.5175 113.465 84.0143 112.979C84.8963 112.115 85.9439 111.363 86.5847 110.243C82.5059 110.434 78.4775 109.592 74.4671 108.901C73.2179 108.814 73.0271 110.258 72.3827 110.985H72.3863Z" fill="#32690C" style="fill:#32690C;fill:color(display-p3 0.1961 0.4118 0.0471);fill-opacity:1;"/>
<path d="M108.926 52.863C108.055 55.7466 105.351 57.7518 102.983 59.7066C102.162 60.3834 100.97 60.3726 100.891 61.4202C102.871 61.8342 104.822 62.7018 106.709 63.4398C106.41 60.5094 110.715 54.8898 110.409 52.665C110.352 52.2366 109.869 52.0422 109.567 51.8334C109.416 52.1718 109.023 52.5354 108.926 52.8594V52.863Z" fill="#336B0D" style="fill:#336B0D;fill:color(display-p3 0.2000 0.4196 0.0510);fill-opacity:1;"/>
<path d="M86.1491 85.0146C85.8395 84.9858 84.7667 84.795 84.8603 85.3566C86.7431 86.3286 88.9499 88.7478 88.7591 91.1382C89.4899 90.9258 93.3527 90.2022 93.5363 90.033C93.7523 89.8314 93.8999 88.1754 93.9071 87.7074C92.6975 87.7002 88.5215 85.2486 86.1455 85.0146H86.1491Z" fill="#FAA378" style="fill:#FAA378;fill:color(display-p3 0.9804 0.6392 0.4706);fill-opacity:1;"/>
<path d="M93.2266 78.8442C92.287 81.789 90.1594 81.3858 87.7474 80.9178C88.1038 81.6954 89.4538 81.6234 90.1162 81.9978C90.4726 82.1994 90.6094 82.5774 90.6562 82.6062C91.7794 83.2362 94.6774 85.0542 95.7502 85.2486C96.3586 85.3602 96.7474 85.3926 97.1218 84.7878L95.3146 80.2086C94.7818 79.4886 93.9538 79.2258 93.223 78.8406L93.2266 78.8442Z" fill="#34680D" style="fill:#34680D;fill:color(display-p3 0.2039 0.4078 0.0510);fill-opacity:1;"/>
<path d="M97.7194 73.3686C97.9894 73.4874 98.2774 73.8762 98.659 73.9086C99.5554 73.9806 103.796 67.965 104.469 66.8598C104.628 65.913 104.063 66.0138 103.501 66.3558C102.875 66.7374 102.086 68.0082 101.413 68.5806C100.682 69.1998 97.3702 71.3706 97.3738 72.1698C97.3738 72.6774 98.3458 73.1886 97.7194 73.3686Z" fill="#32670C" style="fill:#32670C;fill:color(display-p3 0.1961 0.4039 0.0471);fill-opacity:1;"/>
<path d="M74.7695 66.9966L96.0635 63.8322C89.4323 63.3642 80.8535 64.1094 74.7695 66.9966Z" fill="#90CA57" style="fill:#90CA57;fill:color(display-p3 0.5647 0.7922 0.3412);fill-opacity:1;"/>
<path d="M72.3862 110.985C70.3486 113.278 67.9186 115.856 68.0698 119.373C68.1166 120.485 68.7394 120.086 68.8798 120.205L70.633 115.762C71.2666 113.937 73.2322 113.437 73.3618 111.323C73.0414 111.194 72.7462 111.007 72.3934 110.989L72.3862 110.985Z" fill="#7CB843" style="fill:#7CB843;fill:color(display-p3 0.4863 0.7216 0.2627);fill-opacity:1;"/>
<path d="M133.626 88.2078C133.115 88.8342 132.791 89.5758 132.344 90.2598C131.243 91.0086 128.64 93.1938 129.781 94.3638C130.638 93.8202 135.408 90.0798 135.555 89.3706C135.771 88.3338 133.856 88.3626 133.626 88.2078Z" fill="#D80403" style="fill:#D80403;fill:color(display-p3 0.8471 0.0157 0.0118);fill-opacity:1;"/>
<path d="M132.344 90.2562L130.404 91.077L127.527 95.3934C128.287 95.0442 129.021 94.8426 129.781 94.3602C130.008 92.841 131.484 91.5702 132.344 90.2562Z" fill="#FBEDE7" style="fill:#FBEDE7;fill:color(display-p3 0.9843 0.9294 0.9059);fill-opacity:1;"/>
<path d="M112.857 64.779C113.07 65.4846 113.808 64.7538 114.143 64.599C116.789 63.3858 119.697 62.1438 122.527 61.6686C122.808 61.5714 122.804 61.4562 122.527 61.3266C118.718 62.0718 116.313 62.835 112.857 64.779Z" fill="#A8E16A" style="fill:#A8E16A;fill:color(display-p3 0.6588 0.8824 0.4157);fill-opacity:1;"/>
<path d="M122.527 61.3266V61.6686L131.563 60.6066C128.179 60.4158 125.767 60.6966 122.527 61.3302V61.3266Z" fill="#9CDA5D" style="fill:#9CDA5D;fill:color(display-p3 0.6118 0.8549 0.3647);fill-opacity:1;"/>
<path d="M66.4066 74.193H67.861L74.4706 72.1122C71.8606 72.5478 68.833 73.0338 66.4102 74.193H66.4066Z" fill="#96D456" style="fill:#96D456;fill:color(display-p3 0.5882 0.8314 0.3373);fill-opacity:1;"/>
<path d="M96.8123 87.009L94.8827 88.377L99.4007 88.0206C98.8715 87.9738 98.3171 88.0638 97.7879 88.0242L98.4251 86.6634C97.7555 86.3718 97.1903 86.9298 96.8123 87.009Z" fill="#630101" style="fill:#630101;fill:color(display-p3 0.3882 0.0039 0.0039);fill-opacity:1;"/>
<path d="M101.705 97.8954C99.9478 98.151 99.5842 98.4966 98.1586 98.9358C99.1486 99.1914 99.4438 100.577 99.7822 100.973C103.44 105.279 112.181 110.132 117.519 111.359C119.175 111.741 121.055 112.047 122.754 112.115L120.241 110.517C117.426 109.718 114.751 108.605 112.083 107.389L118.214 107.363C118.455 107.489 118.7 107.601 118.959 107.669C121.325 108.303 134.364 102.773 135.62 100.552C135.757 100.315 135.854 100.048 135.941 99.7782C136.891 99.0978 139.015 98.385 138.673 96.7002C132.603 100.747 125.933 103.72 118.686 104.285C112.037 104.804 105.535 104.429 101.712 97.8882L101.705 97.8954Z" fill="black" style="fill:black;fill-opacity:1;"/>
<path d="M67.5011 101.459C67.2203 101.557 67.2239 101.672 67.5011 101.801C69.0455 101.405 70.7951 101.161 72.3395 100.757C83.6399 97.9314 94.9259 95.0406 106.201 92.0814C107.249 92.0994 112.929 91.0302 113.149 89.925C113.336 88.9854 112.227 87.729 111.349 88.3086C110.427 88.2186 109.571 88.5102 108.699 88.7622C94.9439 92.7402 81.2747 97.5354 67.5011 101.463V101.459Z" fill="#FCFBFB" style="fill:#FCFBFB;fill:color(display-p3 0.9882 0.9843 0.9843);fill-opacity:1;"/>
<path d="M63.2495 89.889V90.231L63.7967 90.5658C66.9611 89.7054 70.1147 89.1258 73.2539 88.8234C73.9343 88.7082 75.7091 87.8838 76.1591 88.9818C76.5659 89.979 74.9387 90.3354 74.2331 90.5226C74.4203 91.6206 73.7111 91.0986 73.1099 91.1994C62.7707 92.8914 52.0715 96.0882 41.9807 97.4886L77.7539 90.8142C78.0167 88.7154 77.8619 87.3942 75.6335 87.1242C71.5799 88.3698 67.3535 88.9098 63.2531 89.8926L63.2495 89.889Z" fill="#FCAC13" style="fill:#FCAC13;fill:color(display-p3 0.9882 0.6745 0.0745);fill-opacity:1;"/>
<path d="M106.201 92.4234C94.8106 94.7526 83.5211 97.8414 72.3395 101.099C71.8319 101.236 70.5467 101.132 70.4062 101.787C81.6814 99.4362 92.809 96.1602 103.998 93.345C105.909 92.8662 112.231 91.905 113.293 91.0266L112.807 90.429C110.604 91.1958 108.401 91.8618 106.197 92.4234H106.201Z" fill="#FBC823" style="fill:#FBC823;fill:color(display-p3 0.9843 0.7843 0.1373);fill-opacity:1;"/>
<path d="M72.3395 100.757V101.099C83.5895 98.0754 94.7999 94.8102 106.201 92.4234C106.482 92.3262 106.478 92.211 106.201 92.0814C94.8647 94.8858 83.6327 97.8018 72.3395 100.757Z" fill="#F93615" style="fill:#F93615;fill:color(display-p3 0.9765 0.2118 0.0824);fill-opacity:1;"/>
<path d="M67.7998 96.0054L68.4514 97.3662C70.4566 96.7794 73.2322 96.4734 75.133 95.3718C75.511 95.1522 75.6766 95.3754 75.5398 94.6086C72.8326 94.2018 70.3738 95.4942 67.7998 96.0054Z" fill="#FD986D" style="fill:#FD986D;fill:color(display-p3 0.9922 0.5961 0.4275);fill-opacity:1;"/>
<path d="M113.297 91.0266C115.273 89.3958 111.072 85.2306 109.733 87.9702C110.467 87.819 110.751 87.999 111.349 88.3086C111.864 88.575 112.249 89.0682 112.638 89.4966C112.652 90.717 107.285 91.815 106.201 92.0814V92.4234L113.3 91.0266H113.297Z" fill="#FC8A0D" style="fill:#FC8A0D;fill:color(display-p3 0.9882 0.5412 0.0510);fill-opacity:1;"/>
<path d="M67.5011 101.459C63.1343 102.705 58.6415 103.522 54.2747 104.757C54.2819 105.121 55.3151 104.89 55.6463 104.833C59.1779 104.242 62.9399 102.773 66.5615 102.327C66.9215 102.356 67.3211 101.845 67.5011 101.798V101.456V101.459Z" fill="#FC720D" style="fill:#FC720D;fill:color(display-p3 0.9882 0.4471 0.0510);fill-opacity:1;"/>
<path d="M63.2531 90.231C61.9067 90.5478 59.8403 91.329 58.4039 91.7898C57.8999 91.9518 57.3635 91.8222 57.4535 92.6466C62.7383 91.4442 67.7459 89.7702 73.2575 88.8234C72.9479 88.179 72.1631 88.6146 71.6951 88.7082C68.9915 89.2374 65.8343 89.6262 63.2567 90.231H63.2531Z" fill="#F9431A" style="fill:#F9431A;fill:color(display-p3 0.9765 0.2627 0.1020);fill-opacity:1;"/>
<path d="M135.937 99.7854C130.404 103.749 124.799 106.021 118.214 107.367L117.894 107.878C118.085 108.253 118.776 108.487 119.168 108.573C124.738 109.837 133.9 105.063 137.226 100.286L135.934 99.7854H135.937Z" fill="#31690B" style="fill:#31690B;fill:color(display-p3 0.1922 0.4118 0.0431);fill-opacity:1;"/>
<path d="M154.837 137.881C154.992 136.415 155.255 135.127 155.139 133.615C155.111 133.222 155.035 132.088 154.491 132.088C153.613 135.872 151.5 140.203 147.504 140.894C146.535 141.063 145.581 140.858 144.699 141.013C143.828 141.164 143.025 141.995 141.942 141.693C141.87 142.193 142.503 142.143 142.845 142.262C143.781 142.597 144.843 142.877 145.819 143.036C147.824 143.36 150.139 143.018 151.856 141.718C152.756 141.038 154.603 137.924 154.833 137.881H154.837Z" fill="#000100" style="fill:#000100;fill:color(display-p3 0.0000 0.0039 0.0000);fill-opacity:1;"/>
<defs>
<linearGradient id="paint0_linear_509_8431" x1="200" y1="100" x2="-4.76989e-06" y2="99.9999" gradientUnits="userSpaceOnUse">
<stop stop-opacity="0.4" style="stop-color:black;stop-opacity:0.4;"/>
<stop offset="0.1" stop-opacity="0" style="stop-color:none;stop-opacity:0;"/>
<stop offset="0.9" stop-opacity="0" style="stop-color:none;stop-opacity:0;"/>
<stop offset="1" stop-opacity="0.4" style="stop-color:black;stop-opacity:0.4;"/>
</linearGradient>
</defs>
</svg>
