<svg width="200" height="200" viewBox="0 0 200 200" fill="none" xmlns="http://www.w3.org/2000/svg">
<rect width="200" height="200" fill="white" style="fill:white;fill-opacity:1;"/>
<rect width="200" height="200" fill="url(#paint0_linear_509_8309)" style=""/>
<path d="M148.161 120.788C149.558 119.816 150.444 119.197 151.012 118.65C158.097 111.842 163.648 97.417 160.293 87.5962C159.994 86.7214 159.462 85.7674 158.846 84.6622C158.731 84.4534 158.583 84.1942 158.443 83.9314C158.598 83.521 158.731 83.035 158.785 82.4842C158.875 81.5842 158.835 80.821 158.799 80.2054C158.76 79.5178 158.738 79.1038 158.871 78.499C159.231 76.8682 159.58 75.5542 159.919 74.287C160.945 70.435 161.755 67.393 161.308 60.9238C160.635 51.1462 156.178 42.211 148.759 35.767C141.861 29.7766 132.75 26.3386 123.764 26.3386C114.778 26.3386 106.236 29.7586 99.7196 36.0154C99.0176 35.9794 98.2904 35.9614 97.5416 35.9614C91.4684 35.9614 82.976 37.1494 77.3456 40.4902C73.022 43.0534 64.7312 54.5014 63.3884 59.005C61.0448 66.8602 63.1724 71.6734 64.8824 75.5434C65.9912 78.0562 66.8696 80.0398 66.7076 82.909C66.6536 83.8486 66.4628 84.997 66.236 86.1382C64.2992 86.3614 62.456 87.0706 60.9584 88.1686C59.0072 88.4242 57.1712 88.8778 55.3784 89.3242C53.9456 89.6806 52.592 90.0154 51.2888 90.217C50.3024 90.3718 49.4096 90.8614 48.7544 91.585C47.1632 92.1898 45.716 92.5534 44.2868 92.7154C42.2744 92.9386 40.712 94.5226 40.4744 96.4882C40.3052 96.6934 40.1216 96.9526 39.956 97.2694C39.1532 98.0326 38.8004 98.9146 38.6528 99.6346C38.5016 100.383 38.3396 102.309 40.118 104.052C40.9316 104.847 42.0188 105.287 43.1384 105.287C43.3076 105.287 43.4768 105.276 43.646 105.258L45.428 105.045C45.4964 105.042 45.5612 105.038 45.6296 105.031C46.2704 105.553 47.066 105.895 47.9336 105.978C48.5168 106.035 49.1252 106.064 49.7408 106.064C51.4976 106.064 53.1068 105.837 54.6584 105.618C55.13 105.553 55.5764 105.488 56.0228 105.431C56.4476 105.567 56.8976 105.639 57.3512 105.639C57.7544 105.639 58.1612 105.582 58.5644 105.467C60.6812 104.847 62.3372 104.433 63.9356 104.12C64.6556 103.98 65.354 103.753 65.9156 103.569C66.002 103.541 66.1028 103.508 66.1928 103.479C66.2972 105.841 66.8552 107.976 67.3736 109.959C67.6832 111.147 67.9784 112.271 68.1548 113.376C68.5364 115.759 68.5904 118.225 68.648 120.835C68.7524 125.681 68.864 130.688 71.0564 135.861C71.8412 137.715 72.6872 139.587 73.5008 141.395C74.0912 142.701 74.6996 144.055 75.272 145.369C76.82 148.919 78.8684 151.32 81.374 153.228C80.5568 154.833 80.0348 156.486 79.718 157.735C79.1024 160.161 77.9792 166.177 80.8808 169.572C82.094 170.99 83.7356 171.771 85.5032 171.771C87.818 171.771 89.5604 170.483 90.8348 169.543C91.0508 169.385 91.3496 169.165 91.5476 169.032C91.8104 169.165 92.2784 169.489 92.6348 169.737C93.434 170.292 94.4276 170.979 95.6876 171.527C98.9636 172.941 102.686 173.661 106.747 173.661C114.267 173.661 121.748 171.231 127.288 168.837C127.512 169.046 127.731 169.255 127.922 169.431C130.057 171.451 132.073 173.363 134.715 173.463C134.787 173.463 134.859 173.467 134.935 173.467C137.638 173.467 140.205 171.728 143.517 167.649C145.35 165.392 147.103 162.768 148.046 161.209C149.889 158.16 155.786 147.644 154.242 140.329C153.9 138.698 152.24 135.289 151.74 134.281C149.418 129.608 148.392 128.687 147.459 128.089C147.301 127.988 147.142 127.895 146.984 127.812C147.128 126.199 147.506 122.891 147.776 121.065C147.913 120.968 148.05 120.875 148.168 120.792L148.161 120.788Z" fill="white" style="fill:white;fill-opacity:1;"/>
<path d="M69.9403 89.4502C70.6603 89.875 71.3695 89.8354 72.0715 89.3386L72.8203 89.8102C73.7527 89.785 73.5907 90.5338 72.3379 92.053L71.7403 92.6866C71.8267 93.0862 71.3803 93.0646 71.0203 93.0466L70.5235 93.5866C66.2791 94.231 62.0707 95.041 57.8947 96.013L58.0675 96.283L58.4275 97.003L65.0119 96.6286C66.0487 97.0534 66.9199 98.7922 65.6203 99.1594C65.1019 99.2386 63.9715 99.7102 63.1003 99.8794C59.8855 99.9694 56.8867 99.9694 54.1075 99.8794C51.4759 100.052 48.8299 100.509 46.1911 100.599C42.5407 101.255 43.3363 99.4078 46.3819 98.8534L46.5511 98.0794C47.7427 97.7806 48.9667 97.6798 50.1475 97.3594L50.3995 96.6106C52.3183 96.6898 53.5315 96.2254 54.0391 95.221C56.8003 93.9034 59.5615 92.629 62.7403 92.323C64.1803 90.7606 66.7723 90.055 68.8567 90.523C69.1015 90.4438 69.5875 90.6418 69.9043 90.4978C70.0483 90.1666 69.8683 89.7418 69.9331 89.443L69.9403 89.4502Z" fill="#D00301" style="fill:#D00301;fill:color(display-p3 0.8157 0.0118 0.0039);fill-opacity:1;"/>
<path d="M62.7439 92.3302C61.5451 92.6974 58.3734 93.3814 57.6282 93.7774C57.2034 94.0042 56.8938 94.825 56.1126 95.239C55.5906 95.5162 54.6762 95.4982 54.525 95.6458C54.3558 95.8114 54.6295 96.4306 54.2371 96.661C53.8663 96.877 50.8386 97.3162 50.151 97.3666C49.5102 97.4134 47.9191 97.3018 46.7491 97.381C46.3351 97.4098 44.7546 97.6402 44.7582 97.0102C47.3754 96.7186 49.7658 95.9266 52.1382 94.8502L51.951 94.4866C55.5402 93.925 59.0827 92.5858 62.7439 92.3302Z" fill="#8E0302" style="fill:#8E0302;fill:color(display-p3 0.5569 0.0118 0.0078);fill-opacity:1;"/>
<path d="M63.1039 99.883C61.1527 100.265 59.2555 100.765 57.3475 101.323C56.9803 100.614 56.0947 101.071 55.5511 101.139C53.1427 101.438 50.8135 101.924 48.3547 101.679C48.2647 101.147 49.0279 101.229 49.4275 101.143C51.0799 100.772 52.8043 100.502 54.4747 100.239C54.4243 100.081 54.1147 99.9442 54.1111 99.8866C54.0967 99.7138 54.1147 99.6058 54.2947 99.5338C55.9579 99.2494 57.6535 99.0154 59.3527 99.1414C60.3715 99.217 60.7495 99.7138 61.1851 99.7786C61.7431 99.865 62.6971 99.1126 63.1039 99.8866V99.883Z" fill="#8F0302" style="fill:#8F0302;fill:color(display-p3 0.5608 0.0118 0.0078);fill-opacity:1;"/>
<path d="M46.5546 98.083L47.9946 99.1594L44.0382 100.243C44.0886 100.887 45.7194 100.614 46.1946 100.599L43.1382 100.959C42.357 100.193 43.5666 100.247 43.8294 99.8866C43.9446 99.7282 43.7142 99.3178 43.797 99.2386C44.841 98.227 45.4314 98.3602 46.5582 98.0794L46.5546 98.083Z" fill="#6C0504" style="fill:#6C0504;fill:color(display-p3 0.4235 0.0196 0.0157);fill-opacity:1;"/>
<path d="M69.9402 89.4502C70.3686 87.5026 70.905 85.1266 71.0166 83.1538C71.5314 74.0062 64.227 71.2918 67.5246 60.2434C68.6046 56.6218 76.3158 46.1242 79.545 44.209C85.0782 40.9294 95.1042 39.7846 101.386 40.4794C120.247 20.1106 155.095 33.5746 156.999 61.2226C157.532 68.9554 156.135 70.849 154.652 77.5702C154.223 79.5178 154.63 80.6158 154.486 82.0486C154.418 82.7182 153.795 83.2798 153.755 83.9062C153.709 84.6802 155.793 87.7906 156.203 88.9894C158.972 97.0894 154.007 109.776 148.017 115.532C147.333 116.191 144.032 118.308 143.873 118.585C143.506 119.24 142.703 126.771 142.613 128.114C142.581 128.629 142.498 131.063 142.613 131.167C142.707 131.257 144.129 131.088 145.119 131.721C146.221 132.427 149.709 139.793 150.008 141.218C151.052 146.175 146.919 154.715 144.341 158.973C142.937 161.299 137.645 169.248 134.873 169.143C132.951 169.071 129.196 163.959 127.684 163.913C118.904 168.049 106.75 171.599 97.3974 167.556C94.7046 166.393 93.279 163.916 90.1866 164.895C88.3254 165.486 85.9674 168.873 84.1602 166.76C81.957 164.183 84.2538 153.613 87.9258 152.205C83.793 150.056 81.1254 147.986 79.2282 143.637C77.853 140.484 76.359 137.312 75.027 134.169C72.0498 127.142 73.569 119.863 72.4134 112.685C71.679 108.127 69.5082 104.153 71.0166 99.1558C71.3586 98.0578 73.6482 97.4998 73.893 98.7958L74.4582 99.8542C74.397 105.222 75.6174 110.413 78.123 115.428C77.3166 118.556 75.603 113.653 75.693 113.365C76.4454 114.823 77.0934 118.419 75.693 119.478C76.4562 119.705 76.5786 120.605 76.053 122.174C76.3662 122.261 76.3554 122.383 76.053 122.534C76.9782 126.426 78.0114 130.458 79.8078 134.241L79.653 134.76C79.9554 135.059 80.157 135.404 80.3046 135.8C81.3378 138.543 82.551 141.564 84.1782 144.246C86.5794 147.522 90.9426 148.962 94.7622 149.502C95.3814 148.569 97.4298 148.645 97.779 149.624C100.018 149.559 102.254 149.279 104.479 148.782L104.525 147.983C106.894 146.773 109.072 145.077 110.789 143.047L111.679 143.029L112.834 141.459C112.993 140.297 113.867 137.334 115.279 137.273C116.171 134.99 116.891 132.661 117.435 130.292L118.155 129.72C118.043 127.787 117.68 125.997 116.859 124.403C117.701 121.454 120.974 125.954 119.235 127.203C119.271 128.204 119.465 129.021 119.811 129.651C118.544 133.086 117.748 136.52 117.417 139.951C120.409 137.55 123.623 135.379 127.061 133.439C132.929 128.957 136.277 121.789 136.817 114.499L137.584 113.541C136.99 112.119 137.177 108.987 139.111 110.474L140.655 115.237C148.917 111.687 155.768 98.6662 152.409 89.8822L152.697 89.083C148.813 87.0742 147.221 88.2946 144.709 91.3978L141.447 96.4054L140.464 96.6322C139.895 96.9922 139.607 96.8482 139.377 96.265C138.862 97.1758 136.425 98.7994 135.511 98.1694C134.909 97.7554 134.333 91.2106 135.424 90.5194C135.518 90.199 135.64 90.2062 135.784 90.5194C135.971 89.3746 137.264 89.3026 137.944 90.1594C138.783 90.7786 139.143 90.7822 139.021 90.1738L139.741 89.803C141.58 86.329 145.778 84.5506 149.785 83.9458C149.781 83.413 149.914 83.1214 150.537 82.9702L150.335 81.4978C151.012 75.5902 151.801 69.8446 152.697 64.2682C151.851 53.0578 147.049 42.3658 135.979 38.0674L135.071 36.9334C134.193 36.6418 133.412 36.6346 132.731 36.9082C123.22 34.2802 113.543 35.7022 105.569 41.6098C106.041 42.0526 106.732 42.4306 107.643 42.7366C108.917 43.0894 111.862 45.8542 109.724 46.0882C109.407 46.1242 104.137 44.7886 103.546 44.569C103.168 44.4286 102.916 44.0794 102.689 43.7662C97.8186 44.1514 92.8974 44.6446 88.0734 45.5554C85.719 46.063 83.7714 46.693 82.1838 48.4426C82.0938 48.7594 81.975 48.7522 81.8238 48.4426C81.237 48.6622 80.6934 48.9862 80.193 49.4146C82.4502 51.6646 84.171 54.5734 85.0602 57.4318L85.6002 57.5254C86.9466 60.1966 88.7934 62.2306 91.3494 63.793C89.7078 60.5674 88.329 57.2482 87.2166 53.8354C86.1258 53.6914 86.007 53.0686 86.8566 52.3954L88.1022 52.9462C91.5438 58.105 95.7918 62.5942 101.131 65.5606C100.162 64.1314 95.169 55.5706 95.871 54.6958C97.1958 53.047 99.2298 55.6714 98.7294 57.0682L99.3126 56.9998C102.661 60.4846 106.469 63.2062 110.739 65.161L110.959 65.701C112.597 65.4238 112.809 64.9306 111.592 64.225C110.897 63.3466 105.227 55.8658 105.415 55.3618C105.663 54.6922 105.893 54.5158 106.675 54.5626L112.438 58.5982C112.294 59.113 112.521 59.563 113.115 59.9518L113.605 59.7934C115.329 61.6222 127.511 65.8594 127.475 65.107L122.644 59.2498C122.702 58.321 123.008 58.123 123.875 58.1806C127.324 58.411 135.403 64.9846 137.671 67.7062C138.65 68.8834 143.017 75.4426 139.352 74.7154C139.312 73.4806 134.063 70.4062 133.693 70.9678C133.012 71.9938 136.043 80.8678 137.545 82.099L137.573 83.3266C136.605 84.4354 135.143 84.5866 133.977 83.6866C132.8 83.413 131.417 80.9902 130.852 79.795C129.383 76.6882 128.793 73.7218 128.858 70.2694C126.449 70.2478 123.893 69.4954 121.571 68.6674C122.77 70.1038 123.123 71.3602 122.623 72.4294C121.924 73.0306 109.36 70.309 107.881 68.8654C108.475 70.1002 109.18 71.209 110.242 72.109C113.201 74.6506 110.03 74.5354 107.701 74.0458C104.061 73.2826 100.814 71.5942 97.6278 69.8194C100.85 74.8522 93.2718 71.4034 91.2882 69.8806C88.1166 67.4506 84.3978 63.2638 81.9858 60.0382L81.8058 58.8754C81.3414 58.8754 81.0102 59.113 80.8482 59.5702C78.4002 66.4894 76.7226 73.2106 75.5958 80.3746C76.1646 80.4286 76.5894 80.497 76.7694 81.1738L77.5074 80.5114C80.553 81.0082 83.4618 82.0846 86.2266 83.7442C88.5774 85.1158 89.9058 84.1222 90.2082 80.7598L91.1586 80.4538C91.191 82.8622 91.3674 85.2418 91.6842 87.589C92.8506 87.805 92.919 90.9298 92.7318 92.1358C90.4386 97.4314 88.257 102.799 86.187 108.231C86.0394 109.502 85.6578 110.55 85.0458 111.385C85.953 111.594 86.6874 112.101 87.2058 112.825C87.8178 112.425 88.4838 112.296 89.2074 112.433C90.1038 111.957 90.7554 111.968 91.1622 112.465C93.4986 111.752 95.9898 111.612 98.6394 112.044C98.9922 112.361 99.4746 109.887 99.4098 109.646C95.2842 104.397 102.128 104.966 103.15 109.355L106.851 113.012C109.555 116.393 105.58 115.597 103.445 114.431C102.725 114.895 102.11 115.079 101.595 114.981C100.267 116.72 97.4658 117.653 96.1986 115.701C95.1078 116.058 93.8982 116.353 92.5698 116.583C92.523 117.721 92.5446 118.83 92.631 119.906L91.8786 120.378C92.8542 122.711 88.9878 124.043 90.0786 121.458L89.5566 120.756C90.237 119.237 90.1794 118.257 89.391 117.811L84.9306 116.619L84.6822 115.701C83.2458 116.76 81.6906 113.311 81.4314 112.029C81.1542 110.658 81.1686 107.612 82.5222 107.069C83.0154 104.279 84.135 100.787 85.7586 98.4358C85.2546 97.723 85.467 96.9202 86.403 96.0274C92.1594 89.7454 88.2498 88.3018 81.5718 88.1434L81.0858 87.2902C80.1426 88.1614 77.6262 86.5558 77.4894 85.4902C74.4582 83.8234 73.2594 86.1238 73.7922 88.9894L73.1694 89.443C73.5654 89.9434 73.3566 90.1414 72.8094 89.803C71.4126 90.307 70.4226 91.3006 69.933 89.443L69.9402 89.4502Z" fill="black" style="fill:black;fill-opacity:1;"/>
<path d="M85.7695 98.443C84.9487 100.905 79.0447 100.902 76.9351 100.304L76.4131 99.523C75.6715 100.47 74.0659 99.9262 73.8931 98.803C72.7195 98.6806 71.8843 99.1486 71.0167 99.163C69.4291 99.1882 67.3915 98.8966 65.6203 99.163C65.6203 95.3074 60.9367 97.7914 58.4239 97.0066C58.4095 96.7906 58.4059 96.6214 58.4311 96.6142C62.3371 95.8798 66.9343 95.095 70.8691 94.6666L71.3731 95.2066C71.4055 95.3614 71.4163 95.4946 71.3623 95.5342C69.9835 96.5854 69.5983 95.6134 72.0067 95.3074C72.0823 95.2966 72.1759 95.4118 72.2731 95.563C73.4359 94.8538 77.0935 94.3174 78.0295 95.563C77.8675 95.113 78.2851 94.753 79.2895 94.483C79.5127 93.367 82.8571 94.051 82.8859 95.203C83.6887 95.3902 84.1603 94.7638 84.3043 93.3202C88.8835 93.3454 86.3347 92.2078 83.6203 91.6858C83.6563 91.3042 83.5591 91.0198 83.2459 90.8902C82.5079 91.1962 80.6539 91.8802 80.0095 91.2502C79.6567 91.0738 79.6027 90.847 79.9051 90.8182C80.3443 90.7786 73.1587 93.1726 71.7367 92.6866C71.2435 90.9838 72.3307 90.9838 72.7195 90.4258C72.8923 90.181 72.7735 89.8642 72.8167 89.8102C72.9355 89.6482 72.8851 89.5474 73.1767 89.4502C73.2631 89.1262 73.3855 89.1334 73.5367 89.4502C74.2099 89.4178 74.5339 89.1334 74.5123 88.5934C76.7587 88.7374 78.6847 88.2514 80.2867 87.139L81.0931 87.2902C83.4115 88.0138 88.6639 87.1678 89.7619 89.9758C90.9319 92.9602 86.7847 95.8942 85.7695 98.4394V98.443Z" fill="#F40201" style="fill:#F40201;fill:color(display-p3 0.9569 0.0078 0.0039);fill-opacity:1;"/>
<path d="M83.2494 90.8902C84.2574 91.243 84.6571 91.6354 83.8219 92.485C84.3799 93.4678 84.2394 95.5018 82.8894 95.2066C82.7346 95.1094 79.8691 94.6054 79.2931 94.4866C79.0518 94.825 78.7495 94.915 78.3715 94.9222C76.0243 94.969 73.6699 95.023 71.3767 95.2066L58.4239 97.0066H56.6274V96.6502C57.2142 96.8698 57.7615 96.3406 58.0639 96.2866C62.4307 94.8286 66.999 93.9214 71.7762 93.5578L79.6494 91.6102C79.167 91.1278 79.3938 90.9262 80.0094 91.2502C80.4846 91.045 81.2839 90.5878 81.6655 90.5338C82.4575 90.4186 82.7562 90.8002 83.2494 90.8902Z" fill="#FDF9F9" style="fill:#FDF9F9;fill:color(display-p3 0.9922 0.9765 0.9765);fill-opacity:1;"/>
<path d="M79.6531 91.6102C73.9579 93.9394 64.3567 95.1742 58.0675 96.2866C56.9119 96.445 57.2863 95.8726 57.9811 95.6638C62.6755 94.2418 66.1531 93.6154 71.0167 93.0502L79.3291 91.2178L79.6495 91.6102H79.6531Z" fill="#F40201" style="fill:#F40201;fill:color(display-p3 0.9569 0.0078 0.0039);fill-opacity:1;"/>
<path d="M71.7367 92.6902C74.4043 92.197 77.0071 91.423 79.6099 90.667C80.7187 90.3466 80.4019 90.595 80.0131 91.2502C79.8943 91.3006 79.7791 91.5598 79.6531 91.6102L71.7187 93.2662C71.4271 93.4606 71.0527 93.0466 71.0167 93.0502C71.1283 92.6902 71.4415 92.7442 71.7367 92.6902Z" fill="#FDB52A" style="fill:#FDB52A;fill:color(display-p3 0.9922 0.7098 0.1647);fill-opacity:1;"/>
<path d="M81.453 61.039L82.5366 61.345C88.5126 72.5554 100.81 75.4606 112.399 75.5218C112.165 74.2438 112.499 73.477 113.403 73.2142C114.091 72.9046 124.563 74.2294 124.253 76.6126C124.786 79.183 125.668 81.415 126.899 83.3122C128.566 83.1034 129.247 83.4706 128.937 84.4138C128.933 85.5082 127.288 85.7206 126.777 84.7738C126.597 85.6954 124.739 85.9294 124.617 84.7738L122.659 83.9386C115.444 77.6962 108.093 81.091 100.925 84.7846C98.2219 86.3398 96.8215 85.9978 96.7207 83.755C96.6019 85.2022 96.5478 86.6206 96.5514 88.0102C96.5658 89.587 97.7322 91.9558 99.1362 92.4526L99.0678 93.0466C98.9418 93.6802 98.2578 94.0762 97.0194 94.2346C99.4098 94.1662 101.293 94.7314 102.668 95.923C103.82 99.6382 105.659 102.738 109.976 102.756C108.043 100.97 106.696 99.1846 110.361 99.217C110.314 98.857 110.638 98.6374 110.941 98.443C111.671 97.9138 112.759 97.8382 114.202 98.2126C115.343 97.8418 116.294 97.7986 117.057 98.083C118.666 97.5718 120.322 97.255 122.007 97.2442C129.193 92.5606 131.234 97.687 127.486 103.753C124.221 107.277 121.845 111.198 120.365 115.507L120.657 116.065C120.891 116.385 120.891 116.864 120.657 117.505C121.125 117.519 121.424 117.653 121.543 118.074C122.201 116.069 128.044 111.633 129.56 113.307C129.761 113.531 130.942 118.743 130.01 118.945L130.51 119.168C130.262 119.917 130.096 120.803 130.01 121.821C131.09 121.692 131.036 123.787 130.01 123.978C129.898 124.277 129.779 124.273 129.65 123.978C126.46 123.053 125.564 122.97 125.729 126.786L124.973 127.218C126.579 128.06 123.947 129.619 122.813 129.374C122.288 128.741 121.809 127.902 121.373 126.858C121.136 126.984 120.941 127.07 120.895 127.02C120.2 126.264 121.564 126.321 120.999 127.571C120.794 128.021 120.434 128.053 119.933 127.938C121.672 129.691 119.066 131.145 119.422 128.499L119.217 127.218C118.951 126.3 118.763 123.971 117.421 123.985C118 125.886 118.31 127.729 118.141 129.738C117.413 129.738 116.967 129.021 116.798 127.596C117.017 129.273 116.747 130.35 115.981 130.818C114.958 132.233 113.36 129.954 114.901 129.378C114.433 127.592 114.206 125.616 114.22 123.445L113.461 122.185C112.823 122.498 112.024 122.117 111.067 121.044C110.203 121.85 109.328 121.31 108.64 120.551C108.316 119.046 102.765 116.889 102.484 117.239C100.371 122.358 97.9662 116.81 101.588 114.992C103.618 112.101 104.666 115.089 107.341 114.816C106.16 112.911 103.431 111.09 102.293 109.43C101.865 108.807 102.013 107.947 101.433 107.414C100.742 106.781 99.291 106.946 98.5242 106.367C98.445 107.63 100.065 108.408 100.144 109.808C100.177 110.381 99.4962 112.047 99.0714 112.314C98.5458 112.645 92.577 111.623 91.155 112.476L90.8886 111.763C95.1943 110.175 88.0914 111.594 87.9834 111.903C88.4478 112.883 88.1203 112.965 87.2023 112.836C86.1475 112.584 85.2547 112.836 85.0423 111.396C85.1251 110.485 85.3014 109.952 86.2482 109.884C87.3462 104.005 89.6394 98.5402 93.1278 93.4858C94.2474 92.0386 94.1322 91.0882 92.775 90.6346C92.847 89.0722 92.505 88.165 91.7562 87.913C91.3818 85.447 91.1839 82.9666 91.1623 80.4646C89.6071 83.215 90.9426 86.203 86.4714 84.6118C82.6194 83.2402 81.8742 81.5086 76.7694 81.1846C76.6434 80.8786 76.5282 80.569 76.4598 80.2522C76.3914 79.9354 76.3338 79.6366 76.3842 79.3558C77.2266 74.4238 78.0906 69.4882 79.2894 64.6606C79.5486 63.613 80.4054 61.165 81.4458 61.0426L81.453 61.039Z" fill="#FEC999" style="fill:#FEC999;fill:color(display-p3 0.9961 0.7882 0.6000);fill-opacity:1;"/>
<path d="M105.555 41.617C111.146 37.549 117.5 36.1666 124.455 35.8462C128.023 36.3394 131.558 36.7066 135.057 36.9406C147.142 41.4586 152.837 51.6034 152.686 64.2754C153.053 65.1538 152.128 65.3806 151.617 64.3546C150.897 54.6454 145.436 44.101 134.902 42.751C139.208 45.2314 142.93 50.023 144.039 54.8758C145.497 61.2658 142.088 58.5442 139.391 55.3078C137.444 53.5114 135.241 51.7114 132.559 51.2434C134.852 53.9506 137.498 57.2482 137.851 60.9022C138.423 66.8566 135.943 65.3158 133.304 61.939C129.142 59.1058 124.365 57.0394 119.649 55.261L124.239 62.7346C124.246 63.7174 124.203 64.0666 123.163 64.063C120.797 64.0558 115.61 61.093 113.331 59.6134L113.111 59.9626L105.919 54.9262L110.444 61.7302C111.754 63.2494 112.777 64.837 114.548 65.899C113.597 66.1042 111.895 65.9098 110.951 65.719C109.331 64.4302 107.794 62.9686 106.34 61.3342L102.419 59.5846C101.249 58.447 100.015 57.6154 98.7151 57.0862C98.0095 56.3014 97.5379 55.2862 96.7351 54.5698C96.4651 54.5122 96.5047 54.919 96.5623 55.099C97.8331 59.1058 100.605 63.5446 103.031 66.9754C103.089 67.2418 102.661 67.2166 102.499 67.1482C101.375 66.6766 98.0527 64.513 96.9403 63.7102C92.7967 60.7222 89.7223 56.557 86.8423 52.4062C84.8875 52.633 85.5643 49.105 87.5803 50.3362C89.6467 53.2342 89.6251 52.4206 87.5155 47.899C88.8187 44.785 99.4675 43.885 102.675 43.777C105.382 43.9678 107.704 44.6914 110.231 45.5734C108.799 44.1226 106.783 42.9274 104.835 42.337C104.641 42.085 105.422 41.7718 105.555 41.6206V41.617Z" fill="#B9B7AF" style="fill:#B9B7AF;fill:color(display-p3 0.7255 0.7176 0.6863);fill-opacity:1;"/>
<path d="M113.111 59.959C112.859 59.6386 112.539 59.2498 112.391 58.8826C112.773 58.5946 116.996 61.0714 117.907 61.4602C119.843 62.2882 121.895 62.9218 123.904 63.5518L118.151 54.3826C118.097 54.1054 118.483 54.163 118.681 54.2098C121.881 55.0162 131.263 59.3326 133.79 61.4026L136.85 64.6282C138.466 58.8646 134.211 54.217 130.737 50.2498C136.119 50.2894 140.104 54.9082 143.51 58.5154C144.1 56.1502 142.711 52.8382 141.595 50.7214C139.622 46.9918 136.198 43.7014 132.181 42.3298C132.278 41.6782 134.045 41.9374 134.51 41.9806C145.778 43.039 151.757 54.3862 152.33 64.639C152.499 64.5958 152.625 64.2826 152.683 64.2754C153.032 64.2358 153.118 64.5238 153.061 64.8226C152.585 70.9246 151.714 76.9798 150.526 82.9774C150.123 83.6182 149.288 83.7226 148.021 83.2942C147.247 83.5678 146.703 83.4598 146.39 82.9774C146.206 84.0142 141.605 83.9242 140.777 83.6974L140.273 82.9774C140.176 84.061 137.955 84.3778 137.573 83.3374C134.481 79.4782 133.185 74.9242 132.897 70.0318C135.982 70.7626 137.692 71.3314 139.629 73.9126C140.021 74.4346 140.23 74.8738 140.068 73.837C139.103 67.699 129.265 60.6466 123.713 58.8862C123.53 58.8286 123.127 58.789 123.184 59.059C125.693 61.327 127.576 64.1458 129.657 66.7882C125.823 65.629 121.834 64.6066 118.151 63.0118C116.535 62.3098 114.155 61.3054 113.108 59.959H113.111Z" fill="#747168" style="fill:#747168;fill:color(display-p3 0.4549 0.4431 0.4078);fill-opacity:1;"/>
<path d="M152.686 89.0938C155.383 92.1682 153.712 99.2602 152.276 102.889C149.99 108.656 146.116 113.959 140.27 116.425L138.29 110.316L137.574 113.549C136.983 113.905 136.519 113.667 136.177 112.832L135.417 113.189C135.669 113.93 135.55 114.287 135.057 114.269C134.553 115.046 134.218 115.932 134.056 116.918L133.261 117.145C132.847 118.193 131.144 119.211 130.024 118.945C129.888 117.566 128.955 115.77 129.25 114.143C129.124 113.707 128.822 113.556 128.397 113.523C128.142 113.502 124.862 115.403 124.444 115.705C123.415 116.45 122.245 118.106 121.744 119.301C120.985 119.942 120.729 117.854 120.672 117.505L120.934 116.339C122.5 113.757 122.414 113.667 120.672 116.065L119.955 116.421C119.678 113.124 121.482 110.813 123.156 108.253C123.973 107.004 124.048 107.047 124.999 105.823C126.849 103.44 128.883 101.345 128.498 98.0074C127.994 93.6262 124.344 97.6582 121.831 98.0146L117.072 98.0794L117.727 96.9166C122.781 94.8646 127.89 92.9674 133.045 91.2178C134.038 90.2242 134.83 89.9938 135.421 90.523L135.784 97.7158C137.66 97.1974 139.183 96.2038 139.381 94.123C140.22 94.519 139.701 95.9338 140.457 96.6394C141.498 96.2866 142.542 95.9842 143.582 95.7286L144.054 96.0958C143.431 97.4494 142.84 99.2638 143.337 100.592C143.398 99.451 145.332 101.831 145.4 102.032C145.958 103.649 144.554 105.074 143.276 105.798C142.678 106.439 142.16 107.205 142.027 108.091C146.93 105.521 148.788 103.638 146.782 98.0974C146.372 94.9798 149.821 91.8334 151.884 95.293C152.215 94.5154 152.175 92.6794 151.38 92.1142L151.61 91.2394C148.111 90.055 149.598 87.0886 152.69 89.083L152.686 89.0938Z" fill="#E0915D" style="fill:#E0915D;fill:color(display-p3 0.8784 0.5686 0.3647);fill-opacity:1;"/>
<path d="M100.519 161.022C99.5862 158.919 98.6322 157.458 99.0822 154.909C101.397 157.976 108.233 160.748 111.311 157.789L107.521 157.08L104.839 155.633C108.683 154.909 111.895 152.72 115.023 150.528C119.591 147.327 132.98 135.84 135.482 131.419C136.886 128.942 138.409 125.277 139.017 122.541L139.654 122.999C139.449 126.721 138.794 130.508 138.639 134.22C138.581 135.642 139.147 137.381 138.949 138.457C138.621 140.239 135.532 143.079 134.337 144.483L133.581 143.994L133.491 140.617C129.257 145.707 125.053 150.827 120.873 155.967L117.788 158.509C117.172 158.959 116.553 159.081 116.348 159.229C114.771 160.579 103.129 163.891 102.124 163.355C101.545 162.541 101.008 161.767 100.519 161.029V161.022Z" fill="#DF905A" style="fill:#DF905A;fill:color(display-p3 0.8745 0.5647 0.3529);fill-opacity:1;"/>
<path d="M76.0567 122.538C76.8955 122.851 77.6083 122.826 78.1987 122.462L78.9367 122.898C78.6343 125.781 79.1203 128.413 80.1319 131.282C80.1751 132.74 80.3767 133.662 80.7367 134.047C82.2451 132.927 83.0731 133.917 83.2171 137.017C84.3727 136.985 85.1251 137.834 85.4743 139.569L86.4931 140.88C86.7451 141.542 87.0115 142.061 87.6991 141.729C88.2895 138.072 93.1927 132.045 95.3527 138.065C97.5595 136.509 98.8051 137.928 99.0823 142.32C99.1435 141.452 99.5359 141.398 100.162 141.96C100.274 141.283 100.558 141.326 100.882 141.96C101.656 141.776 102.621 141.265 103.402 140.16C103.359 139.335 103.78 138.558 104.662 137.823C105.267 136.502 106.045 135.721 107.002 135.483C108.413 134.198 109.133 132.758 109.162 131.167C109.043 130.811 109.162 130.692 109.522 130.807C110.321 130.508 110.361 131.559 110.242 132.247C111.733 131.351 112.931 129.914 113.839 127.931L114.209 127.589C114.436 128.402 114.67 128.996 114.915 129.371C115.091 129.648 114.566 130.677 115.995 130.811L116.701 131.343C116.657 133.305 116.182 135.285 115.275 137.283C114.278 139.209 113.507 141.794 111.679 143.036L111.29 142.752C108.777 144.768 106.088 146.507 103.219 147.965C103.964 147.893 104.45 147.896 104.482 148.789C100.839 150.207 98.3911 149.837 94.7695 149.509C92.4079 149.383 90.2695 148.375 88.3507 146.485C84.6499 145.585 83.5627 143.241 82.7995 139.692C81.5071 138.86 80.5963 137.312 80.2471 135.642L79.6603 134.763C77.5723 131.271 75.6211 126.732 76.0639 122.534L76.0567 122.538Z" fill="#BEB9AD" style="fill:#BEB9AD;fill:color(display-p3 0.7451 0.7255 0.6784);fill-opacity:1;"/>
<path d="M81.8094 58.8826C85.2798 62.209 87.6054 66.3382 91.7094 69.3046C93.6822 70.7302 95.6802 71.0902 97.8186 72.1882C98.391 71.1622 94.5894 67.7242 95.1223 67.1554C99.3342 70.1506 104.417 73.1242 109.695 73.6246C110.08 73.6606 111.041 73.8802 110.944 73.2718C109.781 73.0342 109.072 71.8786 108.269 71.0866L105.911 66.7918C107.769 68.0266 109.576 69.1534 111.751 69.7618C114.422 70.5106 119.116 71.3962 121.917 71.8318C122.176 71.8714 122.536 71.9038 122.453 71.6518L119.581 66.7954C122.432 68.7826 125.989 69.1462 129.304 69.8374C129.815 72.3898 129.697 74.7298 130.471 77.3038C131.14 79.525 133.732 82.6714 133.966 83.701C132.631 84.673 130.467 85.3966 128.93 84.421C128.44 83.755 127.371 84.2014 126.658 83.9926C124.3 83.3014 124.761 76.5838 122.306 75.3958C121.391 74.953 113.428 73.6606 113.097 73.9882C113.014 74.4382 113.216 76.0294 113.097 76.1482C112.701 76.5514 103.208 75.5758 101.854 75.3382C96.7386 74.431 91.7382 72.271 87.7242 68.9626C84.9882 66.709 83.4294 63.8902 81.435 61.0426C80.2686 60.7474 80.5854 58.6846 81.795 58.8862L81.8094 58.8826Z" fill="#E1915C" style="fill:#E1915C;fill:color(display-p3 0.8824 0.5686 0.3608);fill-opacity:1;"/>
<path d="M117.072 163.535L123.724 159.222C129.398 155.057 137.57 147.367 140.972 141.218C142.092 139.195 142.243 137.161 143.154 135.134C144.021 135.141 146.221 141.287 146.408 142.302C147.412 147.831 140.158 159.557 136.324 163.542C136.008 163.869 135.424 164.676 134.931 164.593C134.078 164.445 131.108 160.046 129.409 159.661C123.973 158.423 121.752 163.185 117.075 163.538L117.072 163.535Z" fill="#222123" style="fill:#222123;fill:color(display-p3 0.1333 0.1294 0.1373);fill-opacity:1;"/>
<path d="M133.977 83.6974C135.658 84.475 133.977 85.7278 132.566 85.6738C132.886 86.6494 133.747 87.193 135.151 87.3046C135.806 87.7186 135.824 88.3306 135.554 89.011C136.454 89.4502 136.871 90.1882 135.777 90.5266C135.665 90.559 135.525 90.4906 135.417 90.5266C134.812 90.7282 133.743 91.7938 132.631 92.2366C127.087 94.4614 122.525 95.0662 117.068 98.0758C114.721 99.3718 113.385 98.9254 110.951 98.4358C110.613 98.7022 110.224 98.9002 109.785 98.9074C108.388 98.9362 103.579 97.111 102.675 95.9158C100.472 95.3074 98.1139 95.059 95.8387 94.8322C96.4687 93.0214 97.5343 93.3814 99.0751 93.0358C99.1507 92.7838 99.2263 92.2798 99.3019 91.5274C98.2975 90.8866 97.4659 89.3998 99.0751 89.4394C103.852 88.4998 106.243 88.0282 106.243 88.0282L106.631 87.283C106.138 86.7826 106.358 86.5666 106.991 86.923C108.629 86.977 109.983 86.5018 111.452 85.7854L113.824 86.203L114.616 85.6486C118.407 86.2426 123.811 86.7214 126.777 84.763C127.299 84.7018 128.181 84.5038 128.937 84.403C130.611 84.1798 132.303 83.8702 133.973 83.683L133.977 83.6974Z" fill="#EC0201" style="fill:#EC0201;fill:color(display-p3 0.9255 0.0078 0.0039);fill-opacity:1;"/>
<path d="M135.417 113.189C135.471 112.883 135.662 109.283 136.494 110.309C136.508 111.443 136.728 112.717 137.574 113.549C137.372 120.911 133.974 128.748 128.188 133.478C125.992 135.275 123.217 136.459 120.906 138.065C120.16 138.583 117.165 141.83 116.348 141.236C116.931 139.958 116.625 138.648 116.87 137.265C117.475 133.831 119.48 130.724 119.228 127.214C119.415 127.866 119.862 128.431 119.592 129.371H119.944C120.027 128.939 119.84 128.294 119.948 127.934C121.186 126.969 121.503 128.417 121.679 129.551C121.521 133.867 123.282 135.059 123.447 129.828C125.02 128.798 125.535 130.447 125.65 131.786C127.134 130.908 127.187 129.363 127.166 127.783C127.213 126.717 127.566 125.925 128.221 125.414C127.054 125.151 127.422 123.924 128.581 124.334L129.254 124.845C128.786 130.055 131.119 126.267 130.017 123.974V121.818L130.222 121.001C129.787 118.142 132.494 117.75 132.796 120.846L132.552 117.721L133.257 117.141C133.286 116.756 134.28 113.869 135.057 114.265C135.442 114.474 135.565 114.114 135.417 113.185V113.189Z" fill="#848175" style="fill:#848175;fill:color(display-p3 0.5176 0.5059 0.4588);fill-opacity:1;"/>
<path d="M101.599 114.989C100.749 116.198 100.263 117.433 100.522 118.941C102.023 118.092 101.282 116.09 103.132 116.504C103.395 116.562 107.359 118.229 107.711 118.409C108.165 118.639 109.731 121.296 110.545 120.677C110.635 120.608 110.537 119.96 110.764 120.021C111.603 120.245 112.809 121.577 113.468 122.181C114.663 123.441 114.865 126.638 113.828 127.934C113.245 128.978 112.593 129.889 111.869 130.667L111.416 130.569C110.62 128.636 109.749 126.681 108.795 124.698C108.547 124.579 108.547 124.46 108.795 124.338C108.493 124.061 108.136 124.179 107.715 124.698C106.743 125.328 106.117 124.107 105.771 123.265C104.756 122.909 103.741 122.477 102.725 121.965C103.111 122.873 102.995 123.463 101.959 123.261C100.994 123.78 99.7123 123.747 98.1175 123.171C96.6703 123.215 95.5543 122.887 94.7623 122.181C93.9055 122.066 93.6787 121.346 94.0819 120.029L93.6823 119.665C92.0875 120.867 91.8859 118.257 94.2655 118.027C95.2195 117.408 95.4391 117.138 95.3059 116.274C95.1799 115.471 95.5147 115.341 96.1987 115.709C98.4055 116.479 99.6187 115.791 101.595 114.989H101.599Z" fill="#BEB8AB" style="fill:#BEB8AB;fill:color(display-p3 0.7451 0.7216 0.6706);fill-opacity:1;"/>
<path d="M76.4131 102.039C77.2591 101.687 78.2742 102.111 79.4658 103.31C82.1334 102.968 83.3611 104.649 82.5295 107.076C82.4467 108.516 81.8383 109.787 82.0363 111.317C82.2343 112.847 83.2783 114.913 84.6895 115.709C85.2511 116.699 84.3474 117.451 81.9858 117.966C82.2522 119.78 81.5179 120.417 79.6531 120.385C79.6639 121.418 79.4227 122.257 78.9331 122.901L76.7767 123.978L76.0567 122.541C76.0675 122.423 76.0387 122.297 76.0567 122.181L76.4707 117.833C76.6327 116.871 77.4139 116.817 78.2311 116.817C77.6479 114.038 76.7299 111.288 75.4771 108.563C74.9407 106.745 73.6015 101.957 76.4167 102.039H76.4131Z" fill="#FDCEA2" style="fill:#FDCEA2;fill:color(display-p3 0.9922 0.8078 0.6353);fill-opacity:1;"/>
<path d="M102.679 43.777C97.7683 44.9038 92.2602 44.9326 88.0842 48.0898L91.8858 55.2826C89.679 56.1538 90.6187 53.8606 89.7439 53.0182C89.4199 52.705 88.9375 52.813 88.7791 52.6618C88.1347 52.0462 87.645 51.0886 86.6658 50.617C86.0358 51.1714 86.7378 52.0282 86.8458 52.4134C86.9754 52.867 87.051 53.461 87.2058 53.8534C87.9726 56.593 89.0959 59.2678 90.5755 61.8778C90.6079 62.4214 89.7402 62.5114 89.1426 62.3206C88.2714 62.047 85.5283 57.5902 84.8803 56.5174C84.8479 56.4634 85.7622 57.1906 85.0458 57.4498C82.7274 54.8506 81.939 51.499 78.933 49.357C79.5594 49.1302 80.1534 48.3058 80.643 48.1438C81.4242 47.8882 81.6726 48.439 81.8094 48.457C83.091 49.3282 83.2134 49.3282 82.1694 48.457C82.0794 47.5534 82.551 46.9486 83.2782 46.5058C87.3174 44.0506 97.9591 43.4494 102.679 43.7806V43.777Z" fill="#F9F8F6" style="fill:#F9F8F6;fill:color(display-p3 0.9765 0.9725 0.9647);fill-opacity:1;"/>
<path d="M150.526 82.9774C150.433 83.4418 150.728 84.259 150.188 84.6154C147.808 84.9214 144.223 86.0482 142.412 87.6322C141.253 88.6474 141.681 89.1802 139.734 89.8066C139.377 90.865 138.675 91.063 137.934 90.1666C137.203 90.3718 136.299 90.3682 135.774 90.5266C136.047 89.6374 134.841 89.7274 134.737 89.245C134.661 88.903 135.201 88.1686 135.061 88.0102C134.838 87.7618 132.35 87.9274 131.882 85.951C131.414 83.9746 134.452 85.7674 133.977 83.6902C135.19 83.5534 136.353 83.4346 137.574 83.3302C138.333 83.2654 139.885 82.9702 140.274 82.9702H146.39C146.548 82.9702 147.193 82.5922 147.819 82.567C148.752 82.531 149.616 82.8946 150.53 82.9702L150.526 82.9774Z" fill="#BA0100" style="fill:#BA0100;fill:color(display-p3 0.7294 0.0039 0.0000);fill-opacity:1;"/>
<path d="M134.337 144.48C128.685 151.111 124.624 153.509 117.788 158.505L120.657 155.798C124.297 149.545 129.819 144.739 133.797 138.723C134.506 140.606 134.154 142.554 134.334 144.476L134.337 144.48Z" fill="#FDC898" style="fill:#FDC898;fill:color(display-p3 0.9922 0.7843 0.5961);fill-opacity:1;"/>
<path d="M90.0858 121.461C89.877 124.147 88.077 122.534 88.6458 120.381L87.9798 120.165C87.3606 121.328 86.6262 121.447 85.5678 121.26C86.511 121.947 86.1006 122.372 84.3294 122.538C84.5094 123.657 83.2458 126.455 82.1694 126.854C81.4566 126.433 81.327 126.761 81.7842 127.833C81.1326 129.047 80.9022 130.281 81.0894 131.531C81.597 132.045 81.3738 132.247 80.7294 131.891C80.4666 131.905 80.2543 131.898 80.2291 131.829C78.7855 127.632 78.4794 124.68 79.6494 120.381C79.797 120.068 79.9662 119.33 80.013 119.298C80.2038 119.168 81.0174 119.712 81.0858 119.661C81.4746 119.388 81.183 117.584 81.2514 117.48C81.687 116.821 84.1387 117.087 84.6823 115.705C87.2887 117.174 91.9902 116.184 90.0786 121.458L90.0858 121.461Z" fill="#BEB9AD" style="fill:#BEB9AD;fill:color(display-p3 0.7451 0.7255 0.6784);fill-opacity:1;"/>
<path d="M135.057 36.9442H132.897L133.077 37.6678L124.459 36.5662C120.43 36.919 116.02 37.3474 112.201 38.7298C109.886 39.5686 107.946 41.4046 105.559 41.6206C112.244 34.0642 126.108 33.5998 135.061 36.9442H135.057Z" fill="#ECECEA" style="fill:#ECECEA;fill:color(display-p3 0.9255 0.9255 0.9176);fill-opacity:1;"/>
<path d="M152.686 89.0938H150.166C149.95 89.2522 151.444 91.0054 151.606 91.2502L151.034 91.8766C146.8 91.603 144.244 96.4954 144.046 100.193L143.333 100.599C143.287 100.599 143.15 100.923 142.981 100.963C142.901 99.343 142.869 97.741 143.693 96.2866C143.326 95.977 141.8 97.8958 140.457 96.643C142.808 92.8522 147.686 83.3878 152.69 89.0902L152.686 89.0938Z" fill="#FCC290" style="fill:#FCC290;fill:color(display-p3 0.9882 0.7608 0.5647);fill-opacity:1;"/>
<path d="M91.1659 80.461L91.8895 87.6538L93.3223 87.2974C93.5563 89.0506 92.4223 91.0414 94.7659 90.5338C94.7839 90.9298 94.7803 91.3258 94.6903 91.7182C94.2439 93.6406 90.2839 99.3682 89.1931 102.047C88.4947 103.757 87.8107 105.927 87.3139 107.72C87.1123 108.44 86.9431 110.561 86.8387 110.665C86.7019 110.802 85.3015 110.341 85.0531 111.392C84.9523 110.708 85.0567 109.895 85.2115 109.218C86.3995 103.962 89.2471 98.965 91.3495 94.1302C93.0523 90.217 91.5223 89.2882 91.1767 85.6738C91.0147 83.9998 91.2775 82.1602 91.1695 80.4646L91.1659 80.461Z" fill="#FBF6ED" style="fill:#FBF6ED;fill:color(display-p3 0.9843 0.9647 0.9294);fill-opacity:1;"/>
<path d="M116.348 159.225C114.742 160.392 109.238 165.846 107.874 166.065C107.47 166.13 103.741 165.662 103.402 165.515C101.941 164.87 101.106 162.35 100.519 161.025C100.886 160.176 101.181 161.889 101.61 162.267C101.916 162.537 102.456 162.825 102.859 162.807L116.348 159.225Z" fill="#FDC898" style="fill:#FDC898;fill:color(display-p3 0.9922 0.7843 0.5961);fill-opacity:1;"/>
<path d="M81.8094 58.8826C81.2658 59.5162 81.597 60.4558 81.4494 61.039C81.0894 62.4646 80.1066 64.1998 79.7466 65.629C78.4974 70.615 77.7666 76.1266 76.773 81.1774C76.0602 81.1306 75.3294 81.2134 74.613 81.1774C75.6714 77.9122 75.8334 74.4454 76.5894 71.1082C77.619 66.547 79.293 62.2306 80.733 57.8062C81.1722 57.9286 81.3666 58.4578 81.8094 58.8826Z" fill="#FBF8F3" style="fill:#FBF8F3;fill:color(display-p3 0.9843 0.9725 0.9529);fill-opacity:1;"/>
<path d="M82.5295 107.076C82.5295 107.036 82.2271 106.842 82.2199 106.547C82.2091 106.165 82.6519 105.398 82.5331 105.279C82.2127 104.963 81.3991 106.111 81.4567 104.016L79.2751 104.052L76.4131 102.043C75.1891 101.867 74.8759 99.163 76.4131 99.5266C79.5955 99.8758 82.9327 100.297 85.7659 98.4466C85.6219 98.8102 85.7155 99.7102 85.4239 100.437C84.5311 102.666 83.8075 105.027 82.5295 107.079V107.076Z" fill="#F3A575" style="fill:#F3A575;fill:color(display-p3 0.9529 0.6471 0.4588);fill-opacity:1;"/>
<path d="M76.4131 99.523C75.6823 100.283 76.5571 101.334 76.4131 102.039C76.3915 102.147 75.6319 102.907 75.4915 103.469C74.9911 105.488 77.0287 112.134 77.8747 114.348C77.9971 114.665 78.6019 114.665 78.7747 115.305C78.9871 116.087 78.9475 116.882 78.9295 117.681L77.1331 117.501C77.4643 119.06 76.2439 120.907 76.0495 122.178C76.4203 121.317 75.6895 119.964 75.6895 119.481V113.369C75.6895 113.217 74.4115 111.918 75.8695 112.829L77.3095 116.065C78.0151 113.196 75.5815 110.787 74.6923 108.253C73.6051 105.157 73.3063 102.032 73.8931 98.803C74.5519 98.8714 75.5707 99.4294 76.4131 99.523Z" fill="#FAEFE3" style="fill:#FAEFE3;fill:color(display-p3 0.9804 0.9373 0.8902);fill-opacity:1;"/>
<path d="M77.853 53.1262C79.9194 53.695 76.3698 59.7286 75.8874 61.0534C74.5806 64.6462 73.8642 68.5162 72.8094 72.1846C72.2874 72.2674 72.3126 71.551 72.2046 71.1802C71.5026 68.707 72.0858 65.665 72.813 63.1954C72.219 62.569 72.363 62.1154 72.9426 61.5826C72.3054 60.2938 72.6906 58.9582 74.0982 57.5722L77.8494 53.1262H77.853Z" fill="#ACADA9" style="fill:#ACADA9;fill:color(display-p3 0.6745 0.6784 0.6627);fill-opacity:1;"/>
<path d="M79.653 134.767C79.7142 134.871 80.2758 135.026 80.5278 135.498C80.8446 136.092 80.895 136.977 81.0966 137.643C81.525 138.003 81.3738 136.218 81.9894 137.291C82.281 137.802 82.4214 138.511 82.5366 139.091L83.6094 138.727C83.2566 140.293 84.8298 143.929 85.953 144.84C86.601 145.365 87.3354 145.074 87.9114 145.401C88.8798 145.945 92.1702 147.918 91.9362 148.753L94.7658 149.516C93.8946 149.437 92.9838 149.631 92.1054 149.477C83.2818 147.943 81.9246 142.453 79.6566 134.771L79.653 134.767Z" fill="#EAE8E3" style="fill:#EAE8E3;fill:color(display-p3 0.9176 0.9098 0.8902);fill-opacity:1;"/>
<path d="M91.8822 153.473C92.0658 156.147 93.5418 158.534 94.4022 161.022C91.6338 160.161 88.779 160.755 86.8494 162.822C87.0582 160.827 88.1958 158.109 89.1678 156.335C89.3946 155.924 91.2666 152.821 91.8786 153.473H91.8822Z" fill="#46464C" style="fill:#46464C;fill:color(display-p3 0.2745 0.2745 0.2980);fill-opacity:1;"/>
<path d="M98.7187 57.0826C99.3019 56.395 98.7799 56.2366 99.6727 56.6578C100.907 57.2446 101.714 58.3462 102.783 58.9546C104.09 59.6998 105.429 59.8042 106.757 60.7366C108.644 62.0614 109.346 64.6858 112.031 64.9954L110.955 65.7118C106.426 64.783 101.771 60.463 98.7223 57.079L98.7187 57.0826Z" fill="#8D8C85" style="fill:#8D8C85;fill:color(display-p3 0.5529 0.5490 0.5216);fill-opacity:1;"/>
<path d="M104.475 148.793C102.794 148.339 100.684 149.365 98.8915 149.505C98.4955 149.538 97.5523 149.772 97.6423 149.156C103.323 147.846 107.91 144.696 112.215 140.883C113.382 140.43 111.873 142.709 111.668 143.036C110.512 144.901 106.617 147.957 104.471 148.789L104.475 148.793Z" fill="#828177" style="fill:#828177;fill:color(display-p3 0.5098 0.5059 0.4667);fill-opacity:1;"/>
<path d="M77.853 53.1262C77.3346 55.7434 73.9326 58.0618 73.1802 60.5062C72.831 61.6402 74.8038 60.1282 74.253 61.2118C73.9326 61.8454 73.1622 62.0182 72.8166 63.1954L69.9438 66.0718C68.3238 64.7938 72.849 57.8422 73.9038 56.5498C74.4258 55.909 77.2122 52.9498 77.853 53.1262Z" fill="#F8F8F6" style="fill:#F8F8F6;fill:color(display-p3 0.9725 0.9725 0.9647);fill-opacity:1;"/>
<path d="M87.2095 53.8462C87.9907 55.801 89.3047 58.3786 90.2587 60.3262C91.1587 62.1586 92.2639 63.9694 93.3259 65.7082C90.0463 64.3222 86.1835 60.841 85.0531 57.439C84.9307 57.0754 84.4411 56.233 84.8731 56.0026C86.3995 57.4786 87.5407 59.7898 88.9015 61.3162C89.3407 61.8094 89.2003 61.8886 90.0931 61.7518C89.2435 59.6062 87.9691 57.6082 87.2491 55.4014C87.0583 54.8146 86.7091 54.4762 87.2167 53.8426L87.2095 53.8462Z" fill="#C5C3BB" style="fill:#C5C3BB;fill:color(display-p3 0.7725 0.7647 0.7333);fill-opacity:1;"/>
<path d="M77.4931 85.4974C78.9547 85.8898 79.8115 86.8978 81.0895 87.2974C79.3939 89.5798 76.0927 88.9858 73.5331 89.4538C73.6375 86.743 73.8679 83.6038 77.4895 85.4974H77.4931Z" fill="#E56547" style="fill:#E56547;fill:color(display-p3 0.8980 0.3961 0.2784);fill-opacity:1;"/>
<path d="M87.2095 112.829C89.1427 112.4 86.3887 112.803 86.8531 111.936C87.7819 110.19 95.0575 110.197 97.0339 109.959L99.0787 111.752C96.7495 111.637 94.4455 111.313 92.1271 111.828C91.5619 111.954 91.3603 112.397 91.1659 112.472C89.1643 113.286 89.4199 113.361 87.2095 112.832V112.829Z" fill="#D88B5A" style="fill:#D88B5A;fill:color(display-p3 0.8471 0.5451 0.3529);fill-opacity:1;"/>
<path d="M96.2023 115.705C96.2023 115.73 95.7811 115.655 95.8387 116.061L96.9187 116.601C95.4391 117.516 95.0107 119.255 92.9659 118.949C92.8327 119.226 93.6319 119.661 93.6823 119.665C95.3923 121.584 91.1587 123.744 91.8823 120.385C92.0191 119.539 91.6699 116.4 91.9255 116.112C92.1955 115.806 96.2167 114.83 96.1987 115.712L96.2023 115.705Z" fill="#878479" style="fill:#878479;fill:color(display-p3 0.5294 0.5176 0.4745);fill-opacity:1;"/>
<path d="M118.148 129.734C118.252 132.823 116.503 134.904 115.271 137.287C114.868 136.052 115.801 134.749 115.952 133.471C116.056 132.582 115.937 131.696 115.991 130.814C116.125 128.679 115.588 127.304 117.075 125.421L118.151 129.734H118.148Z" fill="#E69E66" style="fill:#E69E66;fill:color(display-p3 0.9020 0.6196 0.4000);fill-opacity:1;"/>
<path d="M94.7623 122.181C94.5427 123.222 91.7418 124.266 90.6762 124.359C89.6106 124.453 86.3778 123.625 86.1258 122.541C85.791 121.721 86.2194 121.353 87.411 121.433C87.5838 120.655 87.9942 120.306 88.6458 120.381C89.6214 121.31 88.5054 123.377 90.0858 121.461C90.0318 121.98 90.0355 122.311 90.6187 122.178C91.2559 121.613 91.7419 121.256 91.8823 120.381L92.2458 121.461C93.1926 121.533 93.7759 120.597 93.6823 119.661C93.7903 119.669 94.3195 119.165 94.3987 119.301L94.7623 122.181Z" fill="#F1C79A" style="fill:#F1C79A;fill:color(display-p3 0.9451 0.7804 0.6039);fill-opacity:1;"/>
<path d="M77.493 85.4974C75.747 85.0294 74.6238 85.0222 74.2602 87.1498C74.0118 88.6006 75.3474 88.9246 73.5366 89.4538C73.4142 89.4754 73.2738 89.4214 73.1766 89.4538C72.6402 86.1994 74.073 82.7902 77.493 85.4974Z" fill="#F4B181" style="fill:#F4B181;fill:color(display-p3 0.9569 0.6941 0.5059);fill-opacity:1;"/>
<path d="M139.733 89.8102L139.01 93.763C138.056 93.133 138.236 91.1962 137.933 90.1702C138.578 89.9902 139.341 89.9362 139.733 89.8102Z" fill="#EDAA73" style="fill:#EDAA73;fill:color(display-p3 0.9294 0.6667 0.4510);fill-opacity:1;"/>
<path d="M82.1695 48.4534C82.7599 48.5182 83.8975 48.3958 83.9623 48.4534C84.0595 48.5398 84.3619 50.5306 84.5023 50.9734C83.7751 50.2246 81.4927 49.7386 81.8059 48.4534C81.9211 48.4714 82.0471 48.439 82.1659 48.4534H82.1695Z" fill="#BFBCB3" style="fill:#BFBCB3;fill:color(display-p3 0.7490 0.7373 0.7020);fill-opacity:1;"/>
<path d="M83.2495 90.8902C84.8731 91.189 88.0555 91.5706 87.5659 93.763C86.8315 94.2742 84.7831 93.6514 84.6931 93.763C84.5347 93.961 84.9883 95.4442 83.7319 95.8726C82.5907 96.2614 82.9507 95.2426 82.8895 95.2066C83.9011 93.5542 83.3827 93.4462 82.8895 92.143C82.8463 92.035 84.2683 91.9846 83.2531 90.8938L83.2495 90.8902Z" fill="#FC8F2A" style="fill:#FC8F2A;fill:color(display-p3 0.9882 0.5608 0.1647);fill-opacity:1;"/>
<path d="M79.293 94.4866L80.0094 94.8502V95.203C79.3398 94.897 78.3534 95.5666 78.033 95.5666H72.2766C71.8806 95.5666 70.7322 96.2974 69.9402 95.923V95.5702C70.5954 95.7682 70.959 95.3578 71.3766 95.2066C74.0298 94.2598 76.6182 93.9502 79.293 94.4866Z" fill="#FB851F" style="fill:#FB851F;fill:color(display-p3 0.9843 0.5216 0.1216);fill-opacity:1;"/>
<path d="M124.624 84.7774L124.077 85.4866C119.987 84.2482 116.02 84.1006 112.175 85.0474L110.951 84.7774C110.638 86.1778 108.399 87.3226 106.995 86.9338C106.862 86.9986 106.75 87.2434 106.635 87.2938C106.635 87.4882 106.617 87.679 106.549 87.8482C106.275 88.5322 100.45 89.3242 99.5574 89.101C99.4926 89.083 99.4602 88.9282 99.4386 88.7338C98.5782 89.497 96.5479 89.4538 96.5623 88.0138C94.9567 86.8474 96.4902 81.8758 96.5658 80.1046C97.1022 80.0398 97.0986 81.0694 97.1742 81.469C97.401 82.6642 97.455 83.9386 97.6458 85.141C98.0958 85.6054 107.711 80.7418 109.173 80.3026C114.854 78.5926 120.632 80.6266 124.624 84.781V84.7774Z" fill="#010000" style="fill:#010000;fill:color(display-p3 0.0039 0.0000 0.0000);fill-opacity:1;"/>
<path d="M120.664 117.505C120.556 116.853 120.398 117.066 120.664 116.065C122.81 108.001 130.766 106.716 132.436 101.039C132.807 99.7714 132.947 98.3278 132.901 97.0066C133.613 97.2874 133.613 99.0334 133.631 99.685C133.858 108.041 129.124 108.516 124.073 113.181C122.662 114.485 121.525 115.777 120.664 117.505Z" fill="#020100" style="fill:#020100;fill:color(display-p3 0.0078 0.0039 0.0000);fill-opacity:1;"/>
<path d="M110.951 98.443L111.308 99.8794L108.435 100.056L112.028 103.836C109.295 103.191 106.642 103.569 104.633 101.341C103.838 100.459 102.567 98.0218 102.247 96.8734C102.027 96.0814 101.728 96.5458 102.671 95.9266C105.436 96.6898 108.122 97.8742 110.948 98.443H110.951Z" fill="#E5905D" style="fill:#E5905D;fill:color(display-p3 0.8980 0.5647 0.3647);fill-opacity:1;"/>
<path d="M124.624 84.7774C125.51 84.7774 125.553 84.9214 126.784 84.7774C126.874 85.699 126.95 85.7386 126.079 86.0338C122.731 87.175 117.244 87.0922 113.835 86.2138C111.617 86.2966 110.656 85.8178 110.959 84.7738C113.644 83.5894 115.693 83.4166 118.648 83.7406C121.168 84.0142 121.82 84.7666 124.628 84.7738L124.624 84.7774Z" fill="#EB734F" style="fill:#EB734F;fill:color(display-p3 0.9216 0.4510 0.3098);fill-opacity:1;"/>
<path d="M128.221 125.418C127.263 128.733 129.081 131.077 124.988 132.971C124.757 132.315 125.135 129.878 123.908 130.094C124.138 131.408 123.847 135.174 121.903 133.712C119.959 132.251 122.806 128.831 119.948 127.934C120.085 127.477 120.855 126.89 120.671 126.138C121.096 126.12 121.183 126.642 121.388 126.858L122.158 128.334C122.392 129.759 122.615 130.109 122.828 129.374C123.242 128.557 124.109 128.409 124.736 127.945C125.049 127.711 124.959 127.243 124.988 127.218C125.143 126.512 125.387 126.113 126.129 126.368C126.55 125.342 127.367 124.212 128.228 125.418H128.221Z" fill="#C1BCAE" style="fill:#C1BCAE;fill:color(display-p3 0.7569 0.7373 0.6824);fill-opacity:1;"/>
<path d="M129.661 123.978C129.79 124.921 129.189 125.022 128.581 124.338C128.052 124.795 128.332 125.029 128.221 125.418C126.59 125.483 127.054 127.074 126.241 127.934L126.061 126.851C125.798 127.088 125.035 127.171 124.984 127.214L125.348 122.541C126.604 123.315 129.466 122.059 129.664 123.978H129.661Z" fill="#DB9766" style="fill:#DB9766;fill:color(display-p3 0.8588 0.5922 0.4000);fill-opacity:1;"/>
<path d="M96.5622 88.0138C96.9654 88.3054 98.8086 88.6042 99.4386 88.7338C99.5646 88.9354 99.4458 89.173 99.0786 89.4538C99.0786 89.5762 98.751 89.8498 98.9202 90.1738C99.1722 90.6526 100.025 91.0198 100.112 91.4842C100.184 91.8802 99.3522 92.449 99.7878 93.043C99.5574 93.1006 99.2802 93.007 99.0786 93.0502C98.7654 92.4994 97.977 92.9602 97.6314 92.431C97.2858 91.9018 96.2526 89.9866 96.0474 89.425C95.8242 88.8094 95.3526 87.823 96.5586 88.0138H96.5622Z" fill="#E85E3F" style="fill:#E85E3F;fill:color(display-p3 0.9098 0.3686 0.2471);fill-opacity:1;"/>
<path d="M129.661 123.978C129.779 123.978 129.931 123.953 130.021 123.978C132.569 124.691 130.111 127.686 129.657 129.011C128.483 130.13 128.447 124.953 128.584 124.338C128.789 124.161 129.383 123.985 129.664 123.978H129.661Z" fill="#C8C2B5" style="fill:#C8C2B5;fill:color(display-p3 0.7843 0.7608 0.7098);fill-opacity:1;"/>
<path d="M133.257 117.145C133.174 118.243 133.973 120.288 133.257 121.818C131.673 121.753 131.723 120.162 131.817 118.941C131.335 119.669 130.424 119.233 130.384 119.301C130.154 119.694 130.805 121.368 130.021 121.821C130.021 120.896 130.107 119.834 130.021 118.945C131.349 118.607 131.839 116.987 133.257 117.145Z" fill="#C3B4A0" style="fill:#C3B4A0;fill:color(display-p3 0.7647 0.7059 0.6275);fill-opacity:1;"/>
<path d="M123.425 98.857C124.819 98.7346 125.017 101.031 123.458 101.773C120.373 103.238 121.528 99.0226 123.425 98.857Z" fill="#FDF8F5" style="fill:#FDF8F5;fill:color(display-p3 0.9922 0.9725 0.9608);fill-opacity:1;"/>
<path d="M114.908 129.374C114.89 129.345 114.436 129.471 114.292 129.288C114.019 128.939 114.393 128.067 113.828 127.938C113.99 126.062 113.835 124.032 113.468 122.185C113.547 122.257 114.04 122.207 114.361 122.538C115.466 123.693 114.67 127.718 114.908 129.378V129.374Z" fill="#7E7A6F" style="fill:#7E7A6F;fill:color(display-p3 0.4941 0.4784 0.4353);fill-opacity:1;"/>
<path d="M122.824 129.374C122.896 129.979 122.882 131.707 122.108 131.891C122.281 130.08 121.975 128.543 121.384 126.858C122.036 127.538 122.702 128.359 122.824 129.374Z" fill="#78766B" style="fill:#78766B;fill:color(display-p3 0.4706 0.4627 0.4196);fill-opacity:1;"/>
<path d="M94.7586 54.9262C94.4382 54.6094 93.801 54.9766 93.6606 54.7318C92.847 53.3062 92.3214 49.1626 91.5258 47.3734C92.5014 47.2222 92.613 47.485 93.0378 48.1942C93.6426 49.2058 95.2986 54.037 94.7586 54.9262Z" fill="#E5E1D9" style="fill:#E5E1D9;fill:color(display-p3 0.8980 0.8824 0.8510);fill-opacity:1;"/>
<path d="M144.046 72.9046C143.528 72.721 143.121 71.5078 142.909 70.993C142.03 68.8798 141.35 66.5902 141.537 64.2754C142.376 64.6786 142.534 65.9818 142.79 66.7954C143.395 68.725 143.827 70.8922 144.046 72.9046Z" fill="#050504" style="fill:#050504;fill:color(display-p3 0.0196 0.0196 0.0157);fill-opacity:1;"/>
<path d="M151.606 91.2502C151.973 91.8046 152.546 92.2006 152.675 92.8738C153.028 94.699 152.103 96.6034 152.323 98.4394C151.174 98.7238 151.711 97.1938 151.433 96.2722C150.717 93.871 149.097 93.9646 147.848 95.941C146.689 97.7734 148.557 101.071 148.363 103.281C148.183 105.294 143.125 108.649 141.173 109.229C141.181 107.691 141.595 106.626 142.613 105.456C143.319 104.642 144.359 104.642 144.701 103.206C145.043 101.769 144.395 102.252 143.92 101.643C143.679 101.334 143.719 100.581 143.33 100.599C143.146 96.4702 146.782 90.1378 151.606 91.2502Z" fill="#010100" style="fill:#010100;fill:color(display-p3 0.0039 0.0039 0.0000);fill-opacity:1;"/>
<path d="M135.417 113.189C137.142 115.655 134.312 118.949 134.694 121.818L134.326 118.391C135.086 116.99 134.823 115.547 135.057 114.265C135.133 113.851 135.367 113.469 135.417 113.185V113.189Z" fill="#BBB0A0" style="fill:#BBB0A0;fill:color(display-p3 0.7333 0.6902 0.6275);fill-opacity:1;"/>
<path d="M109.511 130.811C109.393 130.922 109.231 131.03 109.151 131.171C109.162 132.737 108.442 134.173 106.991 135.487C105.948 137.28 105.037 138.849 103.395 140.163C102.805 140.97 101.858 141.956 100.875 141.963C100.641 141.978 100.393 141.971 100.155 141.963C99.1903 141.171 99.2623 139.083 100.54 138.5C100.49 136.34 101.131 135.815 102.711 134.745C101.329 134.562 100.45 134.205 99.6151 133.14C98.6683 133.748 97.0267 134.601 97.2751 132.971C96.9835 132.323 97.3975 131.786 98.5171 131.365C94.8955 132.017 91.2739 131.873 87.6811 131.703C88.3651 132.438 88.5667 133.1 88.2787 133.691L87.5767 135.267C86.0107 135.48 85.6435 136.031 86.4787 136.927C86.8171 138.129 86.7055 139.685 86.4787 140.883C84.6463 141.377 84.3187 137.949 83.9119 137.665C83.7211 137.532 83.0479 138.18 82.6987 137.665C82.2379 136.985 82.2487 134.573 82.1191 134.447C82.0687 134.396 81.1831 134.238 80.7223 134.051C80.1319 133.611 80.0347 132.218 80.7223 131.894C80.8087 131.768 81.0499 131.639 81.0823 131.534C80.8519 130.461 81.0247 128.291 82.1623 128.298C82.5511 128.669 82.8751 129.115 82.8859 129.666C83.4871 124.313 87.2491 124.363 91.4179 126.098C92.9767 125.601 94.5103 125.043 96.0223 124.424C96.8323 124.367 107.611 127.02 108.122 127.38C108.993 127.992 110.17 129.957 109.501 130.818L109.511 130.811Z" fill="#FDC594" style="fill:#FDC594;fill:color(display-p3 0.9922 0.7725 0.5804);fill-opacity:1;"/>
<path d="M94.7623 122.181C96.3751 122.037 100.332 122.768 101.959 123.261L102.733 122.779C104.651 123.953 106.433 124.593 108.075 124.701C107.744 123.906 108.179 123.729 108.795 124.341C108.82 124.457 108.766 124.586 108.795 124.701C109.666 126.469 110.465 128.384 111.196 130.447C111.398 131.426 111.376 132.283 110.235 132.254C109.965 131.455 109.771 131.34 109.515 130.814C109.097 129.95 108.831 128.525 107.816 128.017C107.175 127.697 103.471 126.858 102.401 126.599C101.332 126.339 96.5227 125.159 95.9611 125.126C95.5291 125.101 92.8327 126.858 91.3351 126.811C89.5639 126.757 88.1167 124.759 85.3087 126.213C83.0335 127.391 84.5311 131.268 82.1695 130.631C82.1659 129.853 82.1839 129.072 82.1695 128.294C81.5395 128.208 81.5287 127.016 82.1695 126.854C82.2811 125.965 83.5735 122.747 84.3295 122.538C85.3591 122.149 85.9567 122.149 86.1295 122.538C87.7027 122.671 89.2003 123.704 90.6223 123.639C91.9399 123.578 93.2647 122.311 94.7659 122.178L94.7623 122.181Z" fill="#010101" style="fill:#010101;fill:color(display-p3 0.0039 0.0039 0.0039);fill-opacity:1;"/>
<path d="M95.4823 133.331C97.6783 133.478 101.894 137.003 99.7303 139.047C99.8059 140.48 99.5899 141.571 99.0787 142.32C98.3659 142.079 98.2399 137.967 96.8107 138.061C95.1403 138.169 96.3535 139.353 96.1951 140.667C96.1447 141.074 95.6587 142.568 95.1223 142.68C95.1223 131.005 88.9231 137.359 87.5587 144.116C86.7919 143.645 86.5651 141.755 86.4823 140.88C86.3599 139.609 86.5651 138.212 86.4823 136.923C85.6219 136.257 86.5003 135.761 87.3931 136.47C87.6955 134.522 89.1931 133.716 91.8787 134.047C92.2423 132.992 94.7443 132.366 95.4751 133.327L95.4823 133.331Z" fill="#827F74" style="fill:#827F74;fill:color(display-p3 0.5098 0.4980 0.4549);fill-opacity:1;"/>
<path d="M97.2823 132.971C97.3183 132.963 97.4839 133.32 97.9843 133.187C98.4019 133.075 100.436 131.775 100.519 131.891C100.159 133.961 101.854 133.802 103.402 134.051C103.748 135.937 102.189 135.825 101.7 136.297C101.3 136.682 101.422 138.245 101.17 138.842C100.944 139.379 100.249 139.335 100.159 139.695C99.9967 140.318 100.267 141.265 100.166 141.96C100.105 141.96 99.6187 142.5 99.0859 142.32C99.2443 141.207 98.8447 139.609 99.0859 138.605C99.1687 138.259 99.9175 138.533 99.7663 137.892C99.2407 135.66 96.9079 134.803 95.4859 133.331C95.9647 132.33 96.4579 132.229 97.2859 132.971H97.2823Z" fill="#DE9460" style="fill:#DE9460;fill:color(display-p3 0.8706 0.5804 0.3765);fill-opacity:1;"/>
<path d="M108.795 124.698C109.069 125.763 109.846 125.004 109.872 125.054C109.969 125.256 109.785 125.886 109.958 126.228C110.296 126.897 110.952 127.178 111.132 127.574C111.51 128.406 110.988 129.45 111.855 130.083C112.32 130.065 112.543 127.635 113.835 127.934C113.673 129.828 112.345 132.384 110.422 132.974C110.052 132.981 110.322 132.503 110.239 132.251C111.225 130.854 109.71 129.007 109.339 127.578C109.08 126.584 109.011 125.583 108.802 124.698H108.795Z" fill="#87867B" style="fill:#87867B;fill:color(display-p3 0.5294 0.5255 0.4824);fill-opacity:1;"/>
<path d="M80.7331 131.891C80.8591 132.499 80.6431 133.385 80.7331 134.047C80.5963 133.993 80.1895 134.177 80.0635 134.007C79.9555 133.86 79.7215 131.12 79.5451 130.379C78.7459 127.031 78.2887 126.631 78.9331 122.898C79.1167 121.825 79.1743 121.4 79.6531 120.381C80.1679 122.199 78.9115 124.19 78.9655 125.925C79.0231 127.722 80.4019 130.307 80.7295 131.891H80.7331Z" fill="#6D6C63" style="fill:#6D6C63;fill:color(display-p3 0.4275 0.4235 0.3882);fill-opacity:1;"/>
<path d="M106.995 135.487C107.704 134.27 108.388 132.506 109.155 131.171C110.807 132.654 108.125 134.601 106.995 135.487Z" fill="#7B715F" style="fill:#7B715F;fill:color(display-p3 0.4824 0.4431 0.3725);fill-opacity:1;"/>
<path d="M103.399 140.163C103.381 140.927 102.11 142.313 101.429 142.316C101.134 142.316 100.925 141.96 100.882 141.963C101.44 141.103 102.844 140.61 103.402 140.163H103.399Z" fill="#DE9460" style="fill:#DE9460;fill:color(display-p3 0.8706 0.5804 0.3765);fill-opacity:1;"/>
<path d="M115.628 90.1702C116.456 90.3646 116.492 90.991 118.684 90.883C122.738 90.6886 126.993 89.1874 131.097 89.0938L122.821 91.063L118.508 92.6866C117.316 93.3166 116.153 94.1158 115.016 95.0842L114.551 94.8466L114.148 95.1526C111.214 93.9106 108.385 93.2878 105.199 93.0502C104.885 92.9494 104.889 92.827 105.199 92.6902C106.441 92.9638 107.441 92.251 108.435 91.9702C108.669 91.3186 109.331 90.9334 110.426 90.811C111.826 89.1982 114.397 88.3162 115.631 90.1702H115.628Z" fill="#FDFBFA" style="fill:#FDFBFA;fill:color(display-p3 0.9922 0.9843 0.9804);fill-opacity:1;"/>
<path d="M118.508 92.6902C119.35 92.4706 120.416 92.2474 121.291 92.053C121.651 91.9738 122.554 91.693 122.464 92.3266C120.808 92.7802 118.277 93.2554 116.819 94.0546C115.361 94.8538 115.379 96.3946 113.641 96.3082C112.73 96.265 110.865 94.6018 109.245 94.2166C106.84 93.6442 103.741 93.6946 101.242 93.403L105.199 92.6866V93.0466C108.147 93.1582 111.038 93.8638 113.878 95.1634L114.551 94.843C116.107 93.5722 116.506 93.205 118.508 92.6866V92.6902Z" fill="#FA9B27" style="fill:#FA9B27;fill:color(display-p3 0.9804 0.6078 0.1529);fill-opacity:1;"/>
<path d="M108.435 91.9702L105.559 91.6138C107.499 90.9874 109.443 90.3466 111.387 89.7058C111.981 89.5078 112.438 88.885 113.004 88.795C114.757 88.5106 118.4 89.6842 120.124 89.7454C121.06 89.7778 122.432 89.1442 123.544 89.4574L120.844 90.1666L115.632 90.1738C115.124 90.055 112.186 89.3386 112.046 89.4538C111.978 89.5078 111.895 90.5014 111.297 91.0558C110.35 91.9378 109.364 91.711 108.435 91.9702Z" fill="#FCA521" style="fill:#FCA521;fill:color(display-p3 0.9882 0.6471 0.1294);fill-opacity:1;"/>
<path d="M110.952 84.7774C111.942 85.5118 112.611 85.9042 113.828 86.2174C111.495 85.6234 108.921 88.8886 106.992 86.9374C108.349 86.2822 109.573 85.3858 110.948 84.781L110.952 84.7774Z" fill="#DB3828" style="fill:#DB3828;fill:color(display-p3 0.8588 0.2196 0.1569);fill-opacity:1;"/>
<path d="M99.0786 89.4502C99.0786 89.3566 98.2974 89.3278 99.4386 88.7302C101.991 89.2558 100.799 88.5826 101.494 88.3846C103.172 87.9094 104.673 88.1326 106.635 87.2902C107.107 87.9454 107.114 88.2118 106.415 88.6906C104.543 89.9722 101.253 89.2702 99.0786 89.4502Z" fill="#900805" style="fill:#900805;fill:color(display-p3 0.5647 0.0314 0.0196);fill-opacity:1;"/>
<path d="M107.715 124.698C107.816 124.385 107.938 124.388 108.075 124.698C107.848 124.899 107.917 125.389 107.251 125.357C105.627 125.274 103.384 123.69 101.959 123.261C103.003 122.613 100.673 120.918 100.879 120.749C102.887 121.411 104.072 121.148 105.551 122.901C105.71 121.785 105.044 120.853 104.864 119.813C104.803 119.456 104.579 118.488 105.191 118.589C106.019 120.518 105.893 123.463 107.715 124.701V124.698Z" fill="#7B7A70" style="fill:#7B7A70;fill:color(display-p3 0.4824 0.4784 0.4392);fill-opacity:1;"/>
<path d="M108.795 124.338C108.59 124.478 108.241 124.547 108.075 124.698H107.715L107.895 121.461C108.23 122.39 108.586 123.366 108.792 124.338H108.795Z" fill="#87867B" style="fill:#87867B;fill:color(display-p3 0.5294 0.5255 0.4824);fill-opacity:1;"/>
<path d="M82.1695 126.854C82.1155 127.286 82.1623 127.833 82.1695 128.294C81.2191 129.025 81.3919 130.515 81.0895 131.531C80.0311 130.292 81.4063 128.715 81.4567 127.401L80.7367 127.934C80.4919 124.345 80.4955 119.557 84.6859 118.585C84.8983 118.812 83.0227 121.584 82.7743 122.246C82.4251 123.182 81.6475 125.954 82.1695 126.858V126.854Z" fill="#7E7D73" style="fill:#7E7D73;fill:color(display-p3 0.4941 0.4902 0.4510);fill-opacity:1;"/>
<path d="M84.3295 122.538L85.7731 121.998L84.3295 121.814C85.0639 120.72 85.9099 119.643 85.7731 118.221L86.1331 120.738C87.4111 120.669 87.6271 118.794 88.2931 118.401C89.6899 117.581 90.2299 118.884 89.5531 119.219C89.5099 119.24 89.0347 118.927 88.8151 119.269C88.5667 119.658 88.7359 120.158 88.6459 120.378C88.5199 120.687 87.9439 122.063 87.8647 122.113C87.4543 122.365 86.4103 121.908 86.1295 122.534C85.7083 122.498 84.6499 122.448 84.3295 122.534V122.538Z" fill="#969388" style="fill:#969388;fill:color(display-p3 0.5882 0.5765 0.5333);fill-opacity:1;"/>
<path d="M88.2858 133.687C87.465 132.654 85.5102 130.976 88.1598 130.947C89.7402 130.929 91.4035 131.264 93.1387 131.167C96.0583 131.001 99.0678 130.537 101.955 130.094L97.2787 132.967C96.6739 133.1 96.0943 133.223 95.4787 133.327C94.4815 133.496 92.7463 133.989 91.8823 134.047C90.8275 134.069 89.7798 134.195 88.7394 134.429L88.2858 133.687Z" fill="#020202" style="fill:#020202;fill:color(display-p3 0.0078 0.0078 0.0078);fill-opacity:1;"/>
<path d="M88.2858 133.687C89.2146 133.658 90.5178 134.137 91.8822 134.047L92.0694 134.407C91.2702 134.493 90.2946 134.256 89.5386 134.4C87.9438 134.706 87.4434 140.084 87.1986 141.596C86.5722 141.683 86.8602 140.779 86.8422 140.343C86.7954 139.148 86.8746 137.942 86.8422 136.743C86.6478 136.232 86.5002 136.913 86.4822 136.923C86.169 137.071 85.7226 137.067 85.4058 137.283V134.047C86.2482 133.633 86.493 135.505 86.835 135.123C87.177 134.742 86.925 133.727 88.2786 133.687H88.2858Z" fill="#C3B29D" style="fill:#C3B29D;fill:color(display-p3 0.7647 0.6980 0.6157);fill-opacity:1;"/>
<path d="M105.195 93.0466C106.487 92.9998 109.097 93.2122 110.325 93.493C111.826 93.835 112.949 94.9654 114.548 94.8466C114.357 95.0014 114.31 95.6746 113.72 95.5198C110.869 93.6658 107.449 93.4174 104.119 93.4066C104.021 92.8054 104.799 93.0646 105.195 93.0502V93.0466Z" fill="#FA2F0E" style="fill:#FA2F0E;fill:color(display-p3 0.9804 0.1843 0.0549);fill-opacity:1;"/>
<path d="M103.996 88.8742C104.615 89.2414 105.227 89.209 105.832 88.777L106.477 89.1838C107.279 89.1622 107.143 89.8066 106.063 91.117L105.548 91.6606C105.623 92.0026 105.238 91.9882 104.929 91.9702L104.5 92.4346C100.846 92.989 97.2211 93.6874 93.6247 94.5262L93.7759 94.7566L94.0855 95.3758L99.7555 95.0554C100.648 95.4226 101.401 96.9166 100.281 97.2334C99.8347 97.3018 98.8591 97.7086 98.1139 97.8526C95.3455 97.9318 92.7607 97.9318 90.3667 97.8526C88.1023 98.0002 85.8199 98.3962 83.5519 98.4718C80.4091 99.037 81.0931 97.4458 83.7175 96.9706L83.8615 96.3046C84.8875 96.049 85.9387 95.9626 86.9611 95.6854L87.1771 95.041C88.8295 95.1094 89.8735 94.7098 90.3127 93.8458C92.6923 92.7118 95.0683 91.6138 97.8043 91.351C99.0427 90.0046 101.278 89.3962 103.071 89.803C103.283 89.7346 103.701 89.9074 103.975 89.7814C104.097 89.497 103.946 89.1298 104 88.8742H103.996Z" fill="#D00301" style="fill:#D00301;fill:color(display-p3 0.8157 0.0118 0.0039);fill-opacity:1;"/>
<path d="M97.8008 91.3546C96.7676 91.6714 94.0387 92.2618 93.3943 92.6002C93.0271 92.7946 92.7607 93.5002 92.0911 93.8602C91.6447 94.0978 90.8527 94.0834 90.7231 94.2094C90.5791 94.3534 90.8131 94.8862 90.4747 95.0842C90.1543 95.2678 87.548 95.6458 86.954 95.689C86.4032 95.7286 85.0315 95.635 84.0235 95.7034C83.6671 95.7286 82.3063 95.9266 82.3099 95.383C84.5635 95.1346 86.6227 94.4506 88.6675 93.5254L88.5056 93.2122C91.598 92.7298 94.6472 91.5742 97.8008 91.3546Z" fill="#8E0302" style="fill:#8E0302;fill:color(display-p3 0.5569 0.0118 0.0078);fill-opacity:1;"/>
<path d="M98.1103 97.8562C96.4291 98.1838 94.7947 98.6158 93.1531 99.0946C92.8399 98.4826 92.0731 98.8786 91.6051 98.9362C89.5315 99.1954 87.5263 99.6094 85.4095 99.4006C85.3303 98.9398 85.9891 99.0154 86.3311 98.9398C87.7531 98.623 89.2363 98.3854 90.6763 98.1622C90.6331 98.0254 90.3667 97.9066 90.3631 97.8598C90.3487 97.7122 90.3667 97.615 90.5215 97.5538C91.9543 97.309 93.4123 97.1074 94.8775 97.2154C95.7559 97.2802 96.0799 97.7086 96.4543 97.7626C96.9367 97.8346 97.7539 97.1902 98.1067 97.8562H98.1103Z" fill="#8F0302" style="fill:#8F0302;fill:color(display-p3 0.5608 0.0118 0.0078);fill-opacity:1;"/>
<path d="M83.8579 96.3082L85.0999 97.237L81.6907 98.1694C81.7339 98.7238 83.1379 98.4898 83.5483 98.4754L80.9167 98.785C80.2435 98.1262 81.2875 98.173 81.5107 97.8598C81.6079 97.723 81.4099 97.3702 81.4819 97.3018C82.3783 96.4306 82.8895 96.5458 83.8579 96.3046V96.3082Z" fill="#6C0504" style="fill:#6C0504;fill:color(display-p3 0.4235 0.0196 0.0157);fill-opacity:1;"/>
<path d="M117.629 96.6178C116.924 98.7382 111.841 98.7346 110.023 98.2198L109.573 97.5466C108.935 98.3602 107.549 97.8958 107.405 96.9274C106.394 96.8194 105.674 97.2262 104.929 97.237C103.561 97.2586 101.807 97.0066 100.281 97.237C100.281 93.9142 96.2491 96.0562 94.0855 95.3794C94.0747 95.1922 94.0711 95.0482 94.0927 95.041C97.4587 94.4074 101.415 93.7342 104.803 93.3634L105.238 93.8278C105.267 93.961 105.274 94.0762 105.227 94.1122C104.039 95.0158 103.708 94.1806 105.782 93.9178C105.847 93.9106 105.929 94.0078 106.012 94.1374C107.013 93.529 110.163 93.0646 110.969 94.1374C110.829 93.7486 111.193 93.439 112.053 93.2086C112.244 92.2474 115.124 92.8378 115.153 93.8278C115.844 93.9898 116.251 93.4498 116.373 92.2042C120.319 92.2258 118.123 91.2466 115.786 90.7966C115.819 90.469 115.732 90.2242 115.462 90.109C114.825 90.3718 113.23 90.9622 112.672 90.4186C112.37 90.2674 112.323 90.0694 112.582 90.0478C112.96 90.0154 106.772 92.0746 105.548 91.657C105.123 90.1918 106.059 90.1882 106.394 89.7094C106.541 89.497 106.441 89.227 106.477 89.1766C106.577 89.0398 106.534 88.9534 106.786 88.867C106.862 88.5862 106.966 88.5934 107.096 88.867C107.675 88.8382 107.956 88.5934 107.935 88.129C109.868 88.2514 111.527 87.8338 112.906 86.8762L113.601 87.0094C115.599 87.6322 120.121 86.905 121.067 89.3242C122.075 91.8946 118.504 94.4182 117.629 96.6106V96.6178Z" fill="#F40201" style="fill:#F40201;fill:color(display-p3 0.9569 0.0078 0.0039);fill-opacity:1;"/>
<path d="M115.459 90.1126C116.326 90.415 116.668 90.7534 115.952 91.4842C116.431 92.3302 116.312 94.0834 115.149 93.8278C115.016 93.745 112.55 93.3094 112.05 93.2086C111.844 93.5002 111.582 93.5758 111.258 93.583C109.234 93.6226 107.211 93.673 105.235 93.8278L94.0819 95.3758H92.5339V95.0698C93.0415 95.2606 93.5095 94.8034 93.7723 94.7566C97.5307 93.5038 101.469 92.719 105.58 92.4058L112.359 90.7282C111.945 90.3142 112.14 90.1414 112.669 90.4186C113.079 90.2422 113.767 89.8498 114.094 89.7994C114.775 89.6986 115.034 90.0298 115.459 90.109V90.1126Z" fill="#FDF9F9" style="fill:#FDF9F9;fill:color(display-p3 0.9922 0.9765 0.9765);fill-opacity:1;"/>
<path d="M112.363 90.7318C107.456 92.737 99.1903 93.8026 93.7723 94.7566C92.7787 94.8934 93.0991 94.4002 93.7003 94.2202C97.7431 92.9926 100.738 92.4562 104.925 91.9702L112.082 90.3934L112.359 90.7318H112.363Z" fill="#F40201" style="fill:#F40201;fill:color(display-p3 0.9569 0.0078 0.0039);fill-opacity:1;"/>
<path d="M103.46 92.2726C106.128 91.7794 108.73 91.0054 111.333 90.2494C112.442 89.929 112.125 90.1774 111.736 90.8326C111.618 90.883 111.502 91.1422 111.376 91.1926L103.442 92.8486C103.15 93.043 102.776 92.629 102.74 92.6326C102.852 92.2726 103.165 92.3266 103.46 92.2726Z" fill="#FDB52A" style="fill:#FDB52A;fill:color(display-p3 0.9922 0.7098 0.1647);fill-opacity:1;"/>
<defs>
<linearGradient id="paint0_linear_509_8309" x1="200" y1="100" x2="-4.76989e-06" y2="99.9999" gradientUnits="userSpaceOnUse">
<stop stop-opacity="0.4" style="stop-color:black;stop-opacity:0.4;"/>
<stop offset="0.1" stop-opacity="0" style="stop-color:none;stop-opacity:0;"/>
<stop offset="0.9" stop-opacity="0" style="stop-color:none;stop-opacity:0;"/>
<stop offset="1" stop-opacity="0.4" style="stop-color:black;stop-opacity:0.4;"/>
</linearGradient>
</defs>
</svg>
