<svg width="20" height="20" viewBox="0 0 20 20" fill="none" xmlns="http://www.w3.org/2000/svg">
<path opacity="0.4" d="M7.4416 9.1666H9.1666V3.3916C7.72493 3.57493 6.42493 4.2166 5.4166 5.1666C6.53314 6.22617 7.24862 7.63947 7.4416 9.1666ZM16.6083 9.1666C16.4843 8.20487 16.1546 7.28113 15.6416 6.45827C14.9166 7.18327 14.4166 8.1166 14.2416 9.1666H16.6083ZM4.35827 6.45827C3.84525 7.28113 3.51555 8.20487 3.3916 9.1666H5.75827C5.58654 8.13956 5.09687 7.19228 4.35827 6.45827ZM3.3916 10.8333C3.51555 11.795 3.84525 12.7187 4.35827 13.5416C5.08327 12.8166 5.58327 11.8833 5.75827 10.8333H3.3916ZM5.42493 14.8249C6.45099 15.8019 7.76157 16.4265 9.1666 16.6083V10.8333H7.4416C7.25237 12.3574 6.5395 13.7683 5.42493 14.8249ZM14.5833 5.1666C13.5549 4.18968 12.2407 3.56765 10.8333 3.3916V9.1666H12.5583C12.7512 7.63947 13.4667 6.22617 14.5833 5.1666ZM15.6416 13.5416C16.162 12.7223 16.4923 11.7969 16.6083 10.8333H14.2416C14.4166 11.8833 14.9166 12.8166 15.6416 13.5416ZM10.8333 10.8333V16.6083C12.2749 16.4249 13.5749 15.7749 14.5749 14.8249C13.4604 13.7683 12.7475 12.3574 12.5583 10.8333H10.8333Z" fill="#969AA0" style="fill:#969AA0;fill:color(display-p3 0.5882 0.6039 0.6275);fill-opacity:1;"/>
<path d="M10.0003 1.66669C5.40033 1.66669 1.66699 5.40002 1.66699 10C1.66699 14.6 5.40033 18.3334 10.0003 18.3334C14.6003 18.3334 18.3337 14.6 18.3337 10C18.3337 5.40002 14.6003 1.66669 10.0003 1.66669ZM4.35866 6.45835C5.08366 7.18335 5.58366 8.11669 5.75866 9.16669H3.39199C3.51594 8.20496 3.84564 7.28122 4.35866 6.45835ZM3.39199 10.8334H5.75866C5.58693 11.8604 5.09726 12.8077 4.35866 13.5417C3.84564 12.7188 3.51594 11.7951 3.39199 10.8334ZM9.16699 16.6084C7.72533 16.425 6.42533 15.775 5.42533 14.825C6.5399 13.7684 7.25276 12.3574 7.44199 10.8334H9.16699V16.6084ZM9.16699 9.16669H7.44199C7.24902 7.63956 6.53353 6.22626 5.41699 5.16669C6.4477 4.19315 7.76067 3.57168 9.16699 3.39169V9.16669ZM16.6087 9.16669H14.242C14.417 8.11669 14.917 7.18335 15.642 6.45835C16.142 7.26669 16.4837 8.18335 16.6087 9.16669ZM10.8337 3.39169C12.2753 3.57502 13.5753 4.21669 14.5837 5.16669C13.4671 6.22626 12.7516 7.63956 12.5587 9.16669H10.8337V3.39169ZM10.8337 16.6084V10.8334H12.5587C12.7512 12.3564 13.4636 13.7664 14.5753 14.825C13.5493 15.8019 12.2387 16.4266 10.8337 16.6084ZM15.642 13.5417C14.9048 12.8067 14.4153 11.8599 14.242 10.8334H16.6087C16.4847 11.7951 16.155 12.7188 15.642 13.5417Z" fill="#969AA0" style="fill:#969AA0;fill:color(display-p3 0.5882 0.6039 0.6275);fill-opacity:1;"/>
</svg>
