<svg width="20" height="20" viewBox="0 0 20 20" fill="none" xmlns="http://www.w3.org/2000/svg">
<path opacity="0.4" d="M12.3516 1.14954H13.7564C14.7867 1.14954 15.6296 1.99245 15.6296 3.02268V9.01675L12.3516 1.14954ZM16.4725 2.64805L17.69 3.21C18.6266 3.58462 19.0949 4.70851 18.7203 5.64508L16.4725 11.1709V2.64805Z" fill="white" style="fill:white;fill-opacity:1;"/>
<path fill-rule="evenodd" clip-rule="evenodd" d="M9.94983 1.14923C10.6991 1.14923 11.3554 1.52407 11.6364 2.2733L16.3193 13.5122C16.4129 13.6994 16.4123 13.9806 16.5058 14.168C16.5058 14.9171 16.1317 15.5726 15.3827 15.8536L8.45168 18.6633C8.17074 18.8506 7.98352 18.8508 7.70261 18.8508C6.95335 18.8508 6.29793 18.476 6.01696 17.7267L1.3341 6.48788C0.865821 5.55131 1.3341 4.52107 2.27067 4.14645L9.20076 1.33673C9.48158 1.24312 9.66911 1.14933 9.94983 1.14923ZM7.32029 6.2894C6.91473 8.61596 5.28308 10.1441 6.03708 11.9994C6.33882 12.7413 7.4135 13.1686 8.18644 12.8546C8.57296 12.6975 8.95955 12.5403 9.19527 12.0122C9.19527 12.0122 9.62029 12.7042 9.17606 14.1817L11.4955 13.2396C10.2701 12.4406 9.96812 11.6985 9.96812 11.6985C10.5054 11.9125 10.8923 11.755 11.2788 11.5979C12.0517 11.2837 12.5231 10.2281 12.2218 9.48601C11.4678 7.63075 9.23383 7.67335 7.32029 6.2894Z" fill="white" style="fill:white;fill-opacity:1;"/>
</svg>
