<svg width="20" height="20" viewBox="0 0 20 20" fill="none" xmlns="http://www.w3.org/2000/svg">
<path opacity="0.4" fill-rule="evenodd" clip-rule="evenodd" d="M6.32545 13.7985C6.65554 11.5851 8.69304 9.70483 9.6774 8.91203C9.82764 8.78913 10.0158 8.72198 10.2099 8.72198C10.404 8.72198 10.5921 8.78913 10.7423 8.91203C11.7277 9.70483 13.7642 11.5842 14.0943 13.7985L14.0982 13.8319C14.1257 14.0186 14.1395 14.2091 14.1395 14.4037C14.138 14.9443 14.0249 15.4789 13.8073 15.9739C13.5897 16.4688 13.2724 16.9136 12.8751 17.2803C12.4777 17.647 12.009 17.9278 11.4982 18.105C10.9874 18.2823 10.4455 18.3523 9.90646 18.3105C9.36739 18.2688 8.84274 18.1162 8.36532 17.8624C7.88791 17.6086 7.468 17.259 7.13188 16.8355C6.79576 16.412 6.55065 15.9237 6.41189 15.4011C6.27313 14.8785 6.2437 14.333 6.32545 13.7985Z" fill="#969AA0" style="fill:#969AA0;fill:color(display-p3 0.5882 0.6039 0.6275);fill-opacity:1;"/>
<path fill-rule="evenodd" clip-rule="evenodd" d="M8.60556 1.69246C7.91787 2.18955 3.33301 5.71736 3.33301 11.4565C3.33289 13.2669 4.04661 15.0042 5.31931 16.2916C6.59202 17.579 8.32104 18.3127 10.1312 18.3334C9.57053 18.3224 9.01867 18.1916 8.51273 17.9496C8.0068 17.7077 7.55851 17.3602 7.19799 16.9307C6.83747 16.5011 6.57308 15.9993 6.42257 15.4591C6.27206 14.9189 6.23893 14.3527 6.3254 13.7986C6.65549 11.5843 8.69299 9.70492 9.67736 8.91213C9.82759 8.78923 10.0157 8.72208 10.2098 8.72208C10.4039 8.72208 10.592 8.78923 10.7423 8.91213C11.7276 9.70492 13.7641 11.5843 14.0942 13.7986L14.0982 13.832C14.1257 14.0186 14.1394 14.2092 14.1394 14.4037C14.1396 15.4325 13.7364 16.4203 13.0164 17.155C12.2964 17.8897 11.3169 18.3128 10.2884 18.3334C12.0889 18.3128 13.8096 17.5869 15.0807 16.3116C16.3519 15.0362 17.0721 13.3131 17.0866 11.5125V11.4565C17.0601 7.29018 14.2416 5.0169 13.7278 4.63672C13.7044 4.62 13.6764 4.61101 13.6477 4.61101C13.619 4.61101 13.591 4.62 13.5677 4.63672C13.3614 4.78899 12.7876 5.24384 12.1717 6.00225C12.1553 6.02188 12.1342 6.03708 12.1104 6.04647C12.0866 6.05586 12.0608 6.05915 12.0354 6.05602C12.01 6.0529 11.9858 6.04346 11.965 6.02858C11.9442 6.0137 11.9274 5.99384 11.9162 5.97082C10.757 3.51973 9.15275 2.03237 8.77453 1.70228C8.75192 1.68122 8.72266 1.6687 8.69181 1.66691C8.66096 1.66512 8.63045 1.67415 8.60556 1.69246Z" fill="#969AA0" style="fill:#969AA0;fill:color(display-p3 0.5882 0.6039 0.6275);fill-opacity:1;"/>
</svg>
