<svg width="24" height="25" viewBox="0 0 24 25" fill="none" xmlns="http://www.w3.org/2000/svg">
<path d="M11.314 19.8309C10.6327 20.1152 9.84565 20.6103 9.16676 20.9557C8.62416 21.2318 8.04689 21.551 7.49823 21.8008C7.03212 22.0132 6.5879 22.0747 6.1517 21.7534C5.69513 21.4171 5.64984 21.0203 5.70618 20.4855C5.77942 19.7897 5.89774 18.9472 6.03339 18.2557C6.43058 16.2323 7.79964 15.8089 9.43654 14.9631C10.3724 14.4797 11.3187 14.0146 12.2577 13.5371C12.3205 13.4972 12.5166 13.2998 12.5424 13.2369C12.6269 13.0302 12.3818 12.9373 12.2178 12.9552C12.1643 12.9611 12.1367 12.9664 12.0938 12.9718C10.4281 13.1773 8.75786 13.4905 7.08434 13.6946C5.88214 13.8413 5.33087 13.7971 4.32585 13.0909C3.76505 12.6967 3.0374 12.1166 2.53272 11.6553C2.02805 11.194 1.83238 10.6689 2.16391 10.0093C2.4805 9.3796 3.12061 9.42142 3.72215 9.33561C4.83811 9.17656 5.96751 9.03419 7.08478 8.88446C7.60722 8.81447 8.11688 8.87319 8.47984 8.41597C9.34769 6.79294 10.1408 5.12593 10.9848 3.48839C11.5166 2.67753 12.4512 2.6979 12.9532 3.53173C13.4542 4.36383 13.916 5.44555 14.3563 6.33247C14.6144 6.85275 14.8478 7.42092 15.1245 7.92624C15.6309 8.85065 16.2127 8.80883 17.161 8.92346C18.3996 9.07341 19.7034 9.17136 20.9282 9.3601C21.8242 9.49813 22.333 10.493 21.7529 11.2445C20.7819 12.2176 19.8085 13.1864 18.8278 14.1483C18.5244 14.4459 17.8288 14.9908 17.7213 15.3822C17.6249 15.7334 17.7944 16.4394 17.8409 16.8241C17.9621 17.8226 18.0726 18.8187 18.1896 19.8125C18.2765 20.5505 18.5192 21.2411 17.839 21.8056C17.3163 22.2394 16.9014 22.1488 16.3317 21.8871C15.3587 21.44 14.3747 20.779 13.4871 20.2969C12.8005 19.924 12.1127 19.4975 11.314 19.8309Z" fill="#F5C150" style="fill:#F5C150;fill:color(display-p3 0.9608 0.7569 0.3137);fill-opacity:1;"/>
</svg>
