<svg width="24" height="25" viewBox="0 0 24 25" fill="none" xmlns="http://www.w3.org/2000/svg">
<path d="M12 22.5C17.5229 22.5 22 18.0229 22 12.5C22 6.97714 17.5229 2.5 12 2.5C6.47714 2.5 2 6.97714 2 12.5C2 18.0229 6.47714 22.5 12 22.5Z" fill="#0098EA" style="fill:#0098EA;fill:color(display-p3 0.0000 0.5961 0.9176);fill-opacity:1;"/>
<path d="M15.4141 8.0813H8.58495C7.32931 8.0813 6.53345 9.43576 7.16517 10.5307L11.3799 17.836C11.6549 18.313 12.3442 18.313 12.6192 17.836L16.8348 10.5307C17.4656 9.43751 16.6698 8.0813 15.415 8.0813H15.4141ZM11.3765 15.6453L10.4586 13.8688L8.24377 9.90762C8.09767 9.65408 8.27813 9.32919 8.58409 9.32919H11.3756V15.6461L11.3765 15.6453ZM15.7536 9.90676L13.5397 13.8697L12.6218 15.6453V9.32833H15.4133C15.7192 9.32833 15.8997 9.65323 15.7536 9.90676Z" fill="white" style="fill:white;fill-opacity:1;"/>
</svg>
