<svg width="87" height="20" viewBox="0 0 87 20" fill="none" xmlns="http://www.w3.org/2000/svg">
<path d="M20.3218 19.5C20.0158 19.5 19.7383 19.3199 19.6131 19.0399L15.2275 9.23472V18.7213C15.2275 19.1514 14.8797 19.5 14.4508 19.5H10.1055C9.67656 19.5 9.32881 19.1514 9.32881 18.7213V1.27869C9.32881 0.848631 9.67656 0.5 10.1055 0.5H16.6243C16.9371 0.5 17.2194 0.688094 17.3405 0.977218L22.4016 13.0611L27.839 0.958885C27.9645 0.67959 28.2416 0.5 28.5472 0.5H35.0802C35.5092 0.5 35.8569 0.848631 35.8569 1.27869V18.7213C35.8569 19.1514 35.5092 19.5 35.0802 19.5H30.5755C30.1466 19.5 29.7988 19.1514 29.7988 18.7213V9.20833L25.1311 19.0555C25.0025 19.327 24.7294 19.5 24.4296 19.5H20.3218Z" fill="white" style="fill:white;fill-opacity:1;"/>
<path d="M39.0355 19.5C38.6065 19.5 38.2588 19.1514 38.2588 18.7213V1.27869C38.2588 0.848631 38.6065 0.5 39.0355 0.5H43.859C44.288 0.5 44.6357 0.848631 44.6357 1.27869V18.7213C44.6357 19.1514 44.288 19.5 43.859 19.5H39.0355Z" fill="white" style="fill:white;fill-opacity:1;"/>
<path d="M47.8794 19.5C47.4504 19.5 47.1027 19.1514 47.1027 18.7213V1.27869C47.1027 0.848631 47.4504 0.5 47.8794 0.5H53.0922C53.3362 0.5 53.5659 0.614894 53.7127 0.810253L61.7059 11.4514V1.27869C61.7059 0.848632 62.0536 0.5 62.4826 0.5H66.8279C67.2568 0.5 67.6046 0.848631 67.6046 1.27869V18.7213C67.6046 19.1514 67.2568 19.5 66.8279 19.5H61.5945C61.3622 19.5 61.1421 19.3958 60.9946 19.2159L53.0014 9.47222V18.7213C53.0014 19.1514 52.6536 19.5 52.2246 19.5H47.8794Z" fill="white" style="fill:white;fill-opacity:1;"/>
<path d="M70.3039 5.90972C69.8749 5.90972 69.5272 5.56109 69.5272 5.13103V1.27869C69.5272 0.848631 69.8749 0.5 70.3039 0.5H86.2233C86.6523 0.5 87 0.848631 87 1.27869V5.13103C87 5.56109 86.6523 5.90972 86.2233 5.90972H81.4521V18.7213C81.4521 19.1514 81.1043 19.5 80.6753 19.5H75.8518C75.4229 19.5 75.0751 19.1514 75.0751 18.7213V5.90972H70.3039Z" fill="white" style="fill:white;fill-opacity:1;"/>
<path d="M2.12398 4.06849L0.433048 5.34594C-0.0465748 5.70829 -0.142397 6.39182 0.219025 6.87266L6.76232 15.578L3.79179 8.20698L2.59068 7.74474C2.39044 7.66768 2.29043 7.44248 2.36729 7.24173L2.87179 5.92411L2.12398 4.06849Z" fill="white" style="fill:white;fill-opacity:1;"/>
<path d="M7.28546 1.37619L4.68763 2.22245C4.03488 2.43509 3.67766 3.13798 3.88976 3.79239L8.43137 17.8051L7.67893 7.01728L6.00181 5.55567C5.83993 5.4146 5.82278 5.16868 5.96349 5.00639L7.42139 3.325L7.28546 1.37619Z" fill="white" style="fill:white;fill-opacity:1;"/>
</svg>
