<svg width="37" height="20" viewBox="0 0 37 20" fill="none" xmlns="http://www.w3.org/2000/svg">
<path d="M20.4406 19.5312C20.1328 19.5312 19.8537 19.3505 19.7277 19.0697L15.3165 9.23221V18.75C15.3165 19.1815 14.9667 19.5312 14.5352 19.5312H10.1646C9.7331 19.5312 9.38332 19.1815 9.38332 18.75V1.25C9.38332 0.818528 9.7331 0.46875 10.1646 0.46875H16.7214C17.0361 0.46875 17.32 0.657462 17.4418 0.947538L22.5324 13.0712L28.0016 0.929144C28.1279 0.648931 28.4066 0.46875 28.714 0.46875H35.2852C35.7167 0.46875 36.0664 0.818528 36.0664 1.25V18.75C36.0664 19.1815 35.7167 19.5312 35.2852 19.5312H30.7542C30.3227 19.5312 29.9729 19.1815 29.9729 18.75V9.20573L25.278 19.0853C25.1485 19.3577 24.8739 19.5312 24.5723 19.5312H20.4406Z" fill="white" style="fill:white;fill-opacity:1;"/>
<path d="M2.13639 4.04898L0.435578 5.33063C-0.0468469 5.69417 -0.143229 6.37995 0.220305 6.86238L6.80183 15.5964L3.81395 8.20108L2.60582 7.73733C2.40441 7.66001 2.30381 7.43406 2.38112 7.23266L2.88857 5.91071L2.13639 4.04898Z" fill="white" style="fill:white;fill-opacity:1;"/>
<path d="M7.32803 1.34782L4.71502 2.19687C4.05845 2.41021 3.69915 3.1154 3.91249 3.77197L8.48063 17.8308L7.72379 7.00747L6.03687 5.54105C5.87406 5.39951 5.8568 5.15279 5.99834 4.98997L7.46476 3.30305L7.32803 1.34782Z" fill="white" style="fill:white;fill-opacity:1;"/>
</svg>
