<svg width="36" height="36" viewBox="0 0 36 36" fill="none" xmlns="http://www.w3.org/2000/svg">
<path opacity="0.4" d="M3.42148 29.4862C3.55449 30.7741 4.39891 31.7936 5.66531 32.0632C7.66425 32.4888 11.4324 33 18 33C24.5676 33 28.3358 32.4888 30.3347 32.0632C31.6011 31.7936 32.4455 30.7741 32.5785 29.4862C32.7757 27.5766 33 24.0704 33 18C33 11.9296 32.7757 8.4234 32.5785 6.51377C32.4455 5.22583 31.6011 4.20636 30.3347 3.93676C28.3358 3.51122 24.5676 3 18 3C11.4324 3 7.66425 3.51122 5.66531 3.93676C4.39891 4.20636 3.55449 5.22583 3.42148 6.51377C3.22428 8.4234 3 11.9296 3 18C3 24.0704 3.22428 27.5766 3.42148 29.4862Z" fill="#969AA0" style="fill:#969AA0;fill:color(display-p3 0.5882 0.6039 0.6275);fill-opacity:1;"/>
<path d="M20.9072 20.7838C22.8944 19.7374 24.2494 17.6519 24.2494 15.25C24.2494 11.7982 21.4511 9 17.9993 9C14.5476 9 11.7494 11.7982 11.7494 15.25C11.7494 17.652 13.1044 19.7376 15.0917 20.7839C12.4304 21.7979 10.3982 24.1638 9.76876 27.0793C9.68169 27.4829 9.90369 27.8971 10.3101 27.9706C11.7687 28.2346 14.1842 28.5 18.0009 28.5C21.8175 28.5 24.233 28.2346 25.6916 27.9706C26.0966 27.8974 26.318 27.4847 26.2313 27.0826C25.6027 24.1654 23.5699 21.7981 20.9072 20.7838Z" fill="#969AA0" style="fill:#969AA0;fill:color(display-p3 0.5882 0.6039 0.6275);fill-opacity:1;"/>
</svg>
