<svg width="33" height="32" viewBox="0 0 33 32" fill="none" xmlns="http://www.w3.org/2000/svg">
<path d="M16.5 2.66663C13.8629 2.66663 11.285 3.44861 9.09239 4.9137C6.89974 6.37878 5.19077 8.46117 4.1816 10.8975C3.17243 13.3339 2.90839 16.0148 3.42286 18.6012C3.93733 21.1876 5.20721 23.5634 7.07191 25.4281C8.93661 27.2928 11.3124 28.5626 13.8988 29.0771C16.4852 29.5916 19.1661 29.3275 21.6024 28.3184C24.0388 27.3092 26.1212 25.6002 27.5863 23.4076C29.0513 21.2149 29.8333 18.637 29.8333 16C29.8333 14.249 29.4885 12.5152 28.8184 10.8975C28.1483 9.27984 27.1662 7.80998 25.9281 6.57187C24.69 5.33375 23.2201 4.35163 21.6024 3.68157C19.9848 3.0115 18.251 2.66663 16.5 2.66663ZM16.5 26.6666C14.3903 26.6666 12.328 26.041 10.5739 24.869C8.81979 23.6969 7.45262 22.031 6.64528 20.0819C5.83795 18.1328 5.62671 15.9881 6.03829 13.919C6.44986 11.8499 7.46576 9.94925 8.95752 8.45749C10.4493 6.96573 12.3499 5.94983 14.419 5.53825C16.4882 5.12667 18.6329 5.33791 20.582 6.14524C22.531 6.95258 24.1969 8.31975 25.369 10.0739C26.5411 11.828 27.1667 13.8903 27.1667 16C27.1667 18.8289 26.0429 21.542 24.0425 23.5424C22.0421 25.5428 19.329 26.6666 16.5 26.6666Z" fill="#D2FF1C" style="fill:#D2FF1C;fill:color(display-p3 0.8235 1.0000 0.1098);fill-opacity:1;"/>
<path d="M16.5 12C17.2364 12 17.8333 11.403 17.8333 10.6666C17.8333 9.93025 17.2364 9.33329 16.5 9.33329C15.7636 9.33329 15.1667 9.93025 15.1667 10.6666C15.1667 11.403 15.7636 12 16.5 12Z" fill="#D2FF1C" style="fill:#D2FF1C;fill:color(display-p3 0.8235 1.0000 0.1098);fill-opacity:1;"/>
<path d="M16.5 13.3333C16.1464 13.3333 15.8072 13.4738 15.5572 13.7238C15.3071 13.9739 15.1667 14.313 15.1667 14.6666V21.3333C15.1667 21.6869 15.3071 22.0261 15.5572 22.2761C15.8072 22.5262 16.1464 22.6666 16.5 22.6666C16.8536 22.6666 17.1928 22.5262 17.4428 22.2761C17.6929 22.0261 17.8333 21.6869 17.8333 21.3333V14.6666C17.8333 14.313 17.6929 13.9739 17.4428 13.7238C17.1928 13.4738 16.8536 13.3333 16.5 13.3333Z" fill="#D2FF1C" style="fill:#D2FF1C;fill:color(display-p3 0.8235 1.0000 0.1098);fill-opacity:1;"/>
</svg>
