<svg width="55" height="57" viewBox="0 0 55 57" fill="none" xmlns="http://www.w3.org/2000/svg">
<path d="M23.7564 11.8039C23.5754 11.8039 23.4239 11.7448 23.3017 11.6266C23.1795 11.5085 23.1182 11.3624 23.1178 11.1884C23.1173 11.0144 23.1786 10.8684 23.3017 10.7502C23.4247 10.632 23.5763 10.5729 23.7564 10.5729H31.4199C31.6009 10.5729 31.7526 10.632 31.8753 10.7502C31.9979 10.8684 32.059 11.0144 32.0585 11.1884C32.0581 11.3624 31.9968 11.5087 31.8746 11.6272C31.7524 11.7458 31.6009 11.8047 31.4199 11.8039H23.7564ZM24.2034 9.64973C23.8948 9.64973 23.6208 9.55228 23.3815 9.35738C23.1422 9.16248 22.9958 8.91629 22.9421 8.61881L22.3035 4.71054C22.2822 4.71054 22.2584 4.71321 22.232 4.71854C22.2056 4.72388 22.1815 4.72634 22.1598 4.72593C21.8937 4.72593 21.6677 4.63627 21.4816 4.45697C21.2955 4.27766 21.2023 4.05958 21.2019 3.80272C21.2015 3.54586 21.2947 3.32798 21.4816 3.14908C21.6685 2.97018 21.8946 2.88033 22.1598 2.8795C22.4251 2.87868 22.6513 2.96854 22.8387 3.14908C23.026 3.32962 23.119 3.5475 23.1178 3.80272C23.1178 3.87452 23.1097 3.9412 23.0935 4.00275C23.0773 4.06429 23.0588 4.12071 23.0379 4.172L25.0336 5.03367L27.0294 2.40251C26.9123 2.32045 26.8165 2.21274 26.742 2.07939C26.6675 1.94603 26.6302 1.80242 26.6302 1.64856C26.6302 1.39211 26.7234 1.17402 26.9099 0.994306C27.0964 0.814587 27.3225 0.724933 27.5881 0.725343C27.8538 0.725754 28.0801 0.815613 28.267 0.994921C28.4539 1.17423 28.5469 1.39211 28.5461 1.64856C28.5461 1.80242 28.5088 1.94603 28.4343 2.07939C28.3598 2.21274 28.264 2.32045 28.1469 2.40251L30.1427 5.03367L32.1384 4.172C32.1171 4.12071 32.0984 4.06429 32.0822 4.00275C32.066 3.9412 32.0581 3.87452 32.0585 3.80272C32.0585 3.54627 32.1518 3.32819 32.3383 3.14847C32.5247 2.96875 32.7508 2.87909 33.0165 2.8795C33.2822 2.87991 33.5084 2.96977 33.6953 3.14908C33.8822 3.32839 33.9753 3.54627 33.9744 3.80272C33.9736 4.05916 33.8805 4.27725 33.6953 4.45697C33.5101 4.63668 33.2839 4.72634 33.0165 4.72593C32.9952 4.72593 32.9714 4.72347 32.945 4.71854C32.9186 4.71362 32.8945 4.71095 32.8728 4.71054L32.2342 8.61881C32.1809 8.91629 32.0347 9.16248 31.7954 9.35738C31.5562 9.55228 31.282 9.64973 30.9729 9.64973H24.2034Z" fill="url(#paint0_linear_937_34676)" style=""/>
<path d="M37.6533 42.3685C37.2063 44.002 36.4092 45.5403 35.2858 46.8307C34.8487 47.3339 34.2415 47.759 33.8084 48.2565C33.6422 48.4471 33.4306 48.5024 33.5156 48.8264C36.0433 48.2794 39.1149 49.0552 41.3419 50.3056C41.5535 50.4238 41.686 50.2808 41.597 50.7249C38.12 51.9372 34.5224 51.1862 31.346 49.5813C31.8464 47.313 33.2605 45.1095 35.086 43.596C35.7783 43.0223 36.7059 42.2999 37.6533 42.3666V42.3685Z" fill="url(#paint1_linear_937_34676)" style=""/>
<path d="M23.6364 49.5641C20.5688 51.312 16.8109 51.8343 13.4071 50.7268C13.6563 50.216 14.3347 49.972 14.8489 49.7433C16.8248 48.8684 19.568 48.3823 21.6863 48.8283C21.7773 48.4624 21.5498 48.4624 21.356 48.2927C19.4138 46.5963 18.1203 44.8293 17.3489 42.3704C18.0906 41.7642 20.998 44.5586 21.4865 45.1266C22.517 46.3256 23.3833 48.0163 23.6364 49.566V49.5641Z" fill="url(#paint2_linear_937_34676)" style=""/>
<path d="M26.965 49.4459C29.5679 49.2095 34.2533 51.5312 36.605 52.7835C37.7046 53.3687 40.0147 54.5753 40.7149 55.4731C40.8791 55.6827 41.0966 55.8028 41.0037 56.1402C39.72 57.1085 38.1457 55.0308 37.0421 54.2627C35.1137 52.9208 32.1133 51.3616 29.9021 50.5038C28.0786 49.7966 27.7364 49.5641 25.8258 50.256C23.6581 51.0394 20.4501 52.6158 18.5434 53.8776C17.7108 54.4285 16.0791 56.0563 15.369 56.327C14.4869 56.6644 13.4881 56.3079 14.2812 55.4692C15.5846 54.0911 19.8765 52.0668 21.7456 51.2643C23.0371 50.7097 25.6616 49.566 26.9631 49.4478L26.965 49.4459Z" fill="url(#paint3_linear_937_34676)" style=""/>
<path d="M12.5962 44.0573C9.61161 44.1946 5.99417 42.9518 4.33675 40.4681C6.06932 40.2889 7.61598 40.7979 9.2022 41.3811L11.4332 42.5553C11.3205 41.669 10.9071 40.916 10.8339 39.9992C10.7944 39.5036 10.7568 35.8877 11.3343 35.9087C13.1519 38.1636 13.4545 41.3754 12.5942 44.0573H12.5962Z" fill="url(#paint4_linear_937_34676)" style=""/>
<path d="M17.7209 47.4769C15.2585 48.4281 11.3028 48.3156 9.12525 46.785C8.95516 46.6649 8.76528 46.806 8.87406 46.3599L12.1315 45.7767L16.1683 46.358C14.9321 44.7645 14.1648 42.8698 13.8562 40.8932C13.8226 40.6759 13.6782 40.2203 13.9017 40.0907C16.3681 41.6918 17.7684 44.633 17.7248 47.4788L17.7209 47.4769Z" fill="url(#paint5_linear_937_34676)" style=""/>
<path d="M38.8378 46.5486C40.1194 45.8872 41.5217 46.0873 42.8785 45.7805L46.3278 46.3599C46.0568 46.8727 45.2954 47.1967 44.7495 47.4026C42.3899 48.2946 39.6546 48.3423 37.2812 47.4788C37.3485 44.7111 38.6677 41.6728 41.1043 40.0888C41.2606 41.3278 40.7958 42.622 40.42 43.8L38.8378 46.5486Z" fill="url(#paint6_linear_937_34676)" style=""/>
<path d="M43.9626 36.0973C44.4867 38.3046 44.3483 40.4242 43.569 42.5572C43.6877 42.6792 45.4638 41.526 45.798 41.3811C47.2498 40.7502 49.0832 40.2927 50.6655 40.5615C48.9151 42.9823 45.3728 44.1755 42.3922 44.0726C41.9116 41.9015 41.8246 39.8734 42.6276 37.7557C42.7008 37.5593 43.5987 35.6437 43.9626 36.0973Z" fill="url(#paint7_linear_937_34676)" style=""/>
<path d="M49.089 32.8665C49.3837 33.1734 50.3429 31.7304 50.5585 31.5303C51.7294 30.4362 53.4184 29.4564 55.0007 29.0676C54.9156 31.0099 50.3924 34.8603 48.6202 34.5915C47.0993 32.4147 46.3675 29.5117 47.3129 26.9784C48.7883 28.5262 49.2037 30.825 49.087 32.8684L49.089 32.8665Z" fill="url(#paint8_linear_937_34676)" style=""/>
<path d="M46.9214 38.1864C48.6401 36.5529 50.7682 35.2072 53.2287 34.9575L52.1488 36.6711C50.5645 38.1655 48.2544 39.5989 45.9562 39.494C45.0167 37.2086 44.548 34.0425 46.0333 31.9172C47.1152 33.8481 47.2556 36.042 46.9214 38.1864Z" fill="url(#paint9_linear_937_34676)" style=""/>
<path d="M8.08263 34.2922C8.13406 33.9415 8.64631 32.51 8.82827 32.1593C8.9509 31.9248 8.82234 31.8486 9.2634 31.9172C10.2978 34.3837 10.369 37.3973 8.78476 39.6522C6.38764 39.2691 4.07358 38.0244 2.56647 36.1888C2.39242 35.9772 1.49845 34.8602 2.26584 34.9555C2.75832 35.0165 3.96677 35.4702 4.4731 35.6799C5.82395 36.2403 6.96516 37.0961 8.08263 37.9958C8.20328 36.8369 7.91847 35.4111 8.08263 34.2903V34.2922Z" fill="url(#paint10_linear_937_34676)" style=""/>
<path d="M0.00124541 29.0676C0.307809 28.7797 3.28246 30.5429 3.73143 30.886C4.572 31.5322 5.08624 32.4185 5.91297 33.0571C5.73892 30.9184 6.39358 28.7569 7.59017 26.9765C8.23889 27.2625 8.13209 29.8338 8.06485 30.4724C7.92244 31.8295 7.33503 33.3906 6.5083 34.4924C6.11471 34.765 4.57794 33.9682 4.1349 33.7261C2.25003 32.6968 0.659862 31.0861 -0.000732422 29.0676H0.00124541Z" fill="url(#paint11_linear_937_34676)" style=""/>
<path d="M50.0758 27.1653L52.0477 24.0316C52.2712 23.7705 54.1462 21.9463 54.4112 22.2246C54.7178 23.7667 51.6324 28.7264 50.1707 28.6826C48.7091 28.6387 46.3001 23.6828 46.7234 22.2246C47.0596 22.1446 47.117 22.3485 47.3148 22.5086C48.7309 23.6485 49.6545 25.4479 50.0758 27.1653Z" fill="url(#paint12_linear_937_34676)" style=""/>
<path d="M4.73413 27.1652C5.30572 26.8412 5.29978 25.9701 5.57075 25.4078C5.94851 24.6206 6.67635 23.5169 7.29146 22.886C7.43584 22.7373 8.10237 22.0263 8.28235 22.2265C8.37926 24.5939 7.03236 27.3616 5.02289 28.6978C4.07353 28.7797 2.27964 26.4809 1.81485 25.7052C1.19382 24.6682 0.679581 23.435 0.792317 22.2265C2.58225 23.3111 4.20802 25.1505 4.7361 27.1672L4.73413 27.1652Z" fill="url(#paint13_linear_937_34676)" style=""/>
<path d="M5.12782 21.6565C5.59063 21.7595 5.44625 21.5803 5.57085 21.4145C6.09893 20.7073 6.45494 19.9582 7.09378 19.2777C7.78008 18.5457 8.59495 17.9892 9.46321 17.4783C9.60364 19.2415 8.055 21.2448 6.7081 22.3275C6.29276 22.6611 5.44427 23.3454 4.93201 23.0899C3.23899 21.504 2.38457 19.1767 2.56455 16.9084C4.05979 17.9625 5.04277 19.8876 5.12584 21.6584L5.12782 21.6565Z" fill="url(#paint14_linear_937_34676)" style=""/>
<path d="M50.2422 23.1471C49.6153 23.5722 47.7383 21.8433 47.317 21.3687C46.4231 20.3661 45.5212 18.8183 45.5409 17.4764C45.7427 17.2381 48.1616 19.4626 48.4029 19.7523C48.8222 20.2536 49.0971 20.8617 49.4412 21.4106C49.5619 21.6032 49.4056 21.748 49.8763 21.6584C50.0959 19.9486 50.9978 17.972 52.4376 16.9065C52.5879 18.5076 52.2379 20.1259 51.4151 21.525C51.063 22.1254 50.529 22.5333 50.2403 23.1471H50.2422Z" fill="url(#paint15_linear_937_34676)" style=""/>
<path d="M44.1602 14.2455C44.4629 13.9596 48.4897 16.0258 48.5945 16.9045C49.0989 16.5729 48.6638 16.1592 48.6796 15.6751C48.6954 15.1909 49.3461 12.3584 49.7773 12.347C50.7385 13.2257 50.2658 17.463 49.2868 17.9548C48.8279 18.1854 47.7203 17.6918 47.2457 17.4421C46.0214 16.7978 44.5697 15.5512 44.1583 14.2436L44.1602 14.2455Z" fill="url(#paint16_linear_937_34676)" style=""/>
<path d="M5.51956 12.3451C6.03775 13.8395 6.46496 15.3053 6.31069 16.9046C7.61408 15.7094 9.0124 14.5924 10.8439 14.2455C10.4641 15.7323 8.75528 17.017 7.36883 17.6422C6.24938 18.1455 5.83403 18.3952 5.28815 17.2248C4.74227 16.0544 4.54053 14.1292 4.9895 12.8731C5.11213 12.5319 5.01719 12.2365 5.51758 12.3451H5.51956Z" fill="url(#paint17_linear_937_34676)" style=""/>
<path d="M44.7397 11.5731C42.9735 12.1107 40.8751 12.2841 39.2315 11.3006C40.5151 10.4333 42.1132 10.763 43.5669 10.824C43.5412 10.3551 43.0982 10.1264 42.8687 9.69369C42.4969 8.99224 42.2892 8.30985 42.1389 7.54549C42.1092 7.39872 41.7928 7.0518 42.2833 7.21573C43.5827 7.64842 44.7892 10.2903 44.7397 11.5731Z" fill="url(#paint18_linear_937_34676)" style=""/>
<path d="M47.6867 14.034C46.3952 14.5277 44.5004 14.0511 43.3058 13.4545C43.1456 13.3744 42.1092 12.7759 42.3861 12.5377C42.9993 12.5643 43.6282 12.4843 44.2413 12.5529C45.1096 12.6501 45.8948 13.0771 46.7215 13.2963C46.3774 12.124 45.9126 11.0299 45.9304 9.78331C45.9344 9.49358 45.7959 9.23054 46.2271 9.30869C47.3801 10.6029 47.8786 12.3432 47.6847 14.0359L47.6867 14.034Z" fill="url(#paint19_linear_937_34676)" style=""/>
<path d="M9.06773 9.30485C9.10729 10.2617 9.0618 11.2339 8.77501 12.1583C8.65239 12.551 8.25089 12.8579 8.28056 13.2944C9.10729 13.0771 9.89446 12.6463 10.7608 12.551C11.4016 12.4805 12.1848 12.4862 12.8137 12.6291C12.2026 13.6718 8.28451 14.7354 7.53689 14.013C7.08199 13.1381 7.49932 11.7752 7.85137 10.885C7.93246 10.683 8.7315 8.94269 9.06971 9.30485H9.06773Z" fill="url(#paint20_linear_937_34676)" style=""/>
<path d="M13.0115 7.21575C12.9463 8.1974 12.4795 9.09709 11.9969 9.94151C11.7892 10.3037 11.2948 10.4695 11.4372 11.0147C12.8058 10.5534 14.5265 10.5248 15.7706 11.3006C14.2398 12.2841 12.1413 12.1088 10.472 11.5655C10.2703 9.99869 11.1445 8.59197 12.3232 7.59507C12.5448 7.40827 12.6476 7.1395 13.0135 7.21575H13.0115Z" fill="url(#paint21_linear_937_34676)" style=""/>
<path d="M41.5674 9.65945C40.2244 10.4619 38.8538 10.7898 37.2597 10.6335C38.0805 9.71472 39.3898 9.28966 40.6101 9.30491C40.7387 8.82266 40.3253 8.93131 40.0128 8.65111C39.368 8.07165 38.747 7.46169 38.4404 6.64587C39.4313 6.40569 42.0658 8.96371 41.5654 9.65945H41.5674Z" fill="url(#paint22_linear_937_34676)" style=""/>
<path d="M16.5598 6.64579C16.2532 7.46161 15.6341 8.06966 14.9874 8.65103C14.6769 8.93123 14.2615 8.82258 14.3921 9.30483C15.555 9.2343 17.0305 9.72799 17.7425 10.6334C16.178 10.7668 14.5226 10.5247 13.4269 9.37536C13.2904 8.75205 15.6341 6.42277 16.5598 6.64579Z" fill="url(#paint23_linear_937_34676)" style=""/>
<path d="M19.3206 6.45521C18.8994 7.4464 17.8472 7.78569 17.153 8.54242C18.1458 8.79784 19.3562 9.17716 19.912 10.0635C18.9271 10.1741 18.0904 9.97392 17.2439 9.5012C16.613 9.14856 15.9583 8.82262 16.3915 8.1002C16.8899 7.26722 18.2882 6.37134 19.3206 6.45712V6.45521Z" fill="url(#paint24_linear_937_34676)" style=""/>
<path d="M35.0919 10.0635C35.6496 9.1791 36.8581 8.79788 37.851 8.54246C37.582 8.17648 35.44 6.74689 35.8811 6.26464C37.1449 6.5963 38.0191 7.32063 38.8181 8.29275C39.0396 9.01708 36.9748 9.96633 36.3656 10.0578C35.9582 10.1188 35.5072 10.0407 35.0919 10.0635Z" fill="url(#paint25_linear_937_34676)" style=""/>
<path d="M33.1341 29.2206V27.3531H32.2453V25.9345H33.1701V25.0995L35.1902 24.1837V25.9345H37.3719V27.3531H35.1902V28.5742C35.1902 29.4002 35.7199 29.7503 36.5998 29.7503C36.9051 29.7503 37.2552 29.7144 37.6233 29.5977L37.4079 30.9355C36.9051 31.124 36.2945 31.2228 35.7199 31.2228C34.1936 31.2228 33.1341 30.5135 33.1341 29.2206Z" fill="white" style="fill:white;fill-opacity:1;"/>
<path d="M26.0687 27.4249C26.0687 26.2128 27.1461 25.719 29.0136 25.719C30.118 25.719 30.8721 25.8986 31.4647 26.0961L31.5545 27.389C30.8632 27.1376 30.0372 26.985 29.1214 26.985C28.3582 26.985 27.9901 27.1017 27.9901 27.3621C27.9901 28.1791 31.8328 27.2005 31.8328 29.4989C31.8328 30.6482 30.8721 31.2408 28.9238 31.2408C27.8913 31.2408 26.9127 31.0612 26.1944 30.729L26.1136 29.3822C26.9845 29.7773 27.8464 29.9658 28.6904 29.9658C29.3548 29.9658 29.8037 29.8401 29.8037 29.5079C29.8037 28.5652 26.0687 29.6516 26.0687 27.4249Z" fill="white" style="fill:white;fill-opacity:1;"/>
<path d="M17.7358 23.4879C20.2138 23.3398 21.5875 22.4509 22.0993 20.9156H24.8332V31.0163H21.6683V24.2421C20.9411 25.2791 19.6213 25.9929 17.7358 25.9929V23.4879Z" fill="white" style="fill:white;fill-opacity:1;"/>
<defs>
<linearGradient id="paint0_linear_937_34676" x1="12.6496" y1="11.8709" x2="50.0051" y2="57.8148" gradientUnits="userSpaceOnUse">
<stop stop-color="#F5C150" style="stop-color:#F5C150;stop-color:color(display-p3 0.9608 0.7569 0.3137);stop-opacity:1;"/>
<stop offset="1" stop-color="#FFB006" style="stop-color:#FFB006;stop-color:color(display-p3 1.0000 0.6921 0.0229);stop-opacity:1;"/>
</linearGradient>
<linearGradient id="paint1_linear_937_34676" x1="12.6496" y1="11.8709" x2="50.0051" y2="57.8148" gradientUnits="userSpaceOnUse">
<stop stop-color="#FFB006" style="stop-color:#FFB006;stop-color:color(display-p3 1.0000 0.6921 0.0229);stop-opacity:1;"/>
<stop offset="1" stop-color="#F5C150" style="stop-color:#F5C150;stop-color:color(display-p3 0.9608 0.7569 0.3137);stop-opacity:1;"/>
</linearGradient>
<linearGradient id="paint2_linear_937_34676" x1="12.6496" y1="11.8709" x2="50.0051" y2="57.8148" gradientUnits="userSpaceOnUse">
<stop stop-color="#FFB006" style="stop-color:#FFB006;stop-color:color(display-p3 1.0000 0.6921 0.0229);stop-opacity:1;"/>
<stop offset="1" stop-color="#F5C150" style="stop-color:#F5C150;stop-color:color(display-p3 0.9608 0.7569 0.3137);stop-opacity:1;"/>
</linearGradient>
<linearGradient id="paint3_linear_937_34676" x1="12.6496" y1="11.8709" x2="50.0051" y2="57.8148" gradientUnits="userSpaceOnUse">
<stop stop-color="#FFB006" style="stop-color:#FFB006;stop-color:color(display-p3 1.0000 0.6921 0.0229);stop-opacity:1;"/>
<stop offset="1" stop-color="#F5C150" style="stop-color:#F5C150;stop-color:color(display-p3 0.9608 0.7569 0.3137);stop-opacity:1;"/>
</linearGradient>
<linearGradient id="paint4_linear_937_34676" x1="12.6496" y1="11.8709" x2="50.0051" y2="57.8148" gradientUnits="userSpaceOnUse">
<stop stop-color="#FFB006" style="stop-color:#FFB006;stop-color:color(display-p3 1.0000 0.6921 0.0229);stop-opacity:1;"/>
<stop offset="1" stop-color="#F5C150" style="stop-color:#F5C150;stop-color:color(display-p3 0.9608 0.7569 0.3137);stop-opacity:1;"/>
</linearGradient>
<linearGradient id="paint5_linear_937_34676" x1="12.6496" y1="11.8709" x2="50.0051" y2="57.8148" gradientUnits="userSpaceOnUse">
<stop stop-color="#FFB006" style="stop-color:#FFB006;stop-color:color(display-p3 1.0000 0.6921 0.0229);stop-opacity:1;"/>
<stop offset="1" stop-color="#F5C150" style="stop-color:#F5C150;stop-color:color(display-p3 0.9608 0.7569 0.3137);stop-opacity:1;"/>
</linearGradient>
<linearGradient id="paint6_linear_937_34676" x1="12.6496" y1="11.8709" x2="50.0051" y2="57.8148" gradientUnits="userSpaceOnUse">
<stop stop-color="#FFB006" style="stop-color:#FFB006;stop-color:color(display-p3 1.0000 0.6921 0.0229);stop-opacity:1;"/>
<stop offset="1" stop-color="#F5C150" style="stop-color:#F5C150;stop-color:color(display-p3 0.9608 0.7569 0.3137);stop-opacity:1;"/>
</linearGradient>
<linearGradient id="paint7_linear_937_34676" x1="12.6496" y1="11.8709" x2="50.0051" y2="57.8148" gradientUnits="userSpaceOnUse">
<stop stop-color="#FFB006" style="stop-color:#FFB006;stop-color:color(display-p3 1.0000 0.6921 0.0229);stop-opacity:1;"/>
<stop offset="1" stop-color="#F5C150" style="stop-color:#F5C150;stop-color:color(display-p3 0.9608 0.7569 0.3137);stop-opacity:1;"/>
</linearGradient>
<linearGradient id="paint8_linear_937_34676" x1="12.6496" y1="11.8709" x2="50.0051" y2="57.8148" gradientUnits="userSpaceOnUse">
<stop stop-color="#FFB006" style="stop-color:#FFB006;stop-color:color(display-p3 1.0000 0.6921 0.0229);stop-opacity:1;"/>
<stop offset="1" stop-color="#F5C150" style="stop-color:#F5C150;stop-color:color(display-p3 0.9608 0.7569 0.3137);stop-opacity:1;"/>
</linearGradient>
<linearGradient id="paint9_linear_937_34676" x1="12.6496" y1="11.8709" x2="50.0051" y2="57.8148" gradientUnits="userSpaceOnUse">
<stop stop-color="#FFB006" style="stop-color:#FFB006;stop-color:color(display-p3 1.0000 0.6921 0.0229);stop-opacity:1;"/>
<stop offset="1" stop-color="#F5C150" style="stop-color:#F5C150;stop-color:color(display-p3 0.9608 0.7569 0.3137);stop-opacity:1;"/>
</linearGradient>
<linearGradient id="paint10_linear_937_34676" x1="12.6496" y1="11.8709" x2="50.0051" y2="57.8148" gradientUnits="userSpaceOnUse">
<stop stop-color="#FFB006" style="stop-color:#FFB006;stop-color:color(display-p3 1.0000 0.6921 0.0229);stop-opacity:1;"/>
<stop offset="1" stop-color="#F5C150" style="stop-color:#F5C150;stop-color:color(display-p3 0.9608 0.7569 0.3137);stop-opacity:1;"/>
</linearGradient>
<linearGradient id="paint11_linear_937_34676" x1="12.6496" y1="11.8709" x2="50.0051" y2="57.8148" gradientUnits="userSpaceOnUse">
<stop stop-color="#FFB006" style="stop-color:#FFB006;stop-color:color(display-p3 1.0000 0.6921 0.0229);stop-opacity:1;"/>
<stop offset="1" stop-color="#F5C150" style="stop-color:#F5C150;stop-color:color(display-p3 0.9608 0.7569 0.3137);stop-opacity:1;"/>
</linearGradient>
<linearGradient id="paint12_linear_937_34676" x1="12.6496" y1="11.8709" x2="50.0051" y2="57.8148" gradientUnits="userSpaceOnUse">
<stop stop-color="#FFB006" style="stop-color:#FFB006;stop-color:color(display-p3 1.0000 0.6921 0.0229);stop-opacity:1;"/>
<stop offset="1" stop-color="#F5C150" style="stop-color:#F5C150;stop-color:color(display-p3 0.9608 0.7569 0.3137);stop-opacity:1;"/>
</linearGradient>
<linearGradient id="paint13_linear_937_34676" x1="12.6496" y1="11.8709" x2="50.0051" y2="57.8148" gradientUnits="userSpaceOnUse">
<stop stop-color="#FFB006" style="stop-color:#FFB006;stop-color:color(display-p3 1.0000 0.6921 0.0229);stop-opacity:1;"/>
<stop offset="1" stop-color="#F5C150" style="stop-color:#F5C150;stop-color:color(display-p3 0.9608 0.7569 0.3137);stop-opacity:1;"/>
</linearGradient>
<linearGradient id="paint14_linear_937_34676" x1="12.6496" y1="11.8709" x2="50.0051" y2="57.8148" gradientUnits="userSpaceOnUse">
<stop stop-color="#FFB006" style="stop-color:#FFB006;stop-color:color(display-p3 1.0000 0.6921 0.0229);stop-opacity:1;"/>
<stop offset="1" stop-color="#F5C150" style="stop-color:#F5C150;stop-color:color(display-p3 0.9608 0.7569 0.3137);stop-opacity:1;"/>
</linearGradient>
<linearGradient id="paint15_linear_937_34676" x1="12.6496" y1="11.8709" x2="50.0051" y2="57.8148" gradientUnits="userSpaceOnUse">
<stop stop-color="#FFB006" style="stop-color:#FFB006;stop-color:color(display-p3 1.0000 0.6921 0.0229);stop-opacity:1;"/>
<stop offset="1" stop-color="#F5C150" style="stop-color:#F5C150;stop-color:color(display-p3 0.9608 0.7569 0.3137);stop-opacity:1;"/>
</linearGradient>
<linearGradient id="paint16_linear_937_34676" x1="12.6496" y1="11.8709" x2="50.0051" y2="57.8148" gradientUnits="userSpaceOnUse">
<stop stop-color="#FFB006" style="stop-color:#FFB006;stop-color:color(display-p3 1.0000 0.6921 0.0229);stop-opacity:1;"/>
<stop offset="1" stop-color="#F5C150" style="stop-color:#F5C150;stop-color:color(display-p3 0.9608 0.7569 0.3137);stop-opacity:1;"/>
</linearGradient>
<linearGradient id="paint17_linear_937_34676" x1="12.6496" y1="11.8709" x2="50.0051" y2="57.8148" gradientUnits="userSpaceOnUse">
<stop stop-color="#FFB006" style="stop-color:#FFB006;stop-color:color(display-p3 1.0000 0.6921 0.0229);stop-opacity:1;"/>
<stop offset="1" stop-color="#F5C150" style="stop-color:#F5C150;stop-color:color(display-p3 0.9608 0.7569 0.3137);stop-opacity:1;"/>
</linearGradient>
<linearGradient id="paint18_linear_937_34676" x1="12.6496" y1="11.8709" x2="50.0051" y2="57.8148" gradientUnits="userSpaceOnUse">
<stop stop-color="#FFB006" style="stop-color:#FFB006;stop-color:color(display-p3 1.0000 0.6921 0.0229);stop-opacity:1;"/>
<stop offset="1" stop-color="#F5C150" style="stop-color:#F5C150;stop-color:color(display-p3 0.9608 0.7569 0.3137);stop-opacity:1;"/>
</linearGradient>
<linearGradient id="paint19_linear_937_34676" x1="12.6496" y1="11.8709" x2="50.0051" y2="57.8148" gradientUnits="userSpaceOnUse">
<stop stop-color="#FFB006" style="stop-color:#FFB006;stop-color:color(display-p3 1.0000 0.6921 0.0229);stop-opacity:1;"/>
<stop offset="1" stop-color="#F5C150" style="stop-color:#F5C150;stop-color:color(display-p3 0.9608 0.7569 0.3137);stop-opacity:1;"/>
</linearGradient>
<linearGradient id="paint20_linear_937_34676" x1="12.6496" y1="11.8709" x2="50.0051" y2="57.8148" gradientUnits="userSpaceOnUse">
<stop stop-color="#FFB006" style="stop-color:#FFB006;stop-color:color(display-p3 1.0000 0.6921 0.0229);stop-opacity:1;"/>
<stop offset="1" stop-color="#F5C150" style="stop-color:#F5C150;stop-color:color(display-p3 0.9608 0.7569 0.3137);stop-opacity:1;"/>
</linearGradient>
<linearGradient id="paint21_linear_937_34676" x1="12.6496" y1="11.8709" x2="50.0051" y2="57.8148" gradientUnits="userSpaceOnUse">
<stop stop-color="#FFB006" style="stop-color:#FFB006;stop-color:color(display-p3 1.0000 0.6921 0.0229);stop-opacity:1;"/>
<stop offset="1" stop-color="#F5C150" style="stop-color:#F5C150;stop-color:color(display-p3 0.9608 0.7569 0.3137);stop-opacity:1;"/>
</linearGradient>
<linearGradient id="paint22_linear_937_34676" x1="12.6496" y1="11.8709" x2="50.0051" y2="57.8148" gradientUnits="userSpaceOnUse">
<stop stop-color="#FFB006" style="stop-color:#FFB006;stop-color:color(display-p3 1.0000 0.6921 0.0229);stop-opacity:1;"/>
<stop offset="1" stop-color="#F5C150" style="stop-color:#F5C150;stop-color:color(display-p3 0.9608 0.7569 0.3137);stop-opacity:1;"/>
</linearGradient>
<linearGradient id="paint23_linear_937_34676" x1="12.6496" y1="11.8709" x2="50.0051" y2="57.8148" gradientUnits="userSpaceOnUse">
<stop stop-color="#FFB006" style="stop-color:#FFB006;stop-color:color(display-p3 1.0000 0.6921 0.0229);stop-opacity:1;"/>
<stop offset="1" stop-color="#F5C150" style="stop-color:#F5C150;stop-color:color(display-p3 0.9608 0.7569 0.3137);stop-opacity:1;"/>
</linearGradient>
<linearGradient id="paint24_linear_937_34676" x1="12.6496" y1="11.8709" x2="50.0051" y2="57.8148" gradientUnits="userSpaceOnUse">
<stop stop-color="#FFB006" style="stop-color:#FFB006;stop-color:color(display-p3 1.0000 0.6921 0.0229);stop-opacity:1;"/>
<stop offset="1" stop-color="#F5C150" style="stop-color:#F5C150;stop-color:color(display-p3 0.9608 0.7569 0.3137);stop-opacity:1;"/>
</linearGradient>
<linearGradient id="paint25_linear_937_34676" x1="12.6496" y1="11.8709" x2="50.0051" y2="57.8148" gradientUnits="userSpaceOnUse">
<stop stop-color="#FFB006" style="stop-color:#FFB006;stop-color:color(display-p3 1.0000 0.6921 0.0229);stop-opacity:1;"/>
<stop offset="1" stop-color="#F5C150" style="stop-color:#F5C150;stop-color:color(display-p3 0.9608 0.7569 0.3137);stop-opacity:1;"/>
</linearGradient>
</defs>
</svg>

