<svg width="46" height="41" viewBox="0 0 46 41" fill="none" xmlns="http://www.w3.org/2000/svg">
<path d="M10.5092 35.3888C10.6225 35.3974 10.966 35.7591 11.1068 35.4749C10.6826 35.1254 9.82904 34.1335 9.3928 33.9338C8.89645 33.7047 8.03942 33.9079 7.44517 33.827C5.72597 33.5911 4.03425 32.6509 2.8904 31.3559C4.13901 31.1252 5.50613 31.4489 6.70322 31.8243C6.85779 31.8725 8.11327 32.6457 7.85393 32.0447C7.81958 31.9655 6.89558 30.7188 6.82172 30.6758C6.38377 30.4157 5.11283 30.3486 4.3142 29.9284C3.73369 29.6236 2.03509 28.1565 1.86506 27.5779C1.78949 27.3196 1.88052 27.2938 2.11582 27.3248C2.51599 27.3782 3.63751 27.7914 4.03425 27.9791C4.52201 28.2116 5.23992 28.9038 5.54563 29.0382C5.75517 29.1311 5.86337 29.002 5.7981 28.785C5.75688 28.6473 5.10939 27.373 5.04069 27.3127C4.74013 27.051 3.76632 26.8564 3.17722 26.4345C2.07288 25.6459 1.13685 24.3923 0.66626 23.1163C1.07674 23.0043 1.67442 23.4417 2.02136 23.6466C2.93849 24.1873 3.63923 24.9106 4.42927 25.6063L4.00505 23.545C2.27554 22.8356 0.853466 20.9483 0.920447 19.0851L1.78262 19.7653L3.74571 22.1709C3.70964 21.5562 3.84189 20.8674 3.67358 20.2681C3.57568 19.9185 3.00547 19.6878 2.72381 19.3365C1.88911 18.2964 1.39791 16.9085 1.52157 15.5654L2.44901 16.3523L3.74571 18.5668C3.60659 18.0054 4.03768 17.3063 3.8917 16.8035C3.823 16.5676 3.15318 15.9804 2.93677 15.5172C2.47477 14.5253 2.32535 13.2717 2.55034 12.2178C3.4108 12.9841 3.67358 14.1206 3.92261 15.221C3.98272 15.4862 3.8041 15.5206 4.26096 15.4793L4.7762 13.4198C4.19569 13.6282 3.86422 12.5433 3.78865 12.0904C3.64266 11.2225 3.75601 10.3202 3.92089 9.47129C4.30904 9.40069 4.19397 9.49195 4.30217 9.68998C4.71609 10.4442 4.89471 11.703 4.7762 12.5588C5.18324 12.7913 5.45117 11.7753 5.46319 11.5325C5.84448 11.4929 5.38762 12.1696 5.88569 12.0422C6.52632 11.8786 7.50185 11.071 8.37261 11.1898C7.91576 11.7753 7.30434 12.452 6.64998 12.8068C5.42541 13.4715 4.7075 13.0255 4.60789 14.9627L7.2614 13.4198C7.50528 14.0724 6.2395 15.264 5.7191 15.6498C4.60102 16.4763 3.70277 16.1664 4.17852 18.2224C4.88955 17.2805 5.85478 16.3575 7.00378 15.9942C7.22877 16.2335 6.02996 18.169 5.78093 18.4566C4.98917 19.3675 3.14287 19.6844 4.18023 21.1377C4.90329 20.3077 5.43228 19.2074 6.49025 18.739C6.57269 19.6293 6.14847 20.6934 5.66929 21.4322C4.77277 22.8166 3.63579 22.7323 4.69376 24.9157C5.40136 23.6794 5.75688 22.1502 7.00378 21.3134C7.0948 22.6307 6.85951 24.0909 6.24465 25.2687C5.57827 26.5447 4.60617 26.7824 6.14847 28.3476C6.28587 27.0234 6.5538 25.3893 7.51731 24.4009C8.01709 26.1745 7.90889 28.2598 6.86981 29.8354L8.03083 31.6074C7.77493 30.018 8.01709 28.4544 8.37605 26.8926C8.4104 26.7049 8.60276 26.7824 8.72126 26.884C9.1575 27.2628 9.7466 29.8785 9.75004 30.5001C9.75347 31.1596 9.1472 32.9488 9.31036 33.3173C9.42028 33.5635 11.1189 35.0289 11.2855 34.8671C10.6071 33.3397 10.1279 31.3129 10.2584 29.6322C10.2773 29.3774 10.1227 29.1363 10.5126 29.2086C12.2593 30.9995 13.2537 33.629 12.8467 36.1258C12.9239 36.3549 13.501 36.6424 13.738 36.7854C13.8789 36.8715 15.4607 37.8065 15.2202 37.1883C15.0055 36.6407 14.2275 35.7246 13.8926 34.9153C13.5577 34.106 13.2451 33.1503 13.1197 32.2565C13.1026 32.1291 12.8226 31.8071 13.2503 31.9552C13.5216 32.0499 14.3666 32.7421 14.6277 32.9781C16.2524 34.4469 17.1902 36.3273 17.5629 38.4815C21.2555 39.6301 25.3001 39.6593 28.9876 38.4936C29.2899 36.4806 30.2534 34.5519 31.739 33.1503C31.9571 32.9436 33.0992 32.0275 33.2864 31.9552C33.6609 31.8106 33.5046 32.1308 33.4737 32.3151C33.1645 34.1628 32.1289 36.0535 31.143 37.6153L33.6832 36.3893C33.2761 33.7151 34.1967 31.1717 36.0224 29.2121C36.4037 29.2069 36.2783 30.6913 36.2577 30.9892C36.1529 32.4012 35.7167 33.7254 35.253 35.0427L37.1456 33.5928C37.484 33.0125 36.7867 31.5092 36.7781 30.6654C36.7661 29.4411 37.2865 27.8672 37.9048 26.8082C38.0782 26.8065 38.5042 28.2667 38.5042 28.4355V31.7813C38.8339 31.6074 39.6858 30.4433 39.6944 30.1523C39.7047 29.8389 39.1001 28.9521 38.9627 28.4888C38.712 27.6382 38.5213 25.5064 38.9284 24.7418C39.198 24.2338 39.7717 25.7475 39.8318 25.9007C40.177 26.7806 40.4449 27.7381 40.3882 28.6903C40.7541 28.4665 41.3775 27.2146 41.381 26.8547C41.3844 26.5137 40.7936 26.1711 40.5858 25.8301C39.7854 24.518 39.4179 23.025 39.5312 21.4838C39.7974 21.1825 40.7627 22.7874 40.8657 22.9751C41.2676 23.6983 41.5716 24.4508 41.7571 25.2567L42.4338 23.2695L42.3616 23.0302C40.7953 22.1003 40.2079 20.4369 39.8713 18.739C40.1152 18.4979 41.6575 20.2337 41.8292 20.4644C42.0662 20.783 42.2998 21.2755 42.4424 21.6526L42.7893 20.1941C42.2998 19.4484 41.3861 19.2091 40.7317 18.4755C40.4844 18.1983 40.0018 17.4716 39.8421 17.1358C38.9885 15.3415 40.0087 16.0785 40.8846 16.7777C41.5372 17.2977 42.0267 17.9813 42.609 18.5651C43.0349 16.0768 41.8052 16.5814 40.4758 15.4724C40.1134 15.1693 39.32 14.2584 39.1894 13.8434C39.1173 13.6144 39.1997 13.53 39.4316 13.6006L42.0971 15.1332L41.7262 13.4473C40.3144 13.2355 38.8442 12.4916 38.1607 11.1881C39.2152 11.4223 40.3041 11.6909 41.1577 12.3866L41.2435 12.0457L41.5819 12.3866L42.2706 9.46957C42.7172 9.41963 42.5403 9.47646 42.6158 9.72098C42.8202 10.3839 42.8597 11.4051 42.7412 12.0887C42.5677 13.0961 41.4582 14.112 42.609 15.1332C42.7326 14.0466 43.2599 13.0788 43.8953 12.2178C44.268 13.2476 44.0413 14.6768 43.5536 15.6498C43.0658 16.6227 42.384 16.7243 42.9542 18.2207L43.7373 16.8638L45.0048 15.4758C45.0735 16.3523 44.9069 17.2374 44.5772 18.0485C43.9881 19.4967 42.5231 20.0167 42.9542 21.8248L45.6077 19.0799C45.7228 20.6056 44.6579 22.0349 43.5536 23.0267C43.308 23.2471 42.8546 23.3195 42.7017 23.5468C42.4887 23.8636 42.4389 24.8296 42.2689 25.2567C42.4011 25.3979 43.8438 24.0754 44.0963 23.9153C45.1697 23.2351 46.2964 22.5738 45.2504 24.3854C44.7472 25.2567 44.0345 26.0695 43.1792 26.5998C41.9889 27.3368 41.4273 27.113 40.9001 28.7764C40.9979 29.0123 41.2212 28.7971 41.3603 28.723C42.408 28.1668 43.3526 27.4815 44.5772 27.3145C44.8142 27.4092 44.6064 27.6399 44.5291 27.7811C43.873 28.9899 42.1899 30.0627 40.9086 30.5018C40.5858 30.6121 40.1615 30.5036 39.873 30.6654C39.7888 30.7119 38.7652 32.2187 38.8459 32.2927C40.1323 31.7468 41.6214 31.2664 43.0349 31.2578C43.2925 31.2578 43.5381 31.1476 43.466 31.5195C42.3943 32.7301 40.8709 33.598 39.2547 33.8201C38.6313 33.9062 37.8773 33.703 37.3105 33.932C36.8021 34.1369 36.0413 35.0892 35.593 35.4698C37.3844 35.3234 39.1362 35.3268 40.8983 35.7281C40.9722 36.0811 40.7232 36.1258 40.5033 36.2739C38.6003 37.574 35.5982 37.6119 33.4685 36.93L30.9713 38.2163C32.9824 38.4006 35.4505 38.7691 36.9619 40.1863C35.0194 40.6305 32.6973 40.8148 30.8012 40.1002C30.2293 39.8849 29.0511 39.0222 28.6527 38.9929C27.8575 38.9361 25.7862 39.6008 24.7196 39.6714C24.0326 39.7162 23.179 39.711 22.4869 39.6817C21.1902 39.6249 18.8166 38.9137 17.8703 38.9723C17.3087 39.0067 16.6148 39.6955 16.0755 39.9297C14.2773 40.7115 11.6856 40.739 9.81874 40.1914C9.5697 40.1191 9.51989 40.2896 9.5697 39.8453C11.0536 39.2013 12.3211 38.559 13.9562 38.3196C14.1451 38.2921 16.0824 38.4298 15.562 37.958C14.7325 38.0596 13.6882 36.8594 13.0528 36.7991C12.7196 36.7681 11.6341 37.2245 11.0313 37.2761C9.13518 37.4397 6.96256 37.0109 5.46148 35.8107C5.87024 35.8297 6.58986 35.3819 6.91619 35.3819C8.07721 35.3819 9.37219 35.301 10.5109 35.3819L10.5092 35.3888Z" fill="url(#paint0_linear_937_34666)" style=""/>
<path d="M40.8949 11.1916C40.6115 11.2639 40.8245 10.9023 40.6115 10.8489C39.3835 10.5372 37.9117 10.7025 37.1302 9.30601C38.1401 9.23541 39.15 9.52125 40.0379 9.98963L40.639 7.07604C41.5338 8.37097 41.2109 9.77611 40.8932 11.1899L40.8949 11.1916Z" fill="url(#paint1_linear_937_34666)" style=""/>
<path d="M6.14334 9.98958L6.65858 9.30596L6.82862 9.82083C7.60492 9.36623 8.50831 9.24397 9.39454 9.30596C9.00638 9.96892 8.06177 10.3925 7.35073 10.6026C6.9746 10.7128 6.54008 10.6026 6.24811 10.7008C5.93896 10.8024 6.09181 11.2242 5.80156 11.1915C5.08021 9.73473 5.1472 8.37436 5.80156 6.90379L6.31509 8.71187L6.14162 9.98958H6.14334Z" fill="url(#paint2_linear_937_34666)" style=""/>
<path d="M7.68555 7.75962C8.11664 7.95765 7.98955 7.43072 8.10119 7.43588L10.7667 7.41866C9.96981 8.63266 8.42751 8.21078 7.45198 8.44152C7.25103 8.48974 7.45541 8.86168 7.17374 8.78764C6.83368 7.45827 6.91097 6.12546 7.77143 5.01478C8.2008 5.93776 7.90711 6.82975 7.68555 7.75789V7.75962Z" fill="url(#paint3_linear_937_34666)" style=""/>
<path d="M39.3543 8.62066C38.116 8.28315 36.5943 8.66544 35.7613 7.42044L38.6707 7.75967C38.6776 6.90729 38.2396 5.96881 38.7566 5.18875C39.5621 6.15306 39.7321 7.43766 39.3543 8.62066Z" fill="url(#paint4_linear_937_34666)" style=""/>
<path d="M9.39789 5.87237C10.2017 5.72428 11.0037 5.68639 11.7921 5.95847C10.9677 6.67653 9.89081 6.59388 8.89295 6.37863C8.80536 5.43671 8.84143 4.3708 9.73796 3.81288L9.39789 5.87065V5.87237Z" fill="url(#paint5_linear_937_34666)" style=""/>
<path d="M37.6248 6.37003C36.7128 6.62488 35.3062 6.76953 34.7343 5.87582H36.9601L36.8742 3.81633C37.5458 4.52234 37.7725 5.41089 37.6265 6.37175L37.6248 6.37003Z" fill="url(#paint6_linear_937_34666)" style=""/>
<path d="M35.9159 4.82883L33.7072 5.01309C33.6334 4.56709 33.7742 4.70485 34.0765 4.6222C34.5316 4.49649 34.949 4.46722 35.4178 4.49821L34.9043 2.95704C35.5535 2.85889 36.1649 4.53093 35.9159 4.82883Z" fill="url(#paint7_linear_937_34666)" style=""/>
<path d="M11.1086 4.4999C11.2185 4.59633 12.6784 4.29154 12.8192 4.84257C12.0515 5.17319 11.38 4.93384 10.6037 4.8374C10.5693 4.49645 10.5625 4.13484 10.6707 3.80422C10.7462 3.57519 11.2185 2.95356 11.4487 2.78653L11.1086 4.4999Z" fill="url(#paint8_linear_937_34666)" style=""/>
<path d="M34.5643 3.81287C33.7571 3.90758 33.1646 4.39146 32.3385 3.98507C32.603 3.58729 33.4806 3.45815 33.8756 3.64412L33.3638 2.10122C33.9546 1.94625 34.6399 3.73711 34.5626 3.81287H34.5643Z" fill="url(#paint9_linear_937_34666)" style=""/>
<path d="M12.6492 3.47019C12.7316 3.55112 14.0936 3.46847 14.1898 3.98506L12.1511 3.80081C12.0086 3.08446 12.3692 2.44044 12.9892 2.09949L12.6475 3.47191L12.6492 3.47019Z" fill="url(#paint10_linear_937_34666)" style=""/>
<path d="M14.018 2.6126C14.1245 2.71592 15.3868 2.51789 15.2151 3.12747C13.5337 3.33755 12.9068 2.48345 14.3581 1.41238L14.018 2.6126Z" fill="url(#paint11_linear_937_34666)" style=""/>
<path d="M31.1395 3.12578L32.5084 2.6109C32.5101 2.44043 31.696 1.36763 32.249 1.4124L32.9481 2.78999C32.4466 3.24459 31.763 3.1275 31.1395 3.12405V3.12578Z" fill="url(#paint12_linear_937_34666)" style=""/>
<path d="M15.3885 1.92384L16.5856 2.18214C15.1051 2.93637 14.449 1.55706 15.9003 0.725342L15.3885 1.92384Z" fill="url(#paint13_linear_937_34666)" style=""/>
<path d="M29.9408 2.43869C30.0129 1.93415 30.894 2.16489 30.9696 2.09602C30.207 0.122625 31.265 0.820027 31.4109 2.09946C31.0022 2.48002 30.4681 2.46796 29.9425 2.43869H29.9408Z" fill="url(#paint14_linear_937_34666)" style=""/>
<path d="M30.5273 18.3613C31.4478 18.3613 32.2149 18.7584 32.63 19.5345V16.4843H34.7507V23.6496H32.63V22.6479C32.1517 23.4511 31.4749 23.8572 30.5544 23.8572C29.0563 23.8572 28.0366 22.7201 28.0366 21.1228C28.0366 19.5074 29.0112 18.3613 30.5273 18.3613ZM31.4027 19.6969C30.6897 19.6969 30.2746 20.2204 30.2746 21.0777C30.2746 21.926 30.6897 22.4404 31.4027 22.4404C32.0795 22.4404 32.5397 21.935 32.5397 21.1138V21.0326C32.5397 20.2023 32.1066 19.6969 31.4027 19.6969Z" fill="white" style="fill:white;fill-opacity:1;"/>
<path d="M21.2368 23.6496V18.5418H23.2583V19.8865C23.6373 18.8577 24.4315 18.3884 25.4422 18.3884C26.6695 18.3884 27.3463 19.0833 27.3463 20.4279V23.6496H25.2256V20.825C25.2256 20.2565 24.9007 19.9496 24.3863 19.9496C23.9622 19.9496 23.5922 20.1572 23.3576 20.6084V23.6496H21.2368Z" fill="white" style="fill:white;fill-opacity:1;"/>
<path d="M11.7048 21.4C16.1344 19.8462 17.1433 19.0925 17.1433 18.1184C17.1433 17.2951 16.3548 16.9009 15.114 16.9009C14.082 16.9009 12.9456 17.156 11.9947 17.5502V15.347C13.1311 14.8832 14.4183 14.6745 15.7286 14.6745C18.7087 14.6745 20.2278 15.7877 20.2278 17.5386C20.2278 19.3012 18.7667 20.6579 15.0213 21.7247L20.4365 21.5044V23.6496H11.7048V21.4Z" fill="white" style="fill:white;fill-opacity:1;"/>
<defs>
<linearGradient id="paint0_linear_937_34666" x1="23.1666" y1="0.725342" x2="23.1666" y2="43.5494" gradientUnits="userSpaceOnUse">
<stop offset="0.581731" stop-color="white" style="stop-color:white;stop-opacity:1;"/>
<stop offset="1" stop-color="#999999" style="stop-color:#999999;stop-color:color(display-p3 0.6000 0.6000 0.6000);stop-opacity:1;"/>
</linearGradient>
<linearGradient id="paint1_linear_937_34666" x1="23.1666" y1="0.725342" x2="23.1666" y2="43.5494" gradientUnits="userSpaceOnUse">
<stop offset="0.581731" stop-color="white" style="stop-color:white;stop-opacity:1;"/>
<stop offset="1" stop-color="#999999" style="stop-color:#999999;stop-color:color(display-p3 0.6000 0.6000 0.6000);stop-opacity:1;"/>
</linearGradient>
<linearGradient id="paint2_linear_937_34666" x1="23.1666" y1="0.725342" x2="23.1666" y2="43.5494" gradientUnits="userSpaceOnUse">
<stop offset="0.581731" stop-color="white" style="stop-color:white;stop-opacity:1;"/>
<stop offset="1" stop-color="#999999" style="stop-color:#999999;stop-color:color(display-p3 0.6000 0.6000 0.6000);stop-opacity:1;"/>
</linearGradient>
<linearGradient id="paint3_linear_937_34666" x1="23.1666" y1="0.725342" x2="23.1666" y2="43.5494" gradientUnits="userSpaceOnUse">
<stop offset="0.581731" stop-color="white" style="stop-color:white;stop-opacity:1;"/>
<stop offset="1" stop-color="#999999" style="stop-color:#999999;stop-color:color(display-p3 0.6000 0.6000 0.6000);stop-opacity:1;"/>
</linearGradient>
<linearGradient id="paint4_linear_937_34666" x1="23.1666" y1="0.725342" x2="23.1666" y2="43.5494" gradientUnits="userSpaceOnUse">
<stop offset="0.581731" stop-color="white" style="stop-color:white;stop-opacity:1;"/>
<stop offset="1" stop-color="#999999" style="stop-color:#999999;stop-color:color(display-p3 0.6000 0.6000 0.6000);stop-opacity:1;"/>
</linearGradient>
<linearGradient id="paint5_linear_937_34666" x1="23.1666" y1="0.725342" x2="23.1666" y2="43.5494" gradientUnits="userSpaceOnUse">
<stop offset="0.581731" stop-color="white" style="stop-color:white;stop-opacity:1;"/>
<stop offset="1" stop-color="#999999" style="stop-color:#999999;stop-color:color(display-p3 0.6000 0.6000 0.6000);stop-opacity:1;"/>
</linearGradient>
<linearGradient id="paint6_linear_937_34666" x1="23.1666" y1="0.725342" x2="23.1666" y2="43.5494" gradientUnits="userSpaceOnUse">
<stop offset="0.581731" stop-color="white" style="stop-color:white;stop-opacity:1;"/>
<stop offset="1" stop-color="#999999" style="stop-color:#999999;stop-color:color(display-p3 0.6000 0.6000 0.6000);stop-opacity:1;"/>
</linearGradient>
<linearGradient id="paint7_linear_937_34666" x1="23.1666" y1="0.725342" x2="23.1666" y2="43.5494" gradientUnits="userSpaceOnUse">
<stop offset="0.581731" stop-color="white" style="stop-color:white;stop-opacity:1;"/>
<stop offset="1" stop-color="#999999" style="stop-color:#999999;stop-color:color(display-p3 0.6000 0.6000 0.6000);stop-opacity:1;"/>
</linearGradient>
<linearGradient id="paint8_linear_937_34666" x1="23.1666" y1="0.725342" x2="23.1666" y2="43.5494" gradientUnits="userSpaceOnUse">
<stop offset="0.581731" stop-color="white" style="stop-color:white;stop-opacity:1;"/>
<stop offset="1" stop-color="#999999" style="stop-color:#999999;stop-color:color(display-p3 0.6000 0.6000 0.6000);stop-opacity:1;"/>
</linearGradient>
<linearGradient id="paint9_linear_937_34666" x1="23.1666" y1="0.725342" x2="23.1666" y2="43.5494" gradientUnits="userSpaceOnUse">
<stop offset="0.581731" stop-color="white" style="stop-color:white;stop-opacity:1;"/>
<stop offset="1" stop-color="#999999" style="stop-color:#999999;stop-color:color(display-p3 0.6000 0.6000 0.6000);stop-opacity:1;"/>
</linearGradient>
<linearGradient id="paint10_linear_937_34666" x1="23.1666" y1="0.725342" x2="23.1666" y2="43.5494" gradientUnits="userSpaceOnUse">
<stop offset="0.581731" stop-color="white" style="stop-color:white;stop-opacity:1;"/>
<stop offset="1" stop-color="#999999" style="stop-color:#999999;stop-color:color(display-p3 0.6000 0.6000 0.6000);stop-opacity:1;"/>
</linearGradient>
<linearGradient id="paint11_linear_937_34666" x1="23.1666" y1="0.725342" x2="23.1666" y2="43.5494" gradientUnits="userSpaceOnUse">
<stop offset="0.581731" stop-color="white" style="stop-color:white;stop-opacity:1;"/>
<stop offset="1" stop-color="#999999" style="stop-color:#999999;stop-color:color(display-p3 0.6000 0.6000 0.6000);stop-opacity:1;"/>
</linearGradient>
<linearGradient id="paint12_linear_937_34666" x1="23.1666" y1="0.725342" x2="23.1666" y2="43.5494" gradientUnits="userSpaceOnUse">
<stop offset="0.581731" stop-color="white" style="stop-color:white;stop-opacity:1;"/>
<stop offset="1" stop-color="#999999" style="stop-color:#999999;stop-color:color(display-p3 0.6000 0.6000 0.6000);stop-opacity:1;"/>
</linearGradient>
<linearGradient id="paint13_linear_937_34666" x1="23.1666" y1="0.725342" x2="23.1666" y2="43.5494" gradientUnits="userSpaceOnUse">
<stop offset="0.581731" stop-color="white" style="stop-color:white;stop-opacity:1;"/>
<stop offset="1" stop-color="#999999" style="stop-color:#999999;stop-color:color(display-p3 0.6000 0.6000 0.6000);stop-opacity:1;"/>
</linearGradient>
<linearGradient id="paint14_linear_937_34666" x1="23.1666" y1="0.725342" x2="23.1666" y2="43.5494" gradientUnits="userSpaceOnUse">
<stop offset="0.581731" stop-color="white" style="stop-color:white;stop-opacity:1;"/>
<stop offset="1" stop-color="#999999" style="stop-color:#999999;stop-color:color(display-p3 0.6000 0.6000 0.6000);stop-opacity:1;"/>
</linearGradient>
</defs>
</svg>

