<svg width="46" height="41" viewBox="0 0 46 41" fill="none" xmlns="http://www.w3.org/2000/svg">
<path d="M10.1759 35.3888C10.2893 35.3974 10.6328 35.7591 10.7736 35.4749C10.3494 35.1254 9.49579 34.1335 9.05955 33.9338C8.56319 33.7047 7.70617 33.9079 7.11192 33.827C5.39272 33.5911 3.70099 32.6509 2.55715 31.3559C3.80576 31.1252 5.17288 31.4489 6.36997 31.8243C6.52454 31.8725 7.78002 32.6457 7.52068 32.0447C7.48633 31.9655 6.56232 30.7188 6.48847 30.6758C6.05051 30.4157 4.77958 30.3486 3.98094 29.9284C3.40043 29.6236 1.70184 28.1565 1.53181 27.5779C1.45624 27.3196 1.54727 27.2938 1.78256 27.3248C2.18274 27.3782 3.30426 27.7914 3.701 27.9791C4.18876 28.2116 4.90667 28.9038 5.21238 29.0382C5.42191 29.1311 5.53012 29.002 5.46485 28.785C5.42363 28.6473 4.77614 27.373 4.70744 27.3127C4.40688 27.051 3.43307 26.8564 2.84397 26.4345C1.73963 25.6459 0.803599 24.3923 0.333008 23.1163C0.743487 23.0043 1.34117 23.4417 1.6881 23.6466C2.60524 24.1873 3.30597 24.9106 4.09602 25.6063L3.6718 23.545C1.94229 22.8356 0.520214 20.9483 0.587196 19.0851L1.44937 19.7653L3.41246 22.1709C3.37639 21.5562 3.50864 20.8674 3.34032 20.2681C3.24243 19.9185 2.67222 19.6878 2.39055 19.3365C1.55586 18.2964 1.06466 16.9085 1.18832 15.5654L2.11576 16.3523L3.41246 18.5668C3.27334 18.0054 3.70443 17.3063 3.55844 16.8035C3.48974 16.5676 2.81993 15.9804 2.60352 15.5172C2.14152 14.5253 1.9921 13.2717 2.21709 12.2178C3.07755 12.9841 3.34032 14.1206 3.58936 15.221C3.64947 15.4862 3.47085 15.5206 3.9277 15.4793L4.44295 13.4198C3.86244 13.6282 3.53096 12.5433 3.45539 12.0904C3.30941 11.2225 3.42276 10.3202 3.58764 9.47129C3.97579 9.40069 3.86072 9.49195 3.96892 9.68998C4.38284 10.4442 4.56145 11.703 4.44295 12.5588C4.84999 12.7913 5.11792 11.7753 5.12994 11.5325C5.51122 11.4929 5.05437 12.1696 5.55244 12.0422C6.19307 11.8786 7.1686 11.071 8.03936 11.1898C7.58251 11.7753 6.97109 12.452 6.31672 12.8068C5.09216 13.4715 4.37425 13.0255 4.27464 14.9627L6.92815 13.4198C7.17203 14.0724 5.90625 15.264 5.38585 15.6498C4.26776 16.4763 3.36952 16.1664 3.84526 18.2224C4.5563 17.2805 5.52153 16.3575 6.67053 15.9942C6.89552 16.2335 5.69671 18.169 5.44768 18.4566C4.65592 19.3675 2.80962 19.6844 3.84698 21.1377C4.57004 20.3077 5.09903 19.2074 6.157 18.739C6.23944 19.6293 5.81522 20.6934 5.33604 21.4322C4.43951 22.8166 3.30254 22.7323 4.36051 24.9157C5.06811 23.6794 5.42363 22.1502 6.67053 21.3134C6.76155 22.6307 6.52626 24.0909 5.9114 25.2687C5.24501 26.5447 4.27292 26.7824 5.81522 28.3476C5.95262 27.0234 6.22055 25.3893 7.18405 24.4009C7.68384 26.1745 7.57564 28.2598 6.53656 29.8354L7.69758 31.6074C7.44168 30.018 7.68384 28.4544 8.0428 26.8926C8.07715 26.7049 8.2695 26.7824 8.38801 26.884C8.82425 27.2628 9.41335 29.8785 9.41678 30.5001C9.42022 31.1596 8.81395 32.9488 8.97711 33.3173C9.08703 33.5635 10.7856 35.0289 10.9522 34.8671C10.2738 33.3397 9.79463 31.3129 9.92516 29.6322C9.94405 29.3774 9.78948 29.1363 10.1793 29.2086C11.926 30.9995 12.9205 33.629 12.5134 36.1258C12.5907 36.3549 13.1678 36.6424 13.4048 36.7854C13.5456 36.8715 15.1274 37.8065 14.887 37.1883C14.6723 36.6407 13.8943 35.7246 13.5594 34.9153C13.2244 34.106 12.9119 33.1503 12.7865 32.2565C12.7693 32.1291 12.4894 31.8071 12.917 31.9552C13.1884 32.0499 14.0334 32.7421 14.2944 32.9781C15.9192 34.4469 16.8569 36.3273 17.2296 38.4815C20.9222 39.6301 24.9669 39.6593 28.6543 38.4936C28.9566 36.4806 29.9201 34.5519 31.4057 33.1503C31.6239 32.9436 32.766 32.0275 32.9532 31.9552C33.3276 31.8106 33.1713 32.1308 33.1404 32.3151C32.8313 34.1628 31.7956 36.0535 30.8098 37.6153L33.3499 36.3893C32.9429 33.7151 33.8635 31.1717 35.6891 29.2121C36.0704 29.2069 35.945 30.6913 35.9244 30.9892C35.8197 32.4012 35.3834 33.7254 34.9197 35.0427L36.8124 33.5928C37.1507 33.0125 36.4534 31.5092 36.4448 30.6654C36.4328 29.4411 36.9532 27.8672 37.5715 26.8082C37.745 26.8065 38.1709 28.2667 38.1709 28.4355V31.7813C38.5007 31.6074 39.3525 30.4433 39.3611 30.1523C39.3714 29.8389 38.7669 28.9521 38.6295 28.4888C38.3787 27.6382 38.1881 25.5064 38.5951 24.7418C38.8648 24.2338 39.4384 25.7475 39.4985 25.9007C39.8437 26.7806 40.1117 27.7381 40.055 28.6903C40.4208 28.4665 41.0443 27.2146 41.0477 26.8547C41.0511 26.5137 40.4603 26.1711 40.2525 25.8301C39.4522 24.518 39.0846 23.025 39.198 21.4838C39.4642 21.1825 40.4294 22.7874 40.5325 22.9751C40.9343 23.6983 41.2383 24.4508 41.4238 25.2567L42.1005 23.2695L42.0284 23.0302C40.462 22.1003 39.8747 20.4369 39.538 18.739C39.7819 18.4979 41.3242 20.2337 41.496 20.4644C41.733 20.783 41.9666 21.2755 42.1091 21.6526L42.456 20.1941C41.9666 19.4484 41.0528 19.2091 40.3985 18.4755C40.1512 18.1983 39.6686 17.4716 39.5088 17.1358C38.6552 15.3415 39.6754 16.0785 40.5513 16.7777C41.204 17.2977 41.6935 17.9813 42.2757 18.5651C42.7016 16.0768 41.4719 16.5814 40.1426 15.4724C39.7802 15.1693 38.9867 14.2584 38.8562 13.8434C38.7841 13.6144 38.8665 13.53 39.0984 13.6006L41.7639 15.1332L41.3929 13.4473C39.9811 13.2355 38.511 12.4916 37.8274 11.1881C38.882 11.4223 39.9708 11.6909 40.8244 12.3866L40.9103 12.0457L41.2486 12.3866L41.9374 9.46957C42.3839 9.41963 42.207 9.47646 42.2826 9.72098C42.4869 10.3839 42.5265 11.4051 42.4079 12.0887C42.2345 13.0961 41.125 14.112 42.2757 15.1332C42.3994 14.0466 42.9266 13.0788 43.5621 12.2178C43.9348 13.2476 43.7081 14.6768 43.2203 15.6498C42.7326 16.6227 42.0507 16.7243 42.6209 18.2207L43.4041 16.8638L44.6716 15.4758C44.7403 16.3523 44.5737 17.2374 44.2439 18.0485C43.6548 19.4967 42.1898 20.0167 42.6209 21.8248L45.2744 19.0799C45.3895 20.6056 44.3247 22.0349 43.2203 23.0267C42.9747 23.2471 42.5213 23.3195 42.3684 23.5468C42.1555 23.8636 42.1057 24.8296 41.9356 25.2567C42.0679 25.3979 43.5106 24.0754 43.763 23.9153C44.8365 23.2351 45.9631 22.5738 44.9172 24.3854C44.414 25.2567 43.7012 26.0695 42.8459 26.5998C41.6557 27.3368 41.0941 27.113 40.5668 28.7764C40.6647 29.0123 40.888 28.7971 41.0271 28.723C42.0748 28.1668 43.0194 27.4815 44.2439 27.3145C44.4809 27.4092 44.2731 27.6399 44.1958 27.7811C43.5398 28.9899 41.8566 30.0627 40.5754 30.5018C40.2525 30.6121 39.8283 30.5036 39.5397 30.6654C39.4556 30.7119 38.432 32.2187 38.5127 32.2927C39.7991 31.7468 41.2881 31.2664 42.7016 31.2578C42.9593 31.2578 43.2049 31.1476 43.1327 31.5195C42.061 32.7301 40.5376 33.598 38.9214 33.8201C38.298 33.9062 37.544 33.703 36.9773 33.932C36.4689 34.1369 35.708 35.0892 35.2598 35.4698C37.0511 35.3234 38.8029 35.3268 40.5651 35.7281C40.6389 36.0811 40.3899 36.1258 40.1701 36.2739C38.2671 37.574 35.2649 37.6119 33.1352 36.93L30.638 38.2163C32.6492 38.4006 35.1172 38.7691 36.6286 40.1863C34.6861 40.6305 32.3641 40.8148 30.468 40.1002C29.8961 39.8849 28.7179 39.0222 28.3194 38.9929C27.5242 38.9361 25.4529 39.6008 24.3864 39.6714C23.6994 39.7162 22.8458 39.711 22.1537 39.6817C20.8569 39.6249 18.4834 38.9137 17.5371 38.9723C16.9754 39.0067 16.2816 39.6955 15.7423 39.9297C13.9441 40.7115 11.3524 40.739 9.48548 40.1914C9.23645 40.1191 9.18664 40.2896 9.23645 39.8453C10.7204 39.2013 11.9879 38.559 13.6229 38.3196C13.8118 38.2921 15.7492 38.4298 15.2288 37.958C14.3992 38.0596 13.355 36.8594 12.7195 36.7991C12.3863 36.7681 11.3009 37.2245 10.698 37.2761C8.80192 37.4397 6.62931 37.0109 5.12822 35.8107C5.53699 35.8297 6.25661 35.3819 6.58293 35.3819C7.74395 35.3819 9.03894 35.301 10.1776 35.3819L10.1759 35.3888Z" fill="url(#paint0_linear_937_34686)" style=""/>
<path d="M40.5617 11.1916C40.2783 11.2639 40.4913 10.9023 40.2783 10.8489C39.0503 10.5372 37.5784 10.7025 36.797 9.30601C37.8068 9.23541 38.8167 9.52125 39.7047 9.98963L40.3058 7.07604C41.2006 8.37097 40.8777 9.77611 40.56 11.1899L40.5617 11.1916Z" fill="url(#paint1_linear_937_34686)" style=""/>
<path d="M5.81009 9.98958L6.32533 9.30596L6.49536 9.82083C7.27167 9.36623 8.17506 9.24397 9.06129 9.30596C8.67313 9.96892 7.72852 10.3925 7.01748 10.6026C6.64135 10.7128 6.20683 10.6026 5.91485 10.7008C5.60571 10.8024 5.75856 11.2242 5.46831 11.1915C4.74696 9.73473 4.81395 8.37436 5.46831 6.90379L5.98183 8.71187L5.80837 9.98958H5.81009Z" fill="url(#paint2_linear_937_34686)" style=""/>
<path d="M7.3523 7.75962C7.78339 7.95765 7.6563 7.43072 7.76793 7.43588L10.4335 7.41866C9.63656 8.63266 8.09426 8.21078 7.11872 8.44152C6.91778 8.48974 7.12216 8.86168 6.84049 8.78764C6.50043 7.45827 6.57772 6.12546 7.43818 5.01478C7.86755 5.93776 7.57386 6.82975 7.3523 7.75789V7.75962Z" fill="url(#paint3_linear_937_34686)" style=""/>
<path d="M39.021 8.62066C37.7827 8.28315 36.261 8.66544 35.4281 7.42044L38.3375 7.75967C38.3444 6.90729 37.9064 5.96881 38.4234 5.18875C39.2289 6.15306 39.3989 7.43766 39.021 8.62066Z" fill="url(#paint4_linear_937_34686)" style=""/>
<path d="M9.06464 5.87237C9.86843 5.72428 10.6705 5.68639 11.4588 5.95847C10.6344 6.67653 9.55756 6.59388 8.5597 6.37863C8.47211 5.43671 8.50818 4.3708 9.4047 3.81288L9.06464 5.87065V5.87237Z" fill="url(#paint5_linear_937_34686)" style=""/>
<path d="M37.2915 6.37003C36.3795 6.62488 34.9729 6.76953 34.401 5.87582H36.6269L36.541 3.81633C37.2125 4.52234 37.4392 5.41089 37.2932 6.37175L37.2915 6.37003Z" fill="url(#paint6_linear_937_34686)" style=""/>
<path d="M35.5827 4.82883L33.374 5.01309C33.3001 4.56709 33.441 4.70485 33.7432 4.6222C34.1984 4.49649 34.6157 4.46722 35.0846 4.49821L34.5711 2.95704C35.2203 2.85889 35.8317 4.53093 35.5827 4.82883Z" fill="url(#paint7_linear_937_34686)" style=""/>
<path d="M10.7754 4.4999C10.8853 4.59633 12.3451 4.29154 12.486 4.84257C11.7183 5.17319 11.0467 4.93384 10.2704 4.8374C10.2361 4.49645 10.2292 4.13484 10.3374 3.80422C10.413 3.57519 10.8853 2.95356 11.1154 2.78653L10.7754 4.4999Z" fill="url(#paint8_linear_937_34686)" style=""/>
<path d="M34.2311 3.81287C33.4238 3.90758 32.8313 4.39146 32.0052 3.98507C32.2697 3.58729 33.1473 3.45815 33.5424 3.64412L33.0305 2.10122C33.6214 1.94625 34.3066 3.73711 34.2293 3.81287H34.2311Z" fill="url(#paint9_linear_937_34686)" style=""/>
<path d="M12.3159 3.47019C12.3984 3.55112 13.7603 3.46847 13.8565 3.98506L11.8179 3.80081C11.6753 3.08446 12.036 2.44044 12.656 2.09949L12.3142 3.47191L12.3159 3.47019Z" fill="url(#paint10_linear_937_34686)" style=""/>
<path d="M13.6847 2.6126C13.7912 2.71592 15.0536 2.51789 14.8818 3.12747C13.2004 3.33755 12.5735 2.48345 14.0248 1.41238L13.6847 2.6126Z" fill="url(#paint11_linear_937_34686)" style=""/>
<path d="M30.8063 3.12578L32.1751 2.6109C32.1768 2.44043 31.3628 1.36763 31.9158 1.4124L32.6148 2.78999C32.1133 3.24459 31.4297 3.1275 30.8063 3.12405V3.12578Z" fill="url(#paint12_linear_937_34686)" style=""/>
<path d="M15.0552 1.92384L16.2523 2.18214C14.7719 2.93637 14.1158 1.55706 15.5671 0.725342L15.0552 1.92384Z" fill="url(#paint13_linear_937_34686)" style=""/>
<path d="M29.6075 2.43869C29.6797 1.93415 30.5607 2.16489 30.6363 2.09602C29.8737 0.122625 30.9317 0.820027 31.0777 2.09946C30.6689 2.48002 30.1348 2.46796 29.6092 2.43869H29.6075Z" fill="url(#paint14_linear_937_34686)" style=""/>
<path d="M28.729 18.3613C29.6495 18.3613 30.4165 18.7584 30.8317 19.5345V16.4843H32.9524V23.6496H30.8317V22.6479C30.3534 23.4511 29.6765 23.8572 28.7561 23.8572C27.258 23.8572 26.2383 22.7201 26.2383 21.1228C26.2383 19.5074 27.2129 18.3613 28.729 18.3613ZM29.6044 19.6969C28.8914 19.6969 28.4763 20.2204 28.4763 21.0777C28.4763 21.926 28.8914 22.4404 29.6044 22.4404C30.2812 22.4404 30.7414 21.935 30.7414 21.1138V21.0326C30.7414 20.2023 30.3083 19.6969 29.6044 19.6969Z" fill="white" style="fill:white;fill-opacity:1;"/>
<path d="M21.3773 23.6496V18.5418H23.462V19.8865C23.8681 18.8848 24.581 18.4516 25.4383 18.4516C25.5647 18.4516 25.691 18.4606 25.8264 18.4787V20.3557C25.4383 20.2474 25.1586 20.2113 24.8517 20.2113C24.3644 20.2113 23.9403 20.3287 23.4981 20.5904V23.6496H21.3773Z" fill="white" style="fill:white;fill-opacity:1;"/>
<path d="M11.5973 21.1797C12.6062 21.5276 13.8005 21.8175 15.3196 21.8175C16.7111 21.8175 17.5576 21.4812 17.5576 20.8203C17.5576 20.1709 16.7575 19.8462 15.3544 19.8462H13.5454V18.8953L16.5719 16.8893H11.9568V14.9528H19.8767V16.7849L16.6995 18.7562C18.6708 18.4083 20.4102 19.1968 20.4102 21.0058C20.4102 22.9075 18.6592 23.9163 15.5283 23.9163C14.102 23.9163 12.9772 23.7308 11.8177 23.3945L11.5973 21.1797Z" fill="white" style="fill:white;fill-opacity:1;"/>
<defs>
<linearGradient id="paint0_linear_937_34686" x1="22.8333" y1="0.725342" x2="22.8334" y2="43.5494" gradientUnits="userSpaceOnUse">
<stop offset="0.201923" stop-color="#BF6B0B" style="stop-color:#BF6B0B;stop-color:color(display-p3 0.7505 0.4200 0.0423);stop-opacity:1;"/>
<stop offset="0.605769" stop-color="#C97B3F" style="stop-color:#C97B3F;stop-color:color(display-p3 0.7877 0.4819 0.2482);stop-opacity:1;"/>
</linearGradient>
<linearGradient id="paint1_linear_937_34686" x1="22.8333" y1="0.725342" x2="22.8334" y2="43.5494" gradientUnits="userSpaceOnUse">
<stop offset="0.581731" stop-color="#C97B3F" style="stop-color:#C97B3F;stop-color:color(display-p3 0.7877 0.4819 0.2482);stop-opacity:1;"/>
<stop offset="1" stop-color="#895A0E" style="stop-color:#895A0E;stop-color:color(display-p3 0.5386 0.3529 0.0542);stop-opacity:1;"/>
</linearGradient>
<linearGradient id="paint2_linear_937_34686" x1="22.8333" y1="0.725342" x2="22.8334" y2="43.5494" gradientUnits="userSpaceOnUse">
<stop offset="0.581731" stop-color="#C97B3F" style="stop-color:#C97B3F;stop-color:color(display-p3 0.7877 0.4819 0.2482);stop-opacity:1;"/>
<stop offset="1" stop-color="#895A0E" style="stop-color:#895A0E;stop-color:color(display-p3 0.5386 0.3529 0.0542);stop-opacity:1;"/>
</linearGradient>
<linearGradient id="paint3_linear_937_34686" x1="22.8333" y1="0.725342" x2="22.8334" y2="43.5494" gradientUnits="userSpaceOnUse">
<stop offset="0.581731" stop-color="#C97B3F" style="stop-color:#C97B3F;stop-color:color(display-p3 0.7877 0.4819 0.2482);stop-opacity:1;"/>
<stop offset="1" stop-color="#895A0E" style="stop-color:#895A0E;stop-color:color(display-p3 0.5386 0.3529 0.0542);stop-opacity:1;"/>
</linearGradient>
<linearGradient id="paint4_linear_937_34686" x1="22.8333" y1="0.725342" x2="22.8334" y2="43.5494" gradientUnits="userSpaceOnUse">
<stop offset="0.581731" stop-color="#C97B3F" style="stop-color:#C97B3F;stop-color:color(display-p3 0.7877 0.4819 0.2482);stop-opacity:1;"/>
<stop offset="1" stop-color="#895A0E" style="stop-color:#895A0E;stop-color:color(display-p3 0.5386 0.3529 0.0542);stop-opacity:1;"/>
</linearGradient>
<linearGradient id="paint5_linear_937_34686" x1="22.8333" y1="0.725342" x2="22.8334" y2="43.5494" gradientUnits="userSpaceOnUse">
<stop offset="0.581731" stop-color="#C97B3F" style="stop-color:#C97B3F;stop-color:color(display-p3 0.7877 0.4819 0.2482);stop-opacity:1;"/>
<stop offset="1" stop-color="#895A0E" style="stop-color:#895A0E;stop-color:color(display-p3 0.5386 0.3529 0.0542);stop-opacity:1;"/>
</linearGradient>
<linearGradient id="paint6_linear_937_34686" x1="22.8333" y1="0.725342" x2="22.8334" y2="43.5494" gradientUnits="userSpaceOnUse">
<stop offset="0.581731" stop-color="#C97B3F" style="stop-color:#C97B3F;stop-color:color(display-p3 0.7877 0.4819 0.2482);stop-opacity:1;"/>
<stop offset="1" stop-color="#895A0E" style="stop-color:#895A0E;stop-color:color(display-p3 0.5386 0.3529 0.0542);stop-opacity:1;"/>
</linearGradient>
<linearGradient id="paint7_linear_937_34686" x1="22.8333" y1="0.725342" x2="22.8334" y2="43.5494" gradientUnits="userSpaceOnUse">
<stop offset="0.581731" stop-color="#C97B3F" style="stop-color:#C97B3F;stop-color:color(display-p3 0.7877 0.4819 0.2482);stop-opacity:1;"/>
<stop offset="1" stop-color="#895A0E" style="stop-color:#895A0E;stop-color:color(display-p3 0.5386 0.3529 0.0542);stop-opacity:1;"/>
</linearGradient>
<linearGradient id="paint8_linear_937_34686" x1="22.8333" y1="0.725342" x2="22.8334" y2="43.5494" gradientUnits="userSpaceOnUse">
<stop offset="0.581731" stop-color="#C97B3F" style="stop-color:#C97B3F;stop-color:color(display-p3 0.7877 0.4819 0.2482);stop-opacity:1;"/>
<stop offset="1" stop-color="#895A0E" style="stop-color:#895A0E;stop-color:color(display-p3 0.5386 0.3529 0.0542);stop-opacity:1;"/>
</linearGradient>
<linearGradient id="paint9_linear_937_34686" x1="22.8333" y1="0.725342" x2="22.8334" y2="43.5494" gradientUnits="userSpaceOnUse">
<stop offset="0.581731" stop-color="#C97B3F" style="stop-color:#C97B3F;stop-color:color(display-p3 0.7877 0.4819 0.2482);stop-opacity:1;"/>
<stop offset="1" stop-color="#895A0E" style="stop-color:#895A0E;stop-color:color(display-p3 0.5386 0.3529 0.0542);stop-opacity:1;"/>
</linearGradient>
<linearGradient id="paint10_linear_937_34686" x1="22.8333" y1="0.725342" x2="22.8334" y2="43.5494" gradientUnits="userSpaceOnUse">
<stop offset="0.581731" stop-color="#C97B3F" style="stop-color:#C97B3F;stop-color:color(display-p3 0.7877 0.4819 0.2482);stop-opacity:1;"/>
<stop offset="1" stop-color="#895A0E" style="stop-color:#895A0E;stop-color:color(display-p3 0.5386 0.3529 0.0542);stop-opacity:1;"/>
</linearGradient>
<linearGradient id="paint11_linear_937_34686" x1="22.8333" y1="0.725342" x2="22.8334" y2="43.5494" gradientUnits="userSpaceOnUse">
<stop offset="0.581731" stop-color="#C97B3F" style="stop-color:#C97B3F;stop-color:color(display-p3 0.7877 0.4819 0.2482);stop-opacity:1;"/>
<stop offset="1" stop-color="#895A0E" style="stop-color:#895A0E;stop-color:color(display-p3 0.5386 0.3529 0.0542);stop-opacity:1;"/>
</linearGradient>
<linearGradient id="paint12_linear_937_34686" x1="22.8333" y1="0.725342" x2="22.8334" y2="43.5494" gradientUnits="userSpaceOnUse">
<stop offset="0.581731" stop-color="#C97B3F" style="stop-color:#C97B3F;stop-color:color(display-p3 0.7877 0.4819 0.2482);stop-opacity:1;"/>
<stop offset="1" stop-color="#895A0E" style="stop-color:#895A0E;stop-color:color(display-p3 0.5386 0.3529 0.0542);stop-opacity:1;"/>
</linearGradient>
<linearGradient id="paint13_linear_937_34686" x1="22.8333" y1="0.725342" x2="22.8334" y2="43.5494" gradientUnits="userSpaceOnUse">
<stop offset="0.581731" stop-color="#C97B3F" style="stop-color:#C97B3F;stop-color:color(display-p3 0.7877 0.4819 0.2482);stop-opacity:1;"/>
<stop offset="1" stop-color="#895A0E" style="stop-color:#895A0E;stop-color:color(display-p3 0.5386 0.3529 0.0542);stop-opacity:1;"/>
</linearGradient>
<linearGradient id="paint14_linear_937_34686" x1="22.8333" y1="0.725342" x2="22.8334" y2="43.5494" gradientUnits="userSpaceOnUse">
<stop offset="0.581731" stop-color="#C97B3F" style="stop-color:#C97B3F;stop-color:color(display-p3 0.7877 0.4819 0.2482);stop-opacity:1;"/>
<stop offset="1" stop-color="#895A0E" style="stop-color:#895A0E;stop-color:color(display-p3 0.5386 0.3529 0.0542);stop-opacity:1;"/>
</linearGradient>
</defs>
</svg>

